<?xml version="1.0" encoding="utf-8" ?>
<svg baseProfile="full" height="200mm" version="1.1" viewBox="0,0,200,200" width="200mm" xmlns="http://www.w3.org/2000/svg" xmlns:ev="http://www.w3.org/2001/xml-events" xmlns:xlink="http://www.w3.org/1999/xlink"><defs /><rect fill="#1a1a1a" height="200" width="200" x="0" y="0" /><text alignment-baseline="middle" fill="#e1ed5e" style="dominant-baseline: central; font-size:9.0px; font-family:Arial;" text-anchor="middle" x="100.0" y="100.0">2025</text><line stroke="#e1ed5e" stroke-width="0.3" x1="100.0" x2="100.0" y1="15.0" y2="10.0" /><path d="M 100.0 14.0 a86.0,86.0 0 0,1 42.46469731375804,11.215312516191453" fill="none" id="id37" stroke="none" /><text fill="#e1ed5e" style="font-size:6.75px; font-family:Arial;" text-anchor="middle"><textPath startOffset="22.20632615414155" xlink:href="#id37">January</textPath></text><path d="M 100.0 79.0 l 0.0 -4.639037936333899 a25.6390379363339,25.6390379363339 0 0,0 0.44133389149107216,0.0037987001381458454 l -0.07985341221854377 4.638350612804312" fill="#ff2a04" stroke="none" /><path d="M 100.36148047927253 79.00311137660856 l 0.08684182135775934 -5.044278060521824 a26.045025535495192,26.045025535495192 0 0,0 0.44818945305702323,0.0115754112847775 l -0.17365790960965036 5.042035857094687" fill="#ff3004" stroke="none" /><path d="M 101.80526077348638 79.07773832637324 l 0.3457467788419371 -4.0070690539486 a25.021957637543203,25.021957637543203 0 0,0 0.4287987535601978,0.04071960844891984 l -0.4146706594923791 4.0005239009845015" fill="#ff2103" stroke="none" /><path d="M 102.16513564639614 79.11191278185805 l 0.5844423293694858 -5.638391465294047 a26.66860045798428,26.66860045798428 0 0,0 0.4562023454906544,0.05125964903619208 l -0.6814113783698655 5.627495862787254" fill="#ff3905" stroke="none" /><path d="M 102.52436894288641 79.15227682838746 l 0.4633799778335098 -3.8268643449935187 a24.854816690692264,24.854816690692264 0 0,0 0.42428979567859687,0.05508499267775337 l -0.5291845020199528 3.8183210291516287" fill="#ff1f03" stroke="none" /><path d="M 102.88285421437855 79.19881850522331 l 0.6937580964928887 -5.005798769373488 a26.053644389538164,26.053644389538164 0 0,0 0.44369482888475076,0.06538908414463267 l -0.7798219058062952 4.993115201067886" fill="#ff3004" stroke="none" /><path d="M 103.59715602781102 79.31037775812273 l 0.6865592490251208 -3.9488560960867263 a25.008095316983272,25.008095316983272 0 0,0 0.42347622412585467,0.07738757316709562 l -0.7544305942538764 3.936453041568892" fill="#ff2103" stroke="none" /><path d="M 103.95276090670814 79.375362276772 l 1.4613731539367245 -7.625123955067901 a28.76389894480842,28.76389894480842 0 0,0 0.4854710467015816,0.09738092489384956 l -1.5924106101054316 7.598839074096843" fill="#ff5708" stroke="none" /><path d="M 107.4271985657038 80.35727306442388 l 1.1629274165444816 -3.0755964697859963 a24.288114021914524,24.288114021914524 0 0,0 0.38978587218061145,0.15123086271922093 l -1.21569645372476 3.0551229031762284" fill="#ff1702" stroke="none" /><path d="M 108.09893153111575 80.62456947434976 l 1.495605614627464 -3.5780031685234785 a24.87800758489063,24.87800758489063 0 0,0 0.3936840949654709,0.1685549839296909 l -1.55697346738325 3.551728656630997" fill="#ff1f03" stroke="none" /><path d="M 108.43124777332544 80.76684994638697 l 1.4660820054515131 -3.3443893430532317 a24.651621081743937,24.651621081743937 0 0,0 0.387168830549545,0.1737113685670561 l -1.5234329544678382 3.3186576439696442" fill="#ff1c02" stroke="none" /><path d="M 108.76106565485865 80.91482961587045 l 10.973897391368247 -23.90561944665588 a47.3040883720499,47.3040883720499 0 0,0 0.7370918290449551,0.34607449705898674 l -11.383767431712801 23.71317996695689" fill="#bbff1f" stroke="none" /><line stroke="#e1ed5e" stroke-width="0.3" x1="143.23703022742887" x2="145.7803849466894" y1="26.81831364943548" y2="22.513508569990506" /><path d="M 143.74570117128098 25.957352633546492 a86.0,86.0 0 0,1 28.547481713284135,27.462654790039103" fill="none" id="id38" stroke="none" /><text fill="#e1ed5e" style="font-size:6.75px; font-family:Arial;" text-anchor="middle"><textPath startOffset="19.985693538727396" xlink:href="#id38">February</textPath></text><path d="M 111.2981086023043 82.29822771554956 l 20.045356578501387 -31.406879682575497 a58.25866894770991,58.25866894770991 0 0,0 0.8406808440511206,0.5468022060298819 l -20.583004448336787 31.057178552386087" fill="#45ff2d" stroke="none" /><path d="M 111.90073688211348 82.69761687909136 l 1.9322383932759188 -2.809265450750104 a24.409621325195467,24.409621325195467 0 0,0 0.34413946518786825,0.24109168786848612 l -1.980308998047438 2.775588920117682" fill="#ff1802" stroke="none" /><path d="M 112.48926042617603 83.11751280151076 l 2.051128523451647 -2.772634235975417 a24.44885906151874,24.44885906151874 0 0,0 0.33617629001108323,0.25320101197095063 l -2.0985509672211133 2.736916634498619" fill="#ff1902" stroke="none" /><path d="M 113.06298171725822 83.55741782278167 l 33.64663420816443 -42.35155188372011 a75.09020188996763,75.09020188996763 0 0,0 1.0051238358274346,0.8127402402283415 l -34.370661442556354 41.76610554622764" fill="#42ffd5" stroke="none" /><path d="M 114.68862486808459 84.99185889309783 l 3.581312753839617 -3.6592157291972764 a26.120123122896466,26.120123122896466 0 0,0 0.3186209733003709,0.31725271358360724 l -3.6437695273073105 3.5970271649635506" fill="#ff3104" stroke="none" /><path d="M 115.9244219780498 86.31012108654704 l 2.2766239049527552 -1.9571640109283583 a24.00225038434097,24.00225038434097 0 0,0 0.2666414412900719,0.31561936344748076 l -2.3099759597299445 1.917685697851771" fill="#ff1302" stroke="none" /><path d="M 116.15771136456269 86.58626213691792 l 2.800303597739204 -2.3247437430713087 a24.63952383018168,24.63952383018168 0 0,0 0.2681032547483701,0.32866288943582517 l -2.839905344563983 2.276196684027383" fill="#ff1c02" stroke="none" /><path d="M 117.45458315368197 88.32363383020206 l 2.7140344227735094 -1.8155724166380223 a24.26531561231933,24.26531561231933 0 0,0 0.22925334578981094,0.34916857380587757 l -2.744884403921245 1.7685857788544708" fill="#ff1602" stroke="none" /><path d="M 117.65298651832404 88.62581576622439 l 2.7928259483403557 -1.7994755072360493 a24.322346893216547,24.322346893216547 0 0,0 0.22373362925249296,0.3538928717301612 l -2.8233871738388046 1.751134987791682" fill="#ff1702" stroke="none" /><line stroke="#e1ed5e" stroke-width="0.3" x1="172.23445277983987" x2="176.4835382374775" y1="55.19839476539836" y2="52.563006222186495" /><path d="M 173.08426987136738 54.67131705675599 a86.0,86.0 0 0,1 12.851231095245387,41.99856678651699" fill="none" id="id39" stroke="none" /><text fill="#e1ed5e" style="font-size:6.75px; font-family:Arial;" text-anchor="middle"><textPath startOffset="22.20632615414155" xlink:href="#id39">March</textPath></text><path d="M 118.03404312379186 89.2402003453031 l 33.29529874739315 -19.865248269956705 a59.771187852646165,59.771187852646165 0 0,0 0.5195548613293928,0.8880876741946843 l -33.632313283192865 19.289181183408125" fill="#36ff2f" stroke="none" /><path d="M 118.21658344932153 89.55222093294921 l 2.0232797353222263 -1.160414065804141 a23.332428282173254,23.332428282173254 0 0,0 0.19681720858472934,0.3501158526179325 l -2.0429545851993884 1.1254147032514148" fill="#ff0901" stroke="none" /><path d="M 118.3937258080291 89.86733742301442 l 3.379070963283275 -1.8614491839219065 a24.85786386997101,24.85786386997101 0 0,0 0.20323304272399859,0.37655996241765616 l -3.4106121052257383 1.8030082381717916" fill="#ff1f03" stroke="none" /><path d="M 118.56541770881063 90.18545643968196 l 3.055047488540856 -1.6150402390836025 a24.455672167769826,24.455672167769826 0 0,0 0.19353819142914444,0.3738541838720285 l -3.0823951131301164 1.562213332951229" fill="#ff1902" stroke="none" /><path d="M 118.73160827565052 90.50648371742162 l 3.270603239201481 -1.6576005993876461 a24.66667223724258,24.66667223724258 0 0,0 0.18868828136538932,0.380384061317627 l -3.2986515335202786 1.6010569495710691" fill="#ff1c02" stroke="none" /><path d="M 118.89224826269711 90.83032412892265 l 4.7836332123886045 -2.3218182099763376 a26.317328888722706,26.317328888722706 0 0,0 0.1942993430556236,0.40924396898546234 l -4.8228907492859845 2.2391318253503347" fill="#ff3404" stroke="none" /><path d="M 119.04729006885535 91.15688171328212 l 3.259394953610625 -1.5132449295261996 a24.593545001855293,24.593545001855293 0 0,0 0.17496279242546853,0.3855073209125263 l -3.2849600629994407 1.4569155997716103" fill="#ff1b02" stroke="none" /><path d="M 119.196687751892 91.48605970444005 l 4.721546840943683 -2.094057497107656 a26.16508290082725,26.16508290082725 0 0,0 0.17905549955168076,0.41328478000794533 l -4.756893050338044 2.012473572513108" fill="#ff3204" stroke="none" /><path d="M 119.34039704204932 91.81776055985345 l 3.3057580052055537 -1.3985495474040677 a24.58942569577986,24.58942569577986 0 0,0 0.16156226085432843,0.39123582966233483 l -3.3293419529460797 1.34143914728843" fill="#ff1b02" stroke="none" /><path d="M 119.61058180528143 92.48833698450437 l 3.4264178400212155 -1.3124595904436727 a24.66918102455619,24.66918102455619 0 0,0 0.14847958509174655,0.39785146864058046 l -3.448502013614587 1.253284984773759" fill="#ff1c02" stroke="none" /><path d="M 119.85752413597 93.16781622104841 l 3.948085112544725 -1.3583789640213715 a25.17523286366079,25.17523286366079 0 0,0 0.13746001571777222,0.410987950755096 l -3.970882422034267 1.2902179103439617" fill="#ff2403" stroke="none" /><path d="M 120.45610955862082 95.25157060432595 l 3.0859496865637226 -0.7163343627613158 a24.16799942980983,24.16799942980983 0 0,0 0.09057891476464708,0.40604751414956824 l -3.097822988330407 0.6631086790617837" fill="#ff1502" stroke="none" /><path d="M 120.53481517161879 95.60439243477599 l 2.9685751514326695 -0.6354423589654752 a24.035823680860123,24.035823680860123 0 0,0 0.08311897328414537,0.40531763283602473 l -2.9790734206318117 0.5842490699660386" fill="#ff1302" stroke="none" /><path d="M 120.73433829027371 96.67025291283417 l 3.9192830509690926 -0.6294013891373849 a24.969499432203218,24.969499432203218 0 0,0 0.06449753276037011,0.4249581552473729 l -3.929536477168763 0.5618441214979298" fill="#ff2103" stroke="none" /><path d="M 120.78858239683441 97.02765380044208 l 3.2785949095544114 -0.4687726624778375 a24.311937860232685,24.311937860232685 0 0,0 0.0556673925227265,0.41478673353262013 l -3.286178301134974 0.412267586880553" fill="#ff1702" stroke="none" /><path d="M 120.83666639777658 97.38593545837742 l 3.5543808800013723 -0.44591494860350095 a24.582242814426095,24.582242814426095 0 0,0 0.049058719939650504,0.42030515278755165 l -3.561529952944612 0.38466605749109656" fill="#ff1b02" stroke="none" /><line stroke="#e1ed5e" stroke-width="0.3" x1="184.98032266829074" x2="189.97916517819016" y1="98.17113171792111" y2="98.06355123074" /><path d="M 185.9800911702706 98.14961562048488 a86.0,86.0 0 0,1 -9.607161424134198,41.387399972396054" fill="none" id="id40" stroke="none" /><text fill="#e1ed5e" style="font-size:6.75px; font-family:Arial;" text-anchor="middle"><textPath startOffset="21.466115282336823" xlink:href="#id40">April</textPath></text><path d="M 120.9904718944345 100.63252640178507 l 3.2522275022878344 0.0980025494497817 a24.25370377052614,24.25370377052614 0 0,0 -0.01616667253552843,0.41718998314743955 l -3.2500586969011027 -0.15396977961122746" fill="#ff1602" stroke="none" /><path d="M 120.95626037817324 101.35467743843564 l 3.332605124162729 0.21542989500265963 a24.33956089228158,24.33956089228158 0 0,0 -0.030625474255856343,0.4178602641685785 l -3.328403091242535 -0.27276329566800844" fill="#ff1702" stroke="none" /><path d="M 120.23288151984713 105.62410040840565 l 1.6810995520526908 0.46729244512185253 a22.744837509104993,22.744837509104993 0 0,0 -0.1081001074399004,0.3763106554000721 l -1.672806807726691 -0.49616057602650665" fill="#ff0000" stroke="none" /><path d="M 120.13307415673323 105.97154293290107 l 3.5325995241529786 1.047781851842555 a24.68471249992404,24.68471249992404 0 0,0 -0.1243324624226274,0.40632568102527716 l -3.5140402892242184 -1.1084345054198892" fill="#ff1c02" stroke="none" /><path d="M 120.02730092923936 106.31721596034902 l 8.92165314107728 2.8141590229578646 a30.35496583511609,30.35496583511609 0 0,0 -0.16147070971045463,0.49695574501187406 l -8.87189018035058 -2.9673136679475336" fill="#ff6d0a" stroke="none" /><path d="M 119.9155931802556 106.66101706037122 l 3.946469655581189 1.319945706167827 a25.161355477444097,25.161355477444097 0 0,0 -0.14091457666877089,0.4095637204506639 l -3.9231642479691873 -1.3876821297077915" fill="#ff2303" stroke="none" /><path d="M 119.12269723197855 108.67885076344098 l 3.5770859507822723 1.6234631944558926 a24.928253637818827,24.928253637818827 0 0,0 -0.18070061721575423,0.3892130536011563 l -3.548610716726687 -1.6847963153358796" fill="#ff2003" stroke="none" /><path d="M 118.64920377521936 109.65438752849418 l 3.9000694505757525 2.01900211492846 a25.391686607603035,25.391686607603035 0 0,0 -0.2042791316330527,0.3864191324489724 l -3.864737810717807 -2.085836262463567" fill="#ff2703" stroke="none" /><line stroke="#e1ed5e" stroke-width="0.3" x1="174.80103733775053" x2="179.2010983576182" y1="140.37084112569926" y2="142.7455964860345" /><path d="M 175.68104954172406 140.8457921977663 a86.0,86.0 0 0,1 -30.038265399797805,32.042727171017184" fill="none" id="id41" stroke="none" /><text fill="#e1ed5e" style="font-size:6.75px; font-family:Arial;" text-anchor="middle"><textPath startOffset="22.206326154141568" xlink:href="#id41">May</textPath></text><path d="M 118.12598468904814 110.60418214915192 l 3.2345599772504965 1.8923034394840479 a24.747424522724092,24.747424522724092 0 0,0 -0.21827125232491304,0.36583517383553077 l -3.2015078492273563 -1.9477007072056827" fill="#ff1d03" stroke="none" /><path d="M 116.498646956653 112.99209946851258 l 13.527398321664178 10.652346523142066 a38.21810070251826,38.21810070251826 0 0,0 -0.4114489525772943,0.513345831508758 l -13.342031457032029 -10.883620188229076" fill="#ffd513" stroke="none" /><path d="M 115.56566222782051 114.09645910891815 l 2.8394635523233265 2.571453836705392 a24.83078687729812,24.83078687729812 0 0,0 -0.2896376398993745,0.3143444539821518 l -2.79477950442823 -2.6199495454888786" fill="#ff1f03" stroke="none" /><path d="M 114.81725581225074 114.88116024355365 l 2.7253612659704713 2.7371153089595137 a24.862563170304494,24.862563170304494 0 0,0 -0.3058687799575234,0.2993569780329782 l -2.6778425336371536 -2.7836223899150636" fill="#ff1f03" stroke="none" /><path d="M 114.55890576462653 115.13401014063108 l 19.42987179777257 20.19738856563682 a49.02595980424569,49.02595980424569 0 0,0 -0.6132077535796189,0.5798262055076825 l -19.079328209802146 -20.528849407890426" fill="#a7ff21" stroke="none" /><path d="M 114.29624159901734 115.38237550388516 l 29.825207161359874 32.09112918662042 a64.81076984818223,64.81076984818223 0 0,0 -0.8237154129466299,0.7524444996228103 l -29.268392198946383 -32.59976645282981" fill="#35ff64" stroke="none" /><path d="M 114.0293411484842 115.62618273729858 l 14.967868871361214 16.671535155953062 a43.404847310491604,43.404847310491604 0 0,0 -0.5602483706871751,0.49435404817032863 l -14.678678147767451 -16.92671234589568" fill="#e9ff1a" stroke="none" /><path d="M 113.20401910651253 116.32954008644616 l 23.798294010204227 29.431583890770607 a58.84939798881338,58.84939798881338 0 0,0 -0.7931848170870578,0.630153989947575 l -23.28815170039982 -29.836871794723308" fill="#3fff2d" stroke="none" /><line stroke="#e1ed5e" stroke-width="0.3" x1="143.8653032363475" x2="146.44561519142675" y1="172.8068346515853" y2="177.08958963109032" /><path d="M 144.38136562736335 173.6633856474863 a86.0,86.0 0 0,1 -40.68145358897372,12.25698825130547" fill="none" id="id42" stroke="none" /><text fill="#e1ed5e" style="font-size:6.75px; font-family:Arial;" text-anchor="middle"><textPath startOffset="21.466115282336833" xlink:href="#id42">June</textPath></text><path d="M 107.2578585660854 119.70592522655815 l 0.6905567767841668 1.8749414974259322 a22.99806763667608,22.99806763667608 0 0,0 -0.37265678857501017,0.1336214658895315 l -0.6581804275794219 -1.8865505043554238" fill="#ff0400" stroke="none" /><path d="M 106.57524785965236 119.94407469862006 l 1.0617246726471978 3.22042858803549 a24.390931962034045,24.390931962034045 0 0,0 -0.3998703451365463,0.1280258570234186 l -1.0061329824197112 -3.2382272917186152" fill="#ff1802" stroke="none" /><path d="M 104.13013068566511 120.58985236759428 l 0.5686349869965625 2.8348038656366787 a23.89127285206105,23.89127285206105 0 0,0 -0.403913123408834,0.07741091142263896 l -0.5197542490160241 -2.844171975407786" fill="#ff1101" stroke="none" /><path d="M 100.90346689309514 120.98055641714683 l 0.5678128097693186 13.1859050738778 a34.19812501851132,34.19812501851132 0 0,0 -0.5883374561940021,0.020263531574046742 l -0.3407550019006642 -13.19372540387794" fill="#ffa10e" stroke="none" /><line stroke="#e1ed5e" stroke-width="0.3" x1="102.19456741930631" x2="102.32365962044197" y1="184.97166512339345" y2="189.96999836594603" /><path d="M 102.22038585953345 185.97133177190398 a86.0,86.0 0 0,1 -42.740103519485714,-10.115201625700543" fill="none" id="id43" stroke="none" /><text fill="#e1ed5e" style="font-size:6.75px; font-family:Arial;" text-anchor="middle"><textPath startOffset="22.20632615414155" xlink:href="#id43">July</textPath></text><path d="M 100.54218724476979 120.99299961872073 l 0.48184056331106745 18.65643070627424 a39.66265192909261,39.66265192909261 0 0,0 -0.6826514863300193,0.011752464418931463 l -0.16062938708838023 -18.66196064797233" fill="#ffe715" stroke="none" /><line stroke="#e1ed5e" stroke-width="0.3" x1="58.666819895761336" x2="56.23545636021788" y1="174.27360380694188" y2="178.64263932499728" /><path d="M 58.180547188652646 175.14741091055294 a86.0,86.0 0 0,1 -31.652253787137756,-30.449443065178592" fill="none" id="id44" stroke="none" /><text fill="#e1ed5e" style="font-size:6.75px; font-family:Arial;" text-anchor="middle"><textPath startOffset="22.20632615414155" xlink:href="#id44">August</textPath></text><path d="M 86.24171649860922 115.8653595955263 l -4.5458476564763055 5.242042565061736 a27.938569101033018,27.938569101033018 0 0,0 -0.36061727636584384,-0.3182028181410898 l 4.635407285748737 -5.163016605148357" fill="#ff4b07" stroke="none" /><line stroke="#e1ed5e" stroke-width="0.3" x1="26.63291911575756" x2="22.317208475507996" y1="142.92168965132927" y2="145.44649492493687" /><path d="M 25.769776987707644 143.4266507060508 a86.0,86.0 0 0,1 -11.730757126820373,-40.83630448921669" fill="none" id="id45" stroke="none" /><text fill="#e1ed5e" style="font-size:6.75px; font-family:Arial;" text-anchor="middle"><textPath startOffset="21.46611528233685" xlink:href="#id45">September</textPath></text><path d="M 80.58989483394504 108.01547362559985 l -3.264738634074181 1.348185710073467 a24.53215558231271,24.53215558231271 0 0,0 -0.15782048027626086,-0.39169748928229065 l 3.2874617286078296 -1.2917888529483712" fill="#ff1a02" stroke="none" /><path d="M 80.45479744820244 107.68017299344265 l -3.8928771547736916 1.5296833026748589 a25.1826335661448,25.1826335661448 0 0,0 -0.15505993214300157,-0.40481255319079795 l 3.918631366510202 -1.4624471826509031" fill="#ff2403" stroke="none" /><path d="M 80.32549172779594 107.34259656027581 l -3.13083884106709 1.1684402063392365 a24.341766653212698,24.341766653212698 0 0,0 -0.14312464885446777,-0.39381756405676427 l 3.150487750926782 -1.114374845276355" fill="#ff1702" stroke="none" /><path d="M 79.97269907076064 106.31721596034903 l -60.081902787718064 18.951647881047084 a84.0,84.0 0 0,0 -0.42309290997547855,-1.3826921097918088 l 60.399222470199675 -17.914628798703227" fill="#4dd2ff" stroke="none" /><line stroke="#e1ed5e" stroke-width="0.3" x1="15.007084014347285" x2="10.007500721073583" y1="101.09737516637583" y2="101.16192664675087" /><path d="M 14.007167355692545 101.11028546245083 a86.0,86.0 0 0,1 10.666146001902534,-42.60595125391555" fill="none" id="id46" stroke="none" /><text fill="#e1ed5e" style="font-size:6.75px; font-family:Arial;" text-anchor="middle"><textPath startOffset="22.20632615414155" xlink:href="#id46">October</textPath></text><path d="M 79.08570108090925 98.10471618934814 l -6.557872131981602 -0.5942837927368612 a27.584744499654533,27.584744499654533 0 0,0 0.04692411242138061,-0.472519408371053 l 6.546670893877994 0.7070787318123444" fill="#ff4606" stroke="none" /><line stroke="#e1ed5e" stroke-width="0.3" x1="26.266209847984243" x2="21.928928074336255" y1="57.711370442889674" y2="55.22380399835377" /><path d="M 25.398753493254645 57.213857153982495 a86.0,86.0 0 0,1 29.58750427330803,-30.492523968695096" fill="none" id="id47" stroke="none" /><text fill="#e1ed5e" style="font-size:6.75px; font-family:Arial;" text-anchor="middle"><textPath startOffset="21.46611528233685" xlink:href="#id47">November</textPath></text><line stroke="#e1ed5e" stroke-width="0.3" x1="56.762969772571076" x2="54.21961505331055" y1="26.818313649435495" y2="22.513508569990535" /><path d="M 56.25429882871897 25.957352633546506 a86.0,86.0 0 0,1 42.265352541879196,-11.944610805530505" fill="none" id="id48" stroke="none" /><text fill="#e1ed5e" style="font-size:6.75px; font-family:Arial;" text-anchor="middle"><textPath startOffset="22.20632615414155" xlink:href="#id48">December</textPath></text></svg>