<?xml version="1.0" encoding="utf-8" ?>
<svg baseProfile="full" height="200mm" version="1.1" viewBox="0,0,200,200" width="200mm" xmlns="http://www.w3.org/2000/svg" xmlns:ev="http://www.w3.org/2001/xml-events" xmlns:xlink="http://www.w3.org/1999/xlink"><defs /><rect fill="#1a1a1a" height="200" width="200" x="0" y="0" /><text alignment-baseline="middle" fill="#e1ed5e" style="dominant-baseline: central; font-size:9.0px; font-family:Arial;" text-anchor="middle" x="100.0" y="100.0">2024</text><line stroke="#e1ed5e" stroke-width="0.3" x1="100.0" x2="100.0" y1="15.0" y2="10.0" /><path d="M 100.0 14.0 a86.0,86.0 0 0,1 42.35913384403234,11.155469271406648" fill="none" id="id25" stroke="none" /><text fill="#e1ed5e" style="font-size:6.75px; font-family:Arial;" text-anchor="middle"><textPath startOffset="22.145653131862478" xlink:href="#id25">January</textPath></text><path d="M 100.72087961077811 79.0123766808444 l 0.07239341869602336 -2.107655397186308 a23.108898309629716,23.108898309629716 0 0,0 0.39634427962016683,0.017020728731363288 l -0.10856345891702646 2.106102100029114" fill="#ff1101" stroke="none" /><path d="M 101.08105385017728 79.02784411241856 l 0.09562339007870929 -1.8550682215329408 a22.857531140861852,22.857531140861852 0 0,0 0.3916862703498694,0.02356287338143697 l -0.1274540125610411 1.8531533703268122" fill="#ff0d01" stroke="none" /><path d="M 101.44090949804482 79.04949213459386 l 0.1279766551679004 -1.8607524791262613 a22.865148201308006,22.865148201308006 0 0,0 0.39135443821949517,0.03029330861663911 l -0.15990008816262907 1.8582814035145685" fill="#ff0d01" stroke="none" /><path d="M 102.15924093988457 79.11130261209362 l 1.1902913782197309 -11.514989338982781 a32.576345409582046,32.576345409582046 0 0,0 0.5557588103478542,0.06227393390142392 l -1.3877860901683816 11.492859644574386" fill="#ff940d" stroke="none" /><path d="M 102.87502721639298 79.19773525538626 l 0.2553638854667301 -1.8476858658600042 a22.86524898415721,22.86524898415721 0 0,0 0.38835525079420613,0.05707484811920667 l -0.28704424186861827 1.843029944441915" fill="#ff0d01" stroke="none" /><path d="M 103.23170211078529 79.25015418208739 l 0.14843545453550322 -0.9530620985283302 a21.964551941480803,21.964551941480803 0 0,0 0.372061202902099,0.06122252935164798 l -0.16477416049067273 0.9503735706810139" fill="#ff0000" stroke="none" /><path d="M 103.58742460773223 79.30868818359171 l 0.2848875599900659 -1.6431557400997143 a22.667669544022356,22.667669544022356 0 0,0 0.3828302408860645,0.06976442263573934 l -0.31305253442718406 1.638023143532609" fill="#ff0a01" stroke="none" /><path d="M 103.94208987418118 79.37332000966035 l 0.3897230386045918 -2.039195619260063 a23.076102796209433,23.076102796209433 0 0,0 0.3884515923194736,0.07770119768523105 l -0.42467111645502237 2.0322050249119727" fill="#ff1001" stroke="none" /><path d="M 104.64783097203109 79.52079915486377 l 0.9312919538974807 -4.103444183769752 a25.20779738969309,25.20779738969309 0 0,0 0.4211716942420459,0.09939537305005469 l -1.0015958018794116 4.08685266707347" fill="#ff2f04" stroke="none" /><path d="M 105.3480935250658 79.69241777938227 l 0.7156929689692709 -2.717602776380515 a23.810263559886,23.810263559886 0 0,0 0.3943644054654897,0.10748577237023495 l -0.7622387753694534 2.7049165098661376" fill="#ff1b02" stroke="none" /><path d="M 105.69591212413111 79.78721728523813 l 0.6238745975295672 -2.2139108550675366 a23.30013494987328,23.30013494987328 0 0,0 0.3840527820502896,0.11179216760962211 l -0.6617873919614613 2.2028749931553984" fill="#ff1402" stroke="none" /><path d="M 106.04205211174951 79.88797359093562 l 0.7525945799463702 -2.505142588519872 a23.615748074754276,23.615748074754276 0 0,0 0.38725257434692384,0.11997183743397144 l -0.7954877871649243 2.491854163279254" fill="#ff1802" stroke="none" /><path d="M 106.38641147887787 79.99465700312896 l 0.5894234666858825 -1.846360614322288 a22.93816086566636,22.93816086566636 0 0,0 0.3740856446032908,0.12296938166613935 l -0.6210318489369157 1.835970311254127" fill="#ff0e01" stroke="none" /><path d="M 107.06938296918511 80.22567764915836 l 0.5885254262525776 -1.6462103610898906 a22.748247902989014,22.748247902989014 0 0,0 0.366583517677752,0.13461454540207465 l -0.6166980955844542 1.635864966679094" fill="#ff0c01" stroke="none" /><path d="M 107.40779381753099 80.34994680014964 l 0.6628065995826028 -1.7581732515539978 a22.878958693247462,22.878958693247462 0 0,0 0.3663114532349844,0.14169713937756986 l -0.692890315311113 1.7465362240383897" fill="#ff0d01" stroke="none" /><path d="M 107.74402155503746 80.48000691201159 l 0.48315442528105945 -1.217864771538806 a22.310203343158587,22.310203343158587 0 0,0 0.35478061316104514,0.14428618677658014 l -0.5039894996325442 1.2093913281829323" fill="#ff0500" stroke="none" /><path d="M 108.07796709384702 80.6158196554323 l 0.865632091705205 -2.077201897794314 a23.250352559575994,23.250352559575994 0 0,0 0.36709530469889595,0.1566911567398296 l -0.901162471574531 2.0620360913950826" fill="#ff1302" stroke="none" /><path d="M 108.4095320186766 80.7573450057729 l 0.9307393133858332 -2.1297136936123917 a23.324210852363027,23.324210852363027 0 0,0 0.36550881811818553,0.16348744525978795 l -0.9671615343596504 2.1134224974427513" fill="#ff1402" stroke="none" /><path d="M 108.73861861582097 80.90454125486305 l 0.910361484605451 -1.9893041379529153 a23.1877131863957,23.1877131863957 0 0,0 0.36052619308898676,0.16874446240031532 l -0.9443763915659428 1.9733834439820663" fill="#ff1202" stroke="none" /><path d="M 109.71004243097381 81.37971332152246 l 0.5671508959233407 -1.0875866245817092 a22.226582571503315,22.226582571503315 0 0,0 0.3367974838617089,0.17932568996263876 l -0.5857371955716091 1.0776904668964973" fill="#ff0400" stroke="none" /><path d="M 110.02825361518725 81.54914285379988 l 0.8839900565953444 -1.6264421382603311 a22.85114895383064,22.85114895383064 0 0,0 0.34304559595265516,0.1902816093599657 l -0.9117798407040998 1.6110276134672195" fill="#ff0d01" stroke="none" /><path d="M 110.34350942703115 81.72400993836675 l 0.6420748861642526 -1.1344848014249163 a22.30357812351503,22.30357812351503 0 0,0 0.3315878611345456,0.19144234088604214 l -0.6614552151591955 1.1232955632627024" fill="#ff0500" stroke="none" /><line stroke="#e1ed5e" stroke-width="0.3" x1="143.13028292997686" x2="145.6673583964461" y1="26.7553504044142" y2="22.446841604673864" /><path d="M 143.63769802327073 25.89364864446614 a86.0,86.0 0 0,1 29.32050498858742,28.57503671076993" fill="none" id="id26" stroke="none" /><text fill="#e1ed5e" style="font-size:6.75px; font-family:Arial;" text-anchor="middle"><textPath startOffset="20.669276256404974" xlink:href="#id26">February</textPath></text><path d="M 110.65571695917076 81.90426304109057 l 0.9330361395525011 -1.5844993461436976 a22.83880249500615,22.83880249500615 0 0,0 0.33612979669813065,0.2018362851237341 l -0.9600986928080659 1.5682490604840424" fill="#ff0d01" stroke="none" /><path d="M 111.8722381534696 82.67804972795209 l 1.0400393651146125 -1.5174485156552104 a22.839655369533165,22.839655369533165 0 0,0 0.32150067824445605,0.22443244241559254 l -1.0659351345328294 1.499371257434491" fill="#ff0d01" stroke="none" /><path d="M 112.16784306229584 82.88440491214696 l 0.7609250965970825 -1.0703364416243386 a22.31325058572244,22.31325058572244 0 0,0 0.31028061387214934,0.22461923628481012 l -0.7791867208431997 1.0571164339664538" fill="#ff0500" stroke="none" /><path d="M 112.45986205192187 83.09580414077388 l 1.1105649919612477 -1.5066947017777883 a22.87175947325909,22.87175947325909 0 0,0 0.3140477848793392,0.2356673125241564 l -1.1362657657513533 1.487408361989617" fill="#ff0d01" stroke="none" /><path d="M 112.7482090630111 83.31218511350987 l 0.7613071495923791 -0.9965754971042401 a22.254093815250293,22.254093815250293 0 0,0 0.30158541861785504,0.23451464564034058 l -0.7783025128454601 0.9833597998431087" fill="#ff0400" stroke="none" /><path d="M 113.31354834802062 83.75963576809568 l 1.4180130717908492 -1.7297453818845159 a23.2366895533177,23.2366895533177 0 0,0 0.30631009797478875,0.25553477802671665 l -1.4474975039275306 1.705148419945929" fill="#ff1302" stroke="none" /><path d="M 113.59037401385872 83.9905735841838 l 1.2048458364195718 -1.4193053657604926 a22.86174144574753,22.86174144574753 0 0,0 0.2970072473693248,0.25654778636975717 l -1.2290325635517567 1.3984134469260154" fill="#ff0d01" stroke="none" /><path d="M 113.86319453409587 84.22622945171908 l 1.204294477735599 -1.3702660463750063 a22.82426813460978,22.82426813460978 0 0,0 0.2920799564252592,0.26117969808985236 l -1.2276394609842338 1.3493908184017671" fill="#ff0d01" stroke="none" /><path d="M 114.13192950727249 84.46653392183569 l 1.2542392350284932 -1.3786286296709718 a22.863795309907534,22.863795309907534 0 0,0 0.2880514073225206,0.2666160822599139 l -1.2777204136649787 1.3568948012786828" fill="#ff0d01" stroke="none" /><path d="M 114.39649973595853 84.71141617570332 l 2.009078716850332 -2.1335719748222277 a23.930618818995026,23.930618818995026 0 0,0 0.29665707185017887,0.28419076417801725 l -2.045408274565823 2.0987690803386303" fill="#ff1d02" stroke="none" /><path d="M 114.91283532996326 85.21462403516908 l 1.5915294753368494 -1.5779267410460571 a23.241164623800362,23.241164623800362 0 0,0 0.27846589409404754,0.2857305388468194 l -1.6183821705817087 1.5503735101314957" fill="#ff1302" stroke="none" /><path d="M 115.16444852881244 85.47280134310134 l 45.49334558643732 -43.581595970695986 a84.0,84.0 0 0,0 0.9885766650549601,1.0498341602220207 l -46.23477808522854 42.794220350529464" fill="#4dd2ff" stroke="none" /><path d="M 115.41159269507618 85.73525988315684 l 5.040996615356652 -4.665871209464451 a27.86891556356216,27.86891556356216 0 0,0 0.3219553805125602,0.35388536146466765 l -5.12034969671109 4.578648272442112" fill="#ff5407" stroke="none" /><path d="M 115.6541949942343 86.00192230759917 l 1.669372541315443 -1.4927632203061865 a23.23945232447509,23.23945232447509 0 0,0 0.26336821585175685,0.2996646838027404 l -1.6947518211257901 1.4638862586921482" fill="#ff1302" stroke="none" /><path d="M 115.8921839302757 86.27271002978787 l 1.991932926420727 -1.7205842193972234 a23.632148711489872,23.632148711489872 0 0,0 0.2625480366856658,0.3092809270480683 l -2.021175526613505 1.686136509899603" fill="#ff1802" stroke="none" /><path d="M 116.1254893667686 86.54754324733833 l 3.1181775741923126 -2.6012946342196748 a25.060759184957405,25.060759184957405 0 0,0 0.2727483916198473,0.33270868950807636 l -3.1623727850507874 2.5473836630131035" fill="#ff2d04" stroke="none" /><path d="M 116.35404254752997 86.82634096563983 l 1.5996424172131283 -1.288558698561552 a23.054078718692665,23.054078718692665 0 0,0 0.24561768190493222,0.3103299173902603 l -1.6215265297596198 1.2609088372566135" fill="#ff1001" stroke="none" /><path d="M 116.57777611688842 87.10902102172516 l 1.7623447579554987 -1.3704099432331678 a23.232461076571226,23.232461076571226 0 0,0 0.24211324608574508,0.3169340110658515 l -1.7856099813955506 1.3399550189264342" fill="#ff1302" stroke="none" /><path d="M 116.7966241395341 87.39550010848427 l 1.602929186877257 -1.2028679450263746 a23.004064188421857,23.004064188421857 0 0,0 0.23431061291749875,0.3178873470787543 l -1.6233418193785814 1.1751742886787453" fill="#ff0f01" stroke="none" /><path d="M 117.01052211995028 87.68569379921539 l 15.86537030395805 -11.48530459759607 a40.58627572003609,40.58627572003609 0 0,0 0.40370762880074235,0.5678653375997013 l -16.06019303128875 11.211262033286864" fill="#fffa17" stroke="none" /><path d="M 117.21940702142032 87.97951657250589 l 1.8325347500195124 -1.2792515773344946 a23.234875434591796,23.234875434591796 0 0,0 0.22550028939939493,0.3290116613915146 l -1.8542247762342323 1.2476051808729312" fill="#ff1302" stroke="none" /><path d="M 117.42321728460499 88.27688183743584 l 2.001310809195595 -1.3465712280904245 a23.41215650970746,23.41215650970746 0 0,0 0.22149634907818788,0.335373703314057 l -2.0241315971945073 1.3120176464373088" fill="#ff1502" stroke="none" /><path d="M 117.62189284568427 88.57770195909679 l 2.0659384260883935 -1.3391163278305487 a23.4619776846777,23.4619776846777 0 0,0 0.21616560006920474,0.33984822746062426 l -2.088621717783488 1.3034544256912524" fill="#ff1602" stroke="none" /><path d="M 117.81537515405839 88.88188828441811 l 2.4852528973262573 -1.5509816164411463 a23.929509504713536,23.929509504713536 0 0,0 0.214490489697906,0.35035409533543344 l -2.511511351479566 1.508090404981158" fill="#ff1d02" stroke="none" /><line stroke="#e1ed5e" stroke-width="0.3" x1="172.87174338648825" x2="177.1583165268699" y1="56.24261187166439" y2="53.66864786411523" /><path d="M 173.72905801456457 55.72781907015455 a86.0,86.0 0 0,1 12.242430191666344,42.057860355516425" fill="none" id="id27" stroke="none" /><text fill="#e1ed5e" style="font-size:6.75px; font-family:Arial;" text-anchor="middle"><textPath startOffset="22.145653131862474" xlink:href="#id27">March</textPath></text><path d="M 118.00360718960297 89.18935116829356 l 2.0969339106618823 -1.2591485635475264 a23.44593273226545,23.44593273226545 0 0,0 0.20423226129811226,0.3468310291212441 l -2.118239882089762 1.2229663661327257" fill="#ff1602" stroke="none" /><path d="M 118.53625476483649 90.13048839642627 l 1.6642623215062124 -0.8861259462540083 a22.88546765217805,22.88546765217805 0 0,0 0.1816582283501429,0.34835360539662824 l -1.6792286188313 0.8574260977528819" fill="#ff0e01" stroke="none" /><path d="M 118.70294669586156 90.45014215332178 l 2.7811418881636203 -1.4200708645168587 a24.122715398871303,24.122715398871303 0 0,0 0.185147683883745,0.37041939328400686 l -2.805109485259102 1.3721196150691013" fill="#ff1f03" stroke="none" /><path d="M 118.8641267826498 90.77261029715802 l 2.304648200054362 -1.127318922040648 a23.565589849918474,23.565589849918474 0 0,0 0.17463307519317522,0.3649159619359515 l -2.323660533207449 1.0875904580395932" fill="#ff1702" stroke="none" /><path d="M 119.0197475246899 91.09779779509293 l 1.9962991253000677 -0.9343687896924424 a23.20414501175062,23.20414501175062 0 0,0 0.1657610586437504,0.3622178282447633 l -2.0120446487988692 0.8999619792329949" fill="#ff1202" stroke="none" /><path d="M 119.16976305983485 91.42560881287824 l 1.73715762806493 -0.7770085112804519 a22.9030130980491,22.9030130980491 0 0,0 0.1574485281466586,0.36027304489076917 l -1.7502400382285588 0.7470733966138333" fill="#ff0e01" stroke="none" /><path d="M 119.31412917781788 91.75594674310238 l 2.474108075251613 -1.05604961776481 a23.690065345527213,23.690065345527213 0 0,0 0.1564380859365006,0.375394456962059 l -2.4918720057245967 1.0134226513614732" fill="#ff1902" stroke="none" /><path d="M 119.4528033332814 92.08871423366111 l 17.95481746505989 -7.302067954674593 a40.38287044321107,40.38287044321107 0 0,0 0.25564534787580045,0.6443932765484004 l -18.077521487901816 6.9927736609126265" fill="#fff717" stroke="none" /><path d="M 119.58574465831526 92.42381321644754 l 2.0508202066387224 -0.7933013125636805 a23.198906658426626,23.198906658426626 0 0,0 0.14048519504784449,0.3726536705096314 l -2.0641360855010076 0.7579793618598915" fill="#ff1202" stroke="none" /><path d="M 119.83427380445688 93.10060997987247 l 2.7949777547322054 -0.9722383495152046 a23.959247887169294,23.959247887169294 0 0,0 0.13179249614902694,0.3896210968727045 l -2.8112556724535973 0.9241155781683384" fill="#ff1d02" stroke="none" /><path d="M 119.94978838288452 93.4421083053983 l 3.5706526811467447 -1.1737444584669723 a24.758621638734386,24.758621638734386 0 0,0 0.12925802477742834,0.40489892161237545 l -3.5902754217014303 1.1122765031632098" fill="#ff2803" stroke="none" /><path d="M 120.16314734710363 94.1308016681162 l 2.8808773056391535 -0.8385813973158337 a24.000445435276383,24.000445435276383 0 0,0 0.1117523688353828,0.3965697328018573 l -2.894848166549118 0.7890037406109632" fill="#ff1e03" stroke="none" /><path d="M 120.26092885502905 94.47779374421319 l 17.70382559180457 -4.825256390461851 a39.34961960964661,39.34961960964661 0 0,0 0.17203376221419153,0.653240216258916 l -17.78404883482349 4.520635669830137" fill="#ffea16" stroke="none" /><path d="M 120.35273937422433 94.82641323984039 l 3.1072176306985972 -0.7898425710435572 a24.206033794512607,24.206033794512607 0 0,0 0.09891331586368439,0.4036000829756287 l -3.120318473078573 0.7363866634598335" fill="#ff2103" stroke="none" /><path d="M 120.43855184770803 95.1765574152323 l 2.408145523339917 -0.568315786467916 a23.474297414364475,23.474297414364475 0 0,0 0.08919018886815432,0.3929884288473543 l -2.4175465737657373 0.5268930236815355" fill="#ff1602" stroke="none" /><path d="M 120.51834098615036 95.52812308129327 l 2.6802805084265335 -0.5841546618892087 a23.743198912375494,23.743198912375494 0 0,0 0.08337513524528443,0.39898020428740905 l -2.6899133544961846 0.5380580063163952" fill="#ff1a02" stroke="none" /><path d="M 120.65975698304385 96.23510406497455 l 3.2487530730982734 -0.5920310315773657 a24.30225639106294,24.30225639106294 0 0,0 0.07126947119972028,0.4110633707550291 l -3.258437361790228 0.536174627901744" fill="#ff2203" stroke="none" /><path d="M 120.77682067341334 96.94652285012252 l 7.728091997079995 -1.135763392107002 a28.811105196973234,28.811105196973234 0 0,0 0.06771362026548773,0.489942024738877 l -7.746450133900695 1.0029330591680394" fill="#ff6109" stroke="none" /><path d="M 120.82617615685814 97.30363454192243 l 3.1394609139995953 -0.40646606951442454 a24.165664147725984,24.165664147725984 0 0,0 0.04973283755306477,0.41185923808649105 l -3.145975837812324 0.3525131545045205" fill="#ff2003" stroke="none" /><path d="M 120.86939407059847 97.66154086499901 l 3.336535045788398 -0.37386571122671114 a24.357415923266768,24.357415923266768 0 0,0 0.04299386350497476,0.4159266285217705 l -3.342461301775039 0.3165345604220093" fill="#ff2303" stroke="none" /><path d="M 120.9064616781168 98.02013634271609 l 2.023773377731784 -0.1916534429804476 a23.032828012061564,23.032828012061564 0 0,0 0.033898155851372354,0.3939479543499422 l -2.026765156280897 0.1568844412548434" fill="#ff1001" stroke="none" /><path d="M 120.93736805541906 98.37931529534042 l 1.4679109656310574 -0.11362559245762414 a22.472302067607476,22.472302067607476 0 0,0 0.026470273174033537,0.38487196252405625 l -1.469645199970157 0.08841020577923372" fill="#ff0801" stroke="none" /><path d="M 120.96210409425399 98.7389718711861 l 44.51205251666702 -2.6777345462255115 a65.59252270893151,65.59252270893151 0 0,0 0.057966331667211005,1.1245313485139372 l -44.55146043779081 1.913231404334844" fill="#36ff70" stroke="none" /><path d="M 120.99303781780057 99.45929381324524 l 1.7519431774057217 -0.045123841679684806 a22.752524196108684,22.752524196108684 0 0,0 0.006705026299553563,0.3905341674274197 l -1.7524596353039412 0.015042758283198714" fill="#ff0c01" stroke="none" /><line stroke="#e1ed5e" stroke-width="0.3" x1="184.99686870605535" x2="189.99668451229388" y1="99.2704041080226" y2="99.22748670261217" /><path d="M 185.99683186730306 99.26182062694052 a86.0,86.0 0 0,1 -10.086455211305974,41.156179273409016" fill="none" id="id28" stroke="none" /><text fill="#e1ed5e" style="font-size:6.75px; font-family:Arial;" text-anchor="middle"><textPath startOffset="21.40746469413373" xlink:href="#id28">April</textPath></text><path d="M 120.99922638620191 100.18025310272382 l 2.0314311990362084 0.017437393638313297 a23.03150603718389,23.03150603718389 0 0,0 -0.0067872404998473865,0.3953227324276139 l -2.030832526937693 -0.05230704203499823" fill="#ff1001" stroke="none" /><path d="M 120.99303781780057 100.54070618675476 l 2.6835836400549744 0.06911959524129474 a23.68447363027038,23.68447363027038 0 0,0 -0.01395727497569275,0.40635083219442536 l -2.6820016780824356 -0.11517669199983079" fill="#ff1902" stroke="none" /><path d="M 120.96210409425399 101.26102812881392 l 3.328891253894314 0.20025783146807435 a24.33490932100385,24.33490932100385 0 0,0 -0.028664250571854597,0.416771912376514 l -3.324963042157393 -0.2573731679989319" fill="#ff2203" stroke="none" /><path d="M 120.93736805541906 101.62068470465957 l 3.687569327363935 0.2854411877563419 a24.698600304950922,24.698600304950922 0 0,0 -0.0363497266601194,0.42243892327712107 l -3.682125978006075 -0.3487011584091203" fill="#ff2803" stroke="none" /><path d="M 120.86939407059847 102.33845913500097 l 3.724308083507834 0.4173164889203293 a24.747615742416315,24.747615742416315 0 0,0 -0.05093049154451134,0.42177753120383776 l -3.716595505703659 -0.48118769704757564" fill="#ff2803" stroke="none" /><path d="M 120.82617615685814 102.69636545807757 l 2.225996677766634 0.2881998359429449 a23.244575762781384,23.244575762781384 0 0,0 -0.05463082258291042,0.39528141789610277 l -2.2207213386285134 -0.32636956203913275" fill="#ff1302" stroke="none" /><path d="M 120.7213421655516 103.40968896794604 l 3.1398245820460158 0.5166569401322891 a24.182048522541304,24.182048522541304 0 0,0 -0.07091694627011198,0.4090301006409082 l -3.1304928182836695 -0.5704800736937854" fill="#ff2003" stroke="none" /><path d="M 120.65975698304385 103.76489593502545 l 1.8125962149766883 0.3303154111255582 a22.842447640877445,22.842447640877445 0 0,0 -0.07361110120042007,0.3851643865712152 l -1.806658821494109 -0.3613823627300879" fill="#ff0d01" stroke="none" /><path d="M 120.592083275326 104.11899336999214 l 5.073829858998279 1.0149080726923765 a26.174339362090453,26.174339362090453 0 0,0 -0.09191217629621398,0.4398330361597372 l -5.0556599718776996 -1.101857560137523" fill="#ff3c05" stroke="none" /><path d="M 120.51834098615036 104.47187691870673 l 18.581376717652606 4.049724571667486 a40.017566348765286,40.017566348765286 0 0,0 -0.1520460543584284,0.6699429698830118 l -18.509119801736514 -4.368101875489515" fill="#fff316" stroke="none" /><path d="M 120.35273937422433 105.17358676015961 l 4.75543898783116 1.2088139947071739 a25.906672114660257,25.906672114660257 0 0,0 -0.11326214368897973,0.430074807904382 l -4.73398736333745 -1.2902693069843592" fill="#ff3905" stroke="none" /><path d="M 120.26092885502905 105.52220625578681 l 1.9207783663301627 0.5235166850652846 a22.990843854274793,22.990843854274793 0 0,0 -0.10705139907375576,0.3798876495341223 l -1.9115084751818272 -0.5564122585024155" fill="#ff0f01" stroke="none" /><path d="M 120.05942366710727 106.21446072829308 l 2.0395958002188297 0.6318719925555687 a23.135231426156526,23.135231426156526 0 0,0 -0.12078274633169793,0.37835023259325745 l -2.028448338109877 -0.6667912588402097" fill="#ff1101" stroke="none" /><path d="M 119.94978838288452 106.5578916946017 l 1.9414345533614592 0.63818809948003 a23.043636996950227,23.043636996950227 0 0,0 -0.1267560006258171,0.3747315927849423 l -1.930193131163277 -0.6714213667391328" fill="#ff1001" stroke="none" /><path d="M 119.83427380445688 106.89939002012753 l 20.984824512687332 7.2996112811767775 a43.218172397489546,43.218172397489546 0 0,0 -0.24975952634147036,0.6986218465738402 l -20.856424816301917 -7.658768084131538" fill="#e5ff1a" stroke="none" /><path d="M 119.71291397450082 107.23885506374661 l 1.0424693304774917 0.38280917785614255 a22.11053373277766,22.11053373277766 0 0,0 -0.13389435501405136,0.35517068428109294 l -1.0357442916489996 -0.4006481423313944" fill="#ff0200" stroke="none" /><path d="M 119.58574465831526 107.57618678355244 l 1.9018198381289768 0.7356647691316327 a23.039147211272994,23.039147211272994 0 0,0 -0.14585022656748337,0.36763784736973953 l -1.8889109365953691 -0.7682036337149364" fill="#ff1001" stroke="none" /><path d="M 119.4528033332814 107.91128576633889 l 1.8654271105235265 0.7586529660934997 a23.013795577420563,23.013795577420563 0 0,0 -0.1519723174147029,0.36467823821569806 l -1.852128948572338 -0.7905637137504756" fill="#ff0f01" stroke="none" /><path d="M 119.31412917781788 108.2440532568976 l 1.9736104602552595 0.8424169473507069 a23.14588083593024,23.14588083593024 0 0,0 -0.1591181411229123,0.3640934461217208 l -1.9588584371153814 -0.8761724632482724" fill="#ff1101" stroke="none" /><path d="M 119.16976305983485 108.57439118712176 l 1.8710430410284928 0.8368937535453518 a23.049681247439313,23.049681247439313 0 0,0 -0.16465763177404702,0.3598066413976229 l -1.8564009443993899 -0.8688893771576636" fill="#ff1001" stroke="none" /><path d="M 118.8641267826498 109.22738970284198 l 6.835068881651435 3.343374699685236 a28.608963201344526,28.608963201344526 0 0,0 -0.21958072246262222,0.43930853621987004 l -6.776668245977081 -3.4602150920688515" fill="#ff5e08" stroke="none" /><path d="M 118.70294669586154 109.54985784667822 l 1.9263019057400532 0.9835834785153603 a23.162885917302653,23.162885917302653 0 0,0 -0.1838602943651492,0.3525763573336951 l -1.9091335423999547 -1.0165060789535583" fill="#ff1201" stroke="none" /><path d="M 118.5362547648365 109.86951160357373 l 1.881958340228832 1.0020368144467848 a23.132098724699098,23.132098724699098 0 0,0 -0.18963325564828748,0.34890383155413013 l -1.8644797349652056 -1.0341954794755184" fill="#ff1101" stroke="none" /><line stroke="#e1ed5e" stroke-width="0.3" x1="174.33088141563837" x2="178.70328620479359" y1="141.23008692659167" y2="143.65538615756765" /><path d="M 175.20536237346943 141.71514677278685 a86.0,86.0 0 0,1 -30.301960400862466,31.631185727798858" fill="none" id="id29" stroke="none" /><text fill="#e1ed5e" style="font-size:6.75px; font-family:Arial;" text-anchor="middle"><textPath startOffset="22.145653131862474" xlink:href="#id29">May</textPath></text><path d="M 118.36410011445183 110.18625677009912 l 0.8354039572339328 0.46338449268445153 a21.95531406344853,21.95531406344853 0 0,0 -0.18564434467358878,0.3280157689406903 l -0.8273262475389657 -0.47765703172426455" fill="#ff0000" stroke="none" /><path d="M 118.00360718960297 110.81064883170644 l 1.736441203282706 1.042683050563107 a23.02544217305493,23.02544217305493 0 0,0 -0.20638694521659523,0.3371175644302245 l -1.718286293610706 -1.0723377311178885" fill="#ff1001" stroke="none" /><path d="M 117.81537515405839 111.11811171558189 l 1.6596747194991983 1.0357597739790292 a22.95635336377093,22.95635336377093 0 0,0 -0.2115070590797222,0.3325242272620661 l -1.6416499687935862 -1.0640976759197671" fill="#ff0f01" stroke="none" /><path d="M 117.62189284568427 111.42229804090321 l 24.384936544343088 15.806021257597976 a50.05951545135049,50.05951545135049 0 0,0 -0.47360011045969574,0.7170909299220433 l -24.110011994962665 -16.22229206585908" fill="#97ff23" stroke="none" /><line stroke="#e1ed5e" stroke-width="0.3" x1="143.1302829299769" x2="145.66735839644613" y1="173.24464959558577" y2="177.55315839532614" /><path d="M 143.63769802327073 174.10635135553383 a86.0,86.0 0 0,1 -40.68552437913181,11.842963189579606" fill="none" id="id30" stroke="none" /><text fill="#e1ed5e" style="font-size:6.75px; font-family:Arial;" text-anchor="middle"><textPath startOffset="21.407464694133747" xlink:href="#id30">June</textPath></text><line stroke="#e1ed5e" stroke-width="0.3" x1="101.45913802915013" x2="101.54496967792366" y1="184.9874750549273" y2="189.98673829345242" /><path d="M 101.47630435890484 185.9873277026323 a86.0,86.0 0 0,1 -42.54439059252881,-10.42667462771756" fill="none" id="id31" stroke="none" /><text fill="#e1ed5e" style="font-size:6.75px; font-family:Arial;" text-anchor="middle"><textPath startOffset="22.145653131862474" xlink:href="#id31">July</textPath></text><line stroke="#e1ed5e" stroke-width="0.3" x1="58.13341422392154" x2="55.67067388415222" y1="173.97424548756322" y2="178.32567169271397" /><path d="M 57.64086615596768 174.84453072859336 a86.0,86.0 0 0,1 -31.369924170532247,-30.572349798747897" fill="none" id="id32" stroke="none" /><text fill="#e1ed5e" style="font-size:6.75px; font-family:Arial;" text-anchor="middle"><textPath startOffset="22.145653131862474" xlink:href="#id32">August</textPath></text><line stroke="#e1ed5e" stroke-width="0.3" x1="26.387840678322732" x2="22.057713659400548" y1="142.50000000000003" y2="145.00000000000006" /><path d="M 25.521815274538298 143.00000000000003 a86.0,86.0 0 0,1 -11.493303480769221,-40.785679425670985" fill="none" id="id33" stroke="none" /><text fill="#e1ed5e" style="font-size:6.75px; font-family:Arial;" text-anchor="middle"><textPath startOffset="21.40746469413373" xlink:href="#id33">September</textPath></text><line stroke="#e1ed5e" stroke-width="0.3" x1="15.003131293944662" x2="10.003315487706104" y1="100.72959589197737" y2="100.7725132973878" /><path d="M 14.003168132696942 100.73817937305945 a86.0,86.0 0 0,1 10.791469493833604,-42.45332614584628" fill="none" id="id34" stroke="none" /><text fill="#e1ed5e" style="font-size:6.75px; font-family:Arial;" text-anchor="middle"><textPath startOffset="22.145653131862435" xlink:href="#id34">October</textPath></text><line stroke="#e1ed5e" stroke-width="0.3" x1="26.387840678322718" x2="22.05771365940052" y1="57.49999999999999" y2="54.99999999999999" /><path d="M 25.521815274538284 56.99999999999999 a86.0,86.0 0 0,1 29.574782752854787,-30.34633250058573" fill="none" id="id35" stroke="none" /><text fill="#e1ed5e" style="font-size:6.75px; font-family:Arial;" text-anchor="middle"><textPath startOffset="21.40746469413373" xlink:href="#id35">November</textPath></text><line stroke="#e1ed5e" stroke-width="0.3" x1="56.869717070023135" x2="54.33264160355391" y1="26.7553504044142" y2="22.446841604673864" /><path d="M 56.362301976729285 25.89364864446614 a86.0,86.0 0 0,1 42.16139366436587,-11.88097634709845" fill="none" id="id36" stroke="none" /><text fill="#e1ed5e" style="font-size:6.75px; font-family:Arial;" text-anchor="middle"><textPath startOffset="22.145653131862474" xlink:href="#id36">December</textPath></text></svg>