<?xml version="1.0" encoding="utf-8" ?>
<svg baseProfile="full" height="200mm" version="1.1" viewBox="0,0,200,200" width="200mm" xmlns="http://www.w3.org/2000/svg" xmlns:ev="http://www.w3.org/2001/xml-events" xmlns:xlink="http://www.w3.org/1999/xlink"><defs /><rect fill="#1a1a1a" height="200" width="200" x="0" y="0" /><text alignment-baseline="middle" fill="#e1ed5e" style="dominant-baseline: central; font-size:9.0px; font-family:Arial;" text-anchor="middle" x="100.0" y="100.0">2025</text><line stroke="#e1ed5e" stroke-width="0.3" x1="100.0" x2="100.0" y1="15.0" y2="10.0" /><path d="M 100.0 14.0 a86.0,86.0 0 0,1 42.46469731375804,11.215312516191453" fill="none" id="id37" stroke="none" /><text fill="#e1ed5e" style="font-size:6.75px; font-family:Arial;" text-anchor="middle"><textPath startOffset="22.20632615414155" xlink:href="#id37">January</textPath></text><path d="M 100.0 79.0 l 0.0 -7.8440641666293125 a28.844064166629312,28.844064166629312 0 0,0 0.4965031494819393,0.004273559359229595 l -0.13502267020941094 7.842901983878642" fill="#ff2403" stroke="none" /><path d="M 100.36148047927253 79.00311137660856 l 0.14683924305554438 -8.529277260518127 a29.53054115224191,29.53054115224191 0 0,0 0.5081690962239088,0.013124508510594102 l -0.29363497447432096 8.525485959865174" fill="#ff2e04" stroke="none" /><path d="M 101.80526077348638 79.07773832637324 l 0.5846168873507455 -6.775479573708128 a27.80065440665174,27.80065440665174 0 0,0 0.47641699863818276,0.04524153459376355 l -0.7011590130791724 6.764412494599187" fill="#ff1302" stroke="none" /><path d="M 102.16513564639614 79.11191278185805 l 0.9882228160633398 -9.53385272061251 a30.584932552319746,30.584932552319746 0 0,0 0.523196483033454,0.05878722098287475 l -1.1521860026065192 9.515429546159034" fill="#ff3e05" stroke="none" /><path d="M 102.52436894288641 79.15227682838746 l 0.7835207061336916 -6.470774736288864 a27.51803884498508,27.51803884498508 0 0,0 0.46975293458457684,0.06098741290857279 l -0.8947883692261146 6.456329000216154" fill="#ff0f01" stroke="none" /><path d="M 102.88285421437855 79.19881850522331 l 1.17306284184203 -8.464213332825286 a29.545114614473455,29.545114614473455 0 0,0 0.5031547363298269,0.0741519288704342 l -1.3185865586005125 8.442766919793883" fill="#ff2e04" stroke="none" /><path d="M 103.59715602781102 79.31037775812273 l 1.1608904426855855 -6.677048350884658 a27.777214863051803,27.777214863051803 0 0,0 0.47036729178448755,0.08595661606154918 l -1.2756528555729738 6.656076253472371" fill="#ff1302" stroke="none" /><path d="M 103.95276090670814 79.375362276772 l 2.4710090644199587 -12.893182250913561 a34.127834335933635,34.127834335933635 0 0,0 0.5760024219426706,0.11554066709225216 l -2.692577895829755 12.848737627744102" fill="#ff730a" stroke="none" /><path d="M 107.4271985657038 80.35727306442388 l 1.9663726405557893 -5.200469664347128 a26.559811695671094,26.559811695671094 0 0,0 0.42624303218475706,0.16537567440486586 l -2.0555988377402135 5.165851286051716" fill="#ff0000" stroke="none" /><path d="M 108.09893153111575 80.62456947434976 l 2.5288921043788823 -6.049979937107607 a27.557251902664287,27.557251902664287 0 0,0 0.43608201894852766,0.18670756232187408 l -2.6326578811177255 6.005552846822942" fill="#ff1001" stroke="none" /><path d="M 108.43124777332544 80.76684994638697 l 2.478971175086016 -5.6549666040956055 a27.174459116420152,27.174459116420152 0 0,0 0.42679154940898983,0.19148892754475658 l -2.575944842961786 5.611457346034317" fill="#ff0a01" stroke="none" /><path d="M 108.76106565485865 80.91482961587045 l 18.555561837876485 -40.42157349348599 a65.47710061153433,65.47710061153433 0 0,0 1.020263522905831,0.47902740424454054 l -19.24860357208191 40.09618110660144" fill="#34ff5e" stroke="none" /><line stroke="#e1ed5e" stroke-width="0.3" x1="143.23703022742887" x2="145.7803849466894" y1="26.81831364943548" y2="22.513508569990506" /><path d="M 143.74570117128098 25.957352633546492 a86.0,86.0 0 0,1 28.547481713284135,27.462654790039103" fill="none" id="id38" stroke="none" /><text fill="#e1ed5e" style="font-size:6.75px; font-family:Arial;" text-anchor="middle"><textPath startOffset="19.985693538727396" xlink:href="#id38">February</textPath></text><path d="M 111.2981086023043 82.29822771554956 l 33.894325806912875 -53.10531685335132 a84.0,84.0 0 0,0 1.2121318968628794,0.7884043033618879 l -34.803424729560035 52.514013625829904" fill="#4dd2ff" stroke="none" /><path d="M 111.90073688211348 82.69761687909136 l 3.267186461953978 -4.750135428768042 a26.765266166345896,26.765266166345896 0 0,0 0.37735056441001397,0.2643581852551309 l -3.3484681659476427 4.693192400748975" fill="#ff0300" stroke="none" /><path d="M 112.48926042617603 83.11751280151076 l 3.4682156026241056 -4.6881963795217025 a26.831612535075156,26.831612535075156 0 0,0 0.3689395866841779,0.27787764777075247 l -3.5484013430666663 4.627802142245102" fill="#ff0400" stroke="none" /><line stroke="#e1ed5e" stroke-width="0.3" x1="172.23445277983987" x2="176.4835382374775" y1="55.19839476539836" y2="52.563006222186495" /><path d="M 173.08426987136738 54.67131705675599 a86.0,86.0 0 0,1 12.851231095245387,41.99856678651699" fill="none" id="id39" stroke="none" /><text fill="#e1ed5e" style="font-size:6.75px; font-family:Arial;" text-anchor="middle"><textPath startOffset="22.20632615414155" xlink:href="#id39">March</textPath></text><line stroke="#e1ed5e" stroke-width="0.3" x1="184.98032266829074" x2="189.97916517819016" y1="98.17113171792111" y2="98.06355123074" /><path d="M 185.9800911702706 98.14961562048488 a86.0,86.0 0 0,1 -9.607161424134198,41.387399972396054" fill="none" id="id40" stroke="none" /><text fill="#e1ed5e" style="font-size:6.75px; font-family:Arial;" text-anchor="middle"><textPath startOffset="21.466115282336823" xlink:href="#id40">April</textPath></text><line stroke="#e1ed5e" stroke-width="0.3" x1="174.80103733775053" x2="179.2010983576182" y1="140.37084112569926" y2="142.7455964860345" /><path d="M 175.68104954172406 140.8457921977663 a86.0,86.0 0 0,1 -30.038265399797805,32.042727171017184" fill="none" id="id41" stroke="none" /><text fill="#e1ed5e" style="font-size:6.75px; font-family:Arial;" text-anchor="middle"><textPath startOffset="22.206326154141568" xlink:href="#id41">May</textPath></text><line stroke="#e1ed5e" stroke-width="0.3" x1="143.8653032363475" x2="146.44561519142675" y1="172.8068346515853" y2="177.08958963109032" /><path d="M 144.38136562736335 173.6633856474863 a86.0,86.0 0 0,1 -40.68145358897372,12.25698825130547" fill="none" id="id42" stroke="none" /><text fill="#e1ed5e" style="font-size:6.75px; font-family:Arial;" text-anchor="middle"><textPath startOffset="21.466115282336833" xlink:href="#id42">June</textPath></text><line stroke="#e1ed5e" stroke-width="0.3" x1="102.19456741930631" x2="102.32365962044197" y1="184.97166512339345" y2="189.96999836594603" /><path d="M 102.22038585953345 185.97133177190398 a86.0,86.0 0 0,1 -42.740103519485714,-10.115201625700543" fill="none" id="id43" stroke="none" /><text fill="#e1ed5e" style="font-size:6.75px; font-family:Arial;" text-anchor="middle"><textPath startOffset="22.20632615414155" xlink:href="#id43">July</textPath></text><line stroke="#e1ed5e" stroke-width="0.3" x1="58.666819895761336" x2="56.23545636021788" y1="174.27360380694188" y2="178.64263932499728" /><path d="M 58.180547188652646 175.14741091055294 a86.0,86.0 0 0,1 -31.652253787137756,-30.449443065178592" fill="none" id="id44" stroke="none" /><text fill="#e1ed5e" style="font-size:6.75px; font-family:Arial;" text-anchor="middle"><textPath startOffset="22.20632615414155" xlink:href="#id44">August</textPath></text><line stroke="#e1ed5e" stroke-width="0.3" x1="26.63291911575756" x2="22.317208475507996" y1="142.92168965132927" y2="145.44649492493687" /><path d="M 25.769776987707644 143.4266507060508 a86.0,86.0 0 0,1 -11.730757126820373,-40.83630448921669" fill="none" id="id45" stroke="none" /><text fill="#e1ed5e" style="font-size:6.75px; font-family:Arial;" text-anchor="middle"><textPath startOffset="21.46611528233685" xlink:href="#id45">September</textPath></text><line stroke="#e1ed5e" stroke-width="0.3" x1="15.007084014347285" x2="10.007500721073583" y1="101.09737516637583" y2="101.16192664675087" /><path d="M 14.007167355692545 101.11028546245083 a86.0,86.0 0 0,1 10.666146001902534,-42.60595125391555" fill="none" id="id46" stroke="none" /><text fill="#e1ed5e" style="font-size:6.75px; font-family:Arial;" text-anchor="middle"><textPath startOffset="22.20632615414155" xlink:href="#id46">October</textPath></text><line stroke="#e1ed5e" stroke-width="0.3" x1="26.266209847984243" x2="21.928928074336255" y1="57.711370442889674" y2="55.22380399835377" /><path d="M 25.398753493254645 57.213857153982495 a86.0,86.0 0 0,1 29.58750427330803,-30.492523968695096" fill="none" id="id47" stroke="none" /><text fill="#e1ed5e" style="font-size:6.75px; font-family:Arial;" text-anchor="middle"><textPath startOffset="21.46611528233685" xlink:href="#id47">November</textPath></text><line stroke="#e1ed5e" stroke-width="0.3" x1="56.762969772571076" x2="54.21961505331055" y1="26.818313649435495" y2="22.513508569990535" /><path d="M 56.25429882871897 25.957352633546506 a86.0,86.0 0 0,1 42.265352541879196,-11.944610805530505" fill="none" id="id48" stroke="none" /><text fill="#e1ed5e" style="font-size:6.75px; font-family:Arial;" text-anchor="middle"><textPath startOffset="22.20632615414155" xlink:href="#id48">December</textPath></text></svg>