<?xml version="1.0" encoding="utf-8" ?>
<svg baseProfile="full" height="200mm" version="1.1" viewBox="0,0,200,200" width="200mm" xmlns="http://www.w3.org/2000/svg" xmlns:ev="http://www.w3.org/2001/xml-events" xmlns:xlink="http://www.w3.org/1999/xlink"><defs /><rect fill="#1a1a1a" height="200" width="200" x="0" y="0" /><text alignment-baseline="middle" fill="#e1ed5e" style="dominant-baseline: central; font-size:9.0px; font-family:Arial;" text-anchor="middle" x="100.0" y="100.0">2025</text><line stroke="#e1ed5e" stroke-width="0.3" x1="100.0" x2="100.0" y1="15.0" y2="10.0" /><path d="M 100.0 14.0 a86.0,86.0 0 0,1 42.46469731375804,11.215312516191453" fill="none" id="id37" stroke="none" /><text fill="#e1ed5e" style="font-size:6.75px; font-family:Arial;" text-anchor="middle"><textPath startOffset="22.20632615414155" xlink:href="#id37">January</textPath></text><path d="M 100.0 79.0 l 0.0 -5.403185415790478 a26.403185415790478,26.403185415790478 0 0,0 0.4544874342105416,0.0039119168330539605 l -0.09300695493801321 5.402384875565983" fill="#ff2803" stroke="none" /><path d="M 100.36148047927253 79.00311137660856 l 0.10114650258965996 -5.875177143160506 a26.876047743041386,26.876047743041386 0 0,0 0.4624898955031545,0.01194474952274625 l -0.20226303328768228 5.872565601495401" fill="#ff2f04" stroke="none" /><path d="M 101.80526077348638 79.07773832637324 l 0.40269857212498333 -4.667117917442717 a25.684458965057367,25.684458965057367 0 0,0 0.44015197170504083,0.04179773331205166 l -0.4829756709202684 4.659494639615486" fill="#ff1d03" stroke="none" /><path d="M 102.16513564639614 79.11191278185805 l 0.6807123187518878 -6.567153567592972 a27.60233861909927,27.60233861909927 0 0,0 0.47217519490380233,0.053054384778169275 l -0.7936542171654154 6.554463229344202" fill="#ff3905" stroke="none" /><path d="M 102.52436894288641 79.15227682838746 l 0.5397084422590348 -4.457229688752712 a25.4897863758696,25.4897863758696 0 0,0 0.4351291899633628,0.05649225714861495 l -0.6163523607302437 4.44727910843996" fill="#ff1a02" stroke="none" /><path d="M 102.88285421437855 79.19881850522331 l 0.8080347004058509 -5.830359500451819 a26.886086304291567,26.886086304291567 0 0,0 0.45787135510890226,0.06747833559811404 l -0.9082750359434089 5.815586680692736" fill="#ff2f04" stroke="none" /><path d="M 103.59715602781102 79.31037775812273 l 0.7996500507905299 -4.599316056529749 a25.66831322766389,25.66831322766389 0 0,0 0.4346560674674393,0.07943061807800995 l -0.8787012393608701 4.584869957101" fill="#ff1d02" stroke="none" /><path d="M 103.95276090670814 79.375362276772 l 1.7020921623716412 -8.88114283889143 a30.042776999019686,30.042776999019686 0 0,0 0.5070556819686195,0.10171059967071139 l -1.854714253807386 8.85052828314351" fill="#ff5c08" stroke="none" /><path d="M 107.4271985657038 80.35727306442388 l 1.354486111760863 -3.5822121350309812 a24.829735814297937,24.829735814297937 0 0,0 0.39847804657281455,0.1546032913423643 l -1.4159473233333446 3.5583661397980704" fill="#ff1101" stroke="none" /><path d="M 108.09893153111575 80.62456947434976 l 1.741963431994627 -4.167375822991482 a25.51679729990847,25.51679729990847 0 0,0 0.40379267580627676,0.1728829507004172 l -1.8134398655912192 4.136773344328273" fill="#ff1b02" stroke="none" /><path d="M 108.43124777332544 80.76684994638697 l 1.7075766611360415 -3.895280868815402 a25.253120160613356,25.253120160613356 0 0,0 0.39661574254654003,0.17794992260923265 l -1.7743745221493616 3.865310615689638" fill="#ff1702" stroke="none" /><path d="M 108.76106565485865 80.91482961587045 l 12.78152995366114 -27.843379623596036 a51.63692701332854,51.63692701332854 0 0,0 0.8046060771568321,0.37777334181474437 l -13.25891424211757 27.61924129914129" fill="#90ff24" stroke="none" /><line stroke="#e1ed5e" stroke-width="0.3" x1="143.23703022742887" x2="145.7803849466894" y1="26.81831364943548" y2="22.513508569990506" /><path d="M 143.74570117128098 25.957352633546492 a86.0,86.0 0 0,1 28.547481713284135,27.462654790039103" fill="none" id="id38" stroke="none" /><text fill="#e1ed5e" style="font-size:6.75px; font-family:Arial;" text-anchor="middle"><textPath startOffset="19.985693538727396" xlink:href="#id38">February</textPath></text><path d="M 111.2981086023043 82.29822771554956 l 23.347249969865903 -36.580255773998935 a64.3959582639511,64.3959582639511 0 0,0 0.9292427981045935,0.6044053644572807 l -23.973459793754778 36.17295148538213" fill="#34ff5c" stroke="none" /><path d="M 111.90073688211348 82.69761687909136 l 2.250518846722237 -3.2720107748402136 a24.971257935481205,24.971257935481205 0 0,0 0.352057708577173,0.2466389233842931 l -2.3065076948830607 3.232787008691985" fill="#ff1302" stroke="none" /><path d="M 112.48926042617603 83.11751280151076 l 2.3889926911406296 -3.2293456256973077 a25.01695895529612,25.01695895529612 0 0,0 0.3439877676004962,0.2590844549423826 l -2.444226612499509 3.1877445812490777" fill="#ff1302" stroke="none" /><path d="M 113.06298171725822 83.55741782278167 l 39.188945151774654 -49.32774653165496 a84.0,84.0 0 0,0 1.1243864057420354,0.9091756109434814 l -40.032234956081176 48.64586482344735" fill="#4dd2ff" stroke="none" /><path d="M 114.68862486808459 84.99185889309783 l 4.171230566875429 -4.261965806827321 a26.963515488417983,26.963515488417983 0 0,0 0.328908922369838,0.32749648293027056 l -4.243975289412589 4.189533473246932" fill="#ff3004" stroke="none" /><path d="M 115.9244219780498 86.31012108654704 l 2.6516319222433093 -2.2795502397885454 a24.49678440095751,24.49678440095751 0 0,0 0.27213522878274926,0.32212227500903445 l -2.690477764513176 2.2335690151504046" fill="#ff0c01" stroke="none" /><path d="M 116.15771136456269 86.58626213691792 l 3.2615727154512815 -2.707678113522753 a25.23903023634255,25.23903023634255 0 0,0 0.27462649845397064,0.3366596149018735 l -3.307697705981661 2.6511343290127782" fill="#ff1702" stroke="none" /><path d="M 117.45458315368197 88.32363383020206 l 3.161093186203181 -2.1146355208818366 a24.80318202536184,24.80318202536184 0 0,0 0.23433498893626797,0.35690826494942846 l -3.197024810497374 2.059909191954734" fill="#ff1001" stroke="none" /><path d="M 117.65298651832404 88.62581576622439 l 3.2528633393412494 -2.095887110691259 a24.869607562168554,24.869607562168554 0 0,0 0.22876770824780274,0.3618555757640556 l -3.288458643835008 2.039583887212997" fill="#ff1101" stroke="none" /><line stroke="#e1ed5e" stroke-width="0.3" x1="172.23445277983987" x2="176.4835382374775" y1="55.19839476539836" y2="52.563006222186495" /><path d="M 173.08426987136738 54.67131705675599 a86.0,86.0 0 0,1 12.851231095245387,41.99856678651699" fill="none" id="id39" stroke="none" /><text fill="#e1ed5e" style="font-size:6.75px; font-family:Arial;" text-anchor="middle"><textPath startOffset="22.20632615414155" xlink:href="#id39">March</textPath></text><path d="M 118.03404312379186 89.2402003453031 l 38.779737323827966 -23.137474020768924 a66.15762096221249,66.15762096221249 0 0,0 0.5750682698433793,0.9829780842808474 l -39.17226526814167 22.46651652413418" fill="#36ff70" stroke="none" /><path d="M 118.21658344932153 89.55222093294921 l 2.3565566197108634 -1.3515587590960767 a23.716628458437484,23.716628458437484 0 0,0 0.20005807170088688,0.35588098647635236 l -2.3794723327041836 1.3107942626849303" fill="#ff0000" stroke="none" /><path d="M 118.3937258080291 89.86733742301442 l 3.9356752840356926 -2.1680691602083106 a25.49333548990233,25.49333548990233 0 0,0 0.2084285346439381,0.38618641988683144 l -3.9724119178980954 2.1000017569890206" fill="#ff1a02" stroke="none" /><path d="M 118.56541770881063 90.18545643968196 l 3.5582783027802276 -1.8810714603958345 a25.02489432397327,25.02489432397327 0 0,0 0.1980429225147288,0.38255589050227085 l -3.5901306584550725 1.819542847633219" fill="#ff1402" stroke="none" /><path d="M 118.73160827565052 90.50648371742162 l 3.8093406360147086 -1.9306424105026425 a25.27065055915658,25.27065055915658 0 0,0 0.19330842754675537,0.3896979940941195 l -3.8420090765148722 1.8647848279095731" fill="#ff1702" stroke="none" /><line stroke="#e1ed5e" stroke-width="0.3" x1="184.98032266829074" x2="189.97916517819016" y1="98.17113171792111" y2="98.06355123074" /><path d="M 185.9800911702706 98.14961562048488 a86.0,86.0 0 0,1 -9.607161424134198,41.387399972396054" fill="none" id="id40" stroke="none" /><text fill="#e1ed5e" style="font-size:6.75px; font-family:Arial;" text-anchor="middle"><textPath startOffset="21.466115282336823" xlink:href="#id40">April</textPath></text><line stroke="#e1ed5e" stroke-width="0.3" x1="174.80103733775053" x2="179.2010983576182" y1="140.37084112569926" y2="142.7455964860345" /><path d="M 175.68104954172406 140.8457921977663 a86.0,86.0 0 0,1 -30.038265399797805,32.042727171017184" fill="none" id="id41" stroke="none" /><text fill="#e1ed5e" style="font-size:6.75px; font-family:Arial;" text-anchor="middle"><textPath startOffset="22.206326154141568" xlink:href="#id41">May</textPath></text><line stroke="#e1ed5e" stroke-width="0.3" x1="143.8653032363475" x2="146.44561519142675" y1="172.8068346515853" y2="177.08958963109032" /><path d="M 144.38136562736335 173.6633856474863 a86.0,86.0 0 0,1 -40.68145358897372,12.25698825130547" fill="none" id="id42" stroke="none" /><text fill="#e1ed5e" style="font-size:6.75px; font-family:Arial;" text-anchor="middle"><textPath startOffset="21.466115282336833" xlink:href="#id42">June</textPath></text><line stroke="#e1ed5e" stroke-width="0.3" x1="102.19456741930631" x2="102.32365962044197" y1="184.97166512339345" y2="189.96999836594603" /><path d="M 102.22038585953345 185.97133177190398 a86.0,86.0 0 0,1 -42.740103519485714,-10.115201625700543" fill="none" id="id43" stroke="none" /><text fill="#e1ed5e" style="font-size:6.75px; font-family:Arial;" text-anchor="middle"><textPath startOffset="22.20632615414155" xlink:href="#id43">July</textPath></text><line stroke="#e1ed5e" stroke-width="0.3" x1="58.666819895761336" x2="56.23545636021788" y1="174.27360380694188" y2="178.64263932499728" /><path d="M 58.180547188652646 175.14741091055294 a86.0,86.0 0 0,1 -31.652253787137756,-30.449443065178592" fill="none" id="id44" stroke="none" /><text fill="#e1ed5e" style="font-size:6.75px; font-family:Arial;" text-anchor="middle"><textPath startOffset="22.20632615414155" xlink:href="#id44">August</textPath></text><line stroke="#e1ed5e" stroke-width="0.3" x1="26.63291911575756" x2="22.317208475507996" y1="142.92168965132927" y2="145.44649492493687" /><path d="M 25.769776987707644 143.4266507060508 a86.0,86.0 0 0,1 -11.730757126820373,-40.83630448921669" fill="none" id="id45" stroke="none" /><text fill="#e1ed5e" style="font-size:6.75px; font-family:Arial;" text-anchor="middle"><textPath startOffset="21.46611528233685" xlink:href="#id45">September</textPath></text><line stroke="#e1ed5e" stroke-width="0.3" x1="15.007084014347285" x2="10.007500721073583" y1="101.09737516637583" y2="101.16192664675087" /><path d="M 14.007167355692545 101.11028546245083 a86.0,86.0 0 0,1 10.666146001902534,-42.60595125391555" fill="none" id="id46" stroke="none" /><text fill="#e1ed5e" style="font-size:6.75px; font-family:Arial;" text-anchor="middle"><textPath startOffset="22.20632615414155" xlink:href="#id46">October</textPath></text><line stroke="#e1ed5e" stroke-width="0.3" x1="26.266209847984243" x2="21.928928074336255" y1="57.711370442889674" y2="55.22380399835377" /><path d="M 25.398753493254645 57.213857153982495 a86.0,86.0 0 0,1 29.58750427330803,-30.492523968695096" fill="none" id="id47" stroke="none" /><text fill="#e1ed5e" style="font-size:6.75px; font-family:Arial;" text-anchor="middle"><textPath startOffset="21.46611528233685" xlink:href="#id47">November</textPath></text><line stroke="#e1ed5e" stroke-width="0.3" x1="56.762969772571076" x2="54.21961505331055" y1="26.818313649435495" y2="22.513508569990535" /><path d="M 56.25429882871897 25.957352633546506 a86.0,86.0 0 0,1 42.265352541879196,-11.944610805530505" fill="none" id="id48" stroke="none" /><text fill="#e1ed5e" style="font-size:6.75px; font-family:Arial;" text-anchor="middle"><textPath startOffset="22.20632615414155" xlink:href="#id48">December</textPath></text></svg>