<?xml version="1.0" encoding="utf-8" ?>
<svg baseProfile="full" height="200mm" version="1.1" viewBox="0,0,200,200" width="200mm" xmlns="http://www.w3.org/2000/svg" xmlns:ev="http://www.w3.org/2001/xml-events" xmlns:xlink="http://www.w3.org/1999/xlink"><defs /><rect fill="#1a1a1a" height="200" width="200" x="0" y="0" /><text alignment-baseline="middle" fill="#e1ed5e" style="dominant-baseline: central; font-size:9.0px; font-family:Arial;" text-anchor="middle" x="100.0" y="100.0">2024</text><line stroke="#e1ed5e" stroke-width="0.3" x1="100.0" x2="100.0" y1="15.0" y2="10.0" /><path d="M 100.0 14.0 a86.0,86.0 0 0,1 42.35913384403234,11.155469271406648" fill="none" id="id25" stroke="none" /><text fill="#e1ed5e" style="font-size:6.75px; font-family:Arial;" text-anchor="middle"><textPath startOffset="22.145653131862478" xlink:href="#id25">January</textPath></text><path d="M 100.72087961077811 79.0123766808444 l 0.07239341869602336 -2.107655397186308 a23.108898309629716,23.108898309629716 0 0,0 0.39634427962016683,0.017020728731363288 l -0.10856345891702646 2.106102100029114" fill="#ff1402" stroke="none" /><path d="M 101.08105385017728 79.02784411241856 l 0.09562339007870929 -1.8550682215329408 a22.857531140861852,22.857531140861852 0 0,0 0.3916862703498694,0.02356287338143697 l -0.1274540125610411 1.8531533703268122" fill="#ff1101" stroke="none" /><path d="M 101.44090949804482 79.04949213459386 l 0.1279766551679004 -1.8607524791262613 a22.865148201308006,22.865148201308006 0 0,0 0.39135443821949517,0.03029330861663911 l -0.15990008816262907 1.8582814035145685" fill="#ff1101" stroke="none" /><path d="M 102.15924093988457 79.11130261209362 l 1.1902913782197309 -11.514989338982781 a32.576345409582046,32.576345409582046 0 0,0 0.5557588103478542,0.06227393390142392 l -1.3877860901683816 11.492859644574386" fill="#ff970d" stroke="none" /><path d="M 102.87502721639298 79.19773525538626 l 0.2553638854667301 -1.8476858658600042 a22.86524898415721,22.86524898415721 0 0,0 0.38835525079420613,0.05707484811920667 l -0.28704424186861827 1.843029944441915" fill="#ff1101" stroke="none" /><path d="M 103.23170211078529 79.25015418208739 l 0.14843545453550322 -0.9530620985283302 a21.964551941480803,21.964551941480803 0 0,0 0.372061202902099,0.06122252935164798 l -0.16477416049067273 0.9503735706810139" fill="#ff0400" stroke="none" /><path d="M 103.58742460773223 79.30868818359171 l 0.2848875599900659 -1.6431557400997143 a22.667669544022356,22.667669544022356 0 0,0 0.3828302408860645,0.06976442263573934 l -0.31305253442718406 1.638023143532609" fill="#ff0e01" stroke="none" /><path d="M 103.94208987418118 79.37332000966035 l 0.3897230386045918 -2.039195619260063 a23.076102796209433,23.076102796209433 0 0,0 0.3884515923194736,0.07770119768523105 l -0.42467111645502237 2.0322050249119727" fill="#ff1402" stroke="none" /><path d="M 104.64783097203109 79.52079915486377 l 0.9312919538974807 -4.103444183769752 a25.20779738969309,25.20779738969309 0 0,0 0.4211716942420459,0.09939537305005469 l -1.0015958018794116 4.08685266707347" fill="#ff3204" stroke="none" /><path d="M 105.3480935250658 79.69241777938227 l 0.7156929689692709 -2.717602776380515 a23.810263559886,23.810263559886 0 0,0 0.3943644054654897,0.10748577237023495 l -0.7622387753694534 2.7049165098661376" fill="#ff1e03" stroke="none" /><path d="M 105.69591212413111 79.78721728523813 l 0.6238745975295672 -2.2139108550675366 a23.30013494987328,23.30013494987328 0 0,0 0.3840527820502896,0.11179216760962211 l -0.6617873919614613 2.2028749931553984" fill="#ff1702" stroke="none" /><path d="M 106.04205211174951 79.88797359093562 l 0.7525945799463702 -2.505142588519872 a23.615748074754276,23.615748074754276 0 0,0 0.38725257434692384,0.11997183743397144 l -0.7954877871649243 2.491854163279254" fill="#ff1c02" stroke="none" /><path d="M 106.38641147887787 79.99465700312896 l 0.5894234666858825 -1.846360614322288 a22.93816086566636,22.93816086566636 0 0,0 0.3740856446032908,0.12296938166613935 l -0.6210318489369157 1.835970311254127" fill="#ff1202" stroke="none" /><path d="M 107.06938296918511 80.22567764915836 l 0.5885254262525776 -1.6462103610898906 a22.748247902989014,22.748247902989014 0 0,0 0.366583517677752,0.13461454540207465 l -0.6166980955844542 1.635864966679094" fill="#ff0f01" stroke="none" /><path d="M 107.40779381753099 80.34994680014964 l 0.6628065995826028 -1.7581732515539978 a22.878958693247462,22.878958693247462 0 0,0 0.3663114532349844,0.14169713937756986 l -0.692890315311113 1.7465362240383897" fill="#ff1101" stroke="none" /><path d="M 107.74402155503746 80.48000691201159 l 0.48315442528105945 -1.217864771538806 a22.310203343158587,22.310203343158587 0 0,0 0.35478061316104514,0.14428618677658014 l -0.5039894996325442 1.2093913281829323" fill="#ff0901" stroke="none" /><path d="M 108.07796709384702 80.6158196554323 l 0.865632091705205 -2.077201897794314 a23.250352559575994,23.250352559575994 0 0,0 0.36709530469889595,0.1566911567398296 l -0.901162471574531 2.0620360913950826" fill="#ff1602" stroke="none" /><path d="M 108.4095320186766 80.7573450057729 l 0.9307393133858332 -2.1297136936123917 a23.324210852363027,23.324210852363027 0 0,0 0.36550881811818553,0.16348744525978795 l -0.9671615343596504 2.1134224974427513" fill="#ff1702" stroke="none" /><path d="M 108.73861861582097 80.90454125486305 l 0.910361484605451 -1.9893041379529153 a23.1877131863957,23.1877131863957 0 0,0 0.36052619308898676,0.16874446240031532 l -0.9443763915659428 1.9733834439820663" fill="#ff1602" stroke="none" /><path d="M 109.71004243097381 81.37971332152246 l 0.5671508959233407 -1.0875866245817092 a22.226582571503315,22.226582571503315 0 0,0 0.3367974838617089,0.17932568996263876 l -0.5857371955716091 1.0776904668964973" fill="#ff0801" stroke="none" /><path d="M 110.02825361518725 81.54914285379988 l 0.8839900565953444 -1.6264421382603311 a22.85114895383064,22.85114895383064 0 0,0 0.34304559595265516,0.1902816093599657 l -0.9117798407040998 1.6110276134672195" fill="#ff1101" stroke="none" /><path d="M 110.34350942703115 81.72400993836675 l 0.6420748861642526 -1.1344848014249163 a22.30357812351503,22.30357812351503 0 0,0 0.3315878611345456,0.19144234088604214 l -0.6614552151591955 1.1232955632627024" fill="#ff0901" stroke="none" /><line stroke="#e1ed5e" stroke-width="0.3" x1="143.13028292997686" x2="145.6673583964461" y1="26.7553504044142" y2="22.446841604673864" /><path d="M 143.63769802327073 25.89364864446614 a86.0,86.0 0 0,1 29.32050498858742,28.57503671076993" fill="none" id="id26" stroke="none" /><text fill="#e1ed5e" style="font-size:6.75px; font-family:Arial;" text-anchor="middle"><textPath startOffset="20.669276256404974" xlink:href="#id26">February</textPath></text><path d="M 110.65571695917076 81.90426304109057 l 0.9330361395525011 -1.5844993461436976 a22.83880249500615,22.83880249500615 0 0,0 0.33612979669813065,0.2018362851237341 l -0.9600986928080659 1.5682490604840424" fill="#ff1101" stroke="none" /><path d="M 111.8722381534696 82.67804972795209 l 1.0400393651146125 -1.5174485156552104 a22.839655369533165,22.839655369533165 0 0,0 0.32150067824445605,0.22443244241559254 l -1.0659351345328294 1.499371257434491" fill="#ff1101" stroke="none" /><path d="M 112.16784306229584 82.88440491214696 l 0.7609250965970825 -1.0703364416243386 a22.31325058572244,22.31325058572244 0 0,0 0.31028061387214934,0.22461923628481012 l -0.7791867208431997 1.0571164339664538" fill="#ff0901" stroke="none" /><path d="M 112.45986205192187 83.09580414077388 l 1.1105649919612477 -1.5066947017777883 a22.87175947325909,22.87175947325909 0 0,0 0.3140477848793392,0.2356673125241564 l -1.1362657657513533 1.487408361989617" fill="#ff1101" stroke="none" /><path d="M 112.7482090630111 83.31218511350987 l 0.7613071495923791 -0.9965754971042401 a22.254093815250293,22.254093815250293 0 0,0 0.30158541861785504,0.23451464564034058 l -0.7783025128454601 0.9833597998431087" fill="#ff0801" stroke="none" /><path d="M 113.31354834802062 83.75963576809568 l 1.4180130717908492 -1.7297453818845159 a23.2366895533177,23.2366895533177 0 0,0 0.30631009797478875,0.25553477802671665 l -1.4474975039275306 1.705148419945929" fill="#ff1602" stroke="none" /><path d="M 113.59037401385872 83.9905735841838 l 1.2048458364195718 -1.4193053657604926 a22.86174144574753,22.86174144574753 0 0,0 0.2970072473693248,0.25654778636975717 l -1.2290325635517567 1.3984134469260154" fill="#ff1101" stroke="none" /><path d="M 113.86319453409587 84.22622945171908 l 1.204294477735599 -1.3702660463750063 a22.82426813460978,22.82426813460978 0 0,0 0.2920799564252592,0.26117969808985236 l -1.2276394609842338 1.3493908184017671" fill="#ff1001" stroke="none" /><path d="M 114.13192950727249 84.46653392183569 l 1.2542392350284932 -1.3786286296709718 a22.863795309907534,22.863795309907534 0 0,0 0.2880514073225206,0.2666160822599139 l -1.2777204136649787 1.3568948012786828" fill="#ff1101" stroke="none" /><path d="M 114.39649973595853 84.71141617570332 l 2.009078716850332 -2.1335719748222277 a23.930618818995026,23.930618818995026 0 0,0 0.29665707185017887,0.28419076417801725 l -2.045408274565823 2.0987690803386303" fill="#ff2003" stroke="none" /><path d="M 114.91283532996326 85.21462403516908 l 1.5915294753368494 -1.5779267410460571 a23.241164623800362,23.241164623800362 0 0,0 0.27846589409404754,0.2857305388468194 l -1.6183821705817087 1.5503735101314957" fill="#ff1602" stroke="none" /><path d="M 115.16444852881244 85.47280134310134 l 45.49334558643732 -43.581595970695986 a84.0,84.0 0 0,0 0.9885766650549601,1.0498341602220207 l -46.23477808522854 42.794220350529464" fill="#4dd2ff" stroke="none" /><path d="M 115.41159269507618 85.73525988315684 l 5.040996615356652 -4.665871209464451 a27.86891556356216,27.86891556356216 0 0,0 0.3219553805125602,0.35388536146466765 l -5.12034969671109 4.578648272442112" fill="#ff5708" stroke="none" /><path d="M 115.6541949942343 86.00192230759917 l 1.669372541315443 -1.4927632203061865 a23.23945232447509,23.23945232447509 0 0,0 0.26336821585175685,0.2996646838027404 l -1.6947518211257901 1.4638862586921482" fill="#ff1602" stroke="none" /><path d="M 115.8921839302757 86.27271002978787 l 1.991932926420727 -1.7205842193972234 a23.632148711489872,23.632148711489872 0 0,0 0.2625480366856658,0.3092809270480683 l -2.021175526613505 1.686136509899603" fill="#ff1c02" stroke="none" /><path d="M 116.1254893667686 86.54754324733833 l 3.1181775741923126 -2.6012946342196748 a25.060759184957405,25.060759184957405 0 0,0 0.2727483916198473,0.33270868950807636 l -3.1623727850507874 2.5473836630131035" fill="#ff3004" stroke="none" /><path d="M 116.35404254752997 86.82634096563983 l 1.5996424172131283 -1.288558698561552 a23.054078718692665,23.054078718692665 0 0,0 0.24561768190493222,0.3103299173902603 l -1.6215265297596198 1.2609088372566135" fill="#ff1402" stroke="none" /><path d="M 116.57777611688842 87.10902102172516 l 1.7623447579554987 -1.3704099432331678 a23.232461076571226,23.232461076571226 0 0,0 0.24211324608574508,0.3169340110658515 l -1.7856099813955506 1.3399550189264342" fill="#ff1602" stroke="none" /><path d="M 116.7966241395341 87.39550010848427 l 1.602929186877257 -1.2028679450263746 a23.004064188421857,23.004064188421857 0 0,0 0.23431061291749875,0.3178873470787543 l -1.6233418193785814 1.1751742886787453" fill="#ff1302" stroke="none" /><path d="M 117.01052211995028 87.68569379921539 l 15.86537030395805 -11.48530459759607 a40.58627572003609,40.58627572003609 0 0,0 0.40370762880074235,0.5678653375997013 l -16.06019303128875 11.211262033286864" fill="#fffc17" stroke="none" /><path d="M 117.21940702142032 87.97951657250589 l 1.8325347500195124 -1.2792515773344946 a23.234875434591796,23.234875434591796 0 0,0 0.22550028939939493,0.3290116613915146 l -1.8542247762342323 1.2476051808729312" fill="#ff1602" stroke="none" /><path d="M 117.42321728460499 88.27688183743584 l 2.001310809195595 -1.3465712280904245 a23.41215650970746,23.41215650970746 0 0,0 0.22149634907818788,0.335373703314057 l -2.0241315971945073 1.3120176464373088" fill="#ff1902" stroke="none" /><path d="M 117.62189284568427 88.57770195909679 l 2.0659384260883935 -1.3391163278305487 a23.4619776846777,23.4619776846777 0 0,0 0.21616560006920474,0.33984822746062426 l -2.088621717783488 1.3034544256912524" fill="#ff1902" stroke="none" /><path d="M 117.81537515405839 88.88188828441811 l 2.4852528973262573 -1.5509816164411463 a23.929509504713536,23.929509504713536 0 0,0 0.214490489697906,0.35035409533543344 l -2.511511351479566 1.508090404981158" fill="#ff2003" stroke="none" /><line stroke="#e1ed5e" stroke-width="0.3" x1="172.87174338648825" x2="177.1583165268699" y1="56.24261187166439" y2="53.66864786411523" /><path d="M 173.72905801456457 55.72781907015455 a86.0,86.0 0 0,1 12.242430191666344,42.057860355516425" fill="none" id="id27" stroke="none" /><text fill="#e1ed5e" style="font-size:6.75px; font-family:Arial;" text-anchor="middle"><textPath startOffset="22.145653131862474" xlink:href="#id27">March</textPath></text><path d="M 118.00360718960297 89.18935116829356 l 2.0969339106618823 -1.2591485635475264 a23.44593273226545,23.44593273226545 0 0,0 0.20423226129811226,0.3468310291212441 l -2.118239882089762 1.2229663661327257" fill="#ff1902" stroke="none" /><path d="M 118.53625476483649 90.13048839642627 l 1.6642623215062124 -0.8861259462540083 a22.88546765217805,22.88546765217805 0 0,0 0.1816582283501429,0.34835360539662824 l -1.6792286188313 0.8574260977528819" fill="#ff1101" stroke="none" /><path d="M 118.70294669586156 90.45014215332178 l 2.7811418881636203 -1.4200708645168587 a24.122715398871303,24.122715398871303 0 0,0 0.185147683883745,0.37041939328400686 l -2.805109485259102 1.3721196150691013" fill="#ff2303" stroke="none" /><path d="M 118.8641267826498 90.77261029715802 l 2.304648200054362 -1.127318922040648 a23.565589849918474,23.565589849918474 0 0,0 0.17463307519317522,0.3649159619359515 l -2.323660533207449 1.0875904580395932" fill="#ff1b02" stroke="none" /><path d="M 119.0197475246899 91.09779779509293 l 1.9962991253000677 -0.9343687896924424 a23.20414501175062,23.20414501175062 0 0,0 0.1657610586437504,0.3622178282447633 l -2.0120446487988692 0.8999619792329949" fill="#ff1602" stroke="none" /><path d="M 119.16976305983485 91.42560881287824 l 1.73715762806493 -0.7770085112804519 a22.9030130980491,22.9030130980491 0 0,0 0.1574485281466586,0.36027304489076917 l -1.7502400382285588 0.7470733966138333" fill="#ff1101" stroke="none" /><path d="M 119.31412917781788 91.75594674310238 l 2.474108075251613 -1.05604961776481 a23.690065345527213,23.690065345527213 0 0,0 0.1564380859365006,0.375394456962059 l -2.4918720057245967 1.0134226513614732" fill="#ff1d02" stroke="none" /><path d="M 119.4528033332814 92.08871423366111 l 17.95481746505989 -7.302067954674593 a40.38287044321107,40.38287044321107 0 0,0 0.25564534787580045,0.6443932765484004 l -18.077521487901816 6.9927736609126265" fill="#fff917" stroke="none" /><path d="M 119.58574465831526 92.42381321644754 l 2.0508202066387224 -0.7933013125636805 a23.198906658426626,23.198906658426626 0 0,0 0.14048519504784449,0.3726536705096314 l -2.0641360855010076 0.7579793618598915" fill="#ff1602" stroke="none" /><path d="M 119.83427380445688 93.10060997987247 l 2.7949777547322054 -0.9722383495152046 a23.959247887169294,23.959247887169294 0 0,0 0.13179249614902694,0.3896210968727045 l -2.8112556724535973 0.9241155781683384" fill="#ff2103" stroke="none" /><path d="M 119.94978838288452 93.4421083053983 l 3.5706526811467447 -1.1737444584669723 a24.758621638734386,24.758621638734386 0 0,0 0.12925802477742834,0.40489892161237545 l -3.5902754217014303 1.1122765031632098" fill="#ff2c04" stroke="none" /><path d="M 120.16314734710363 94.1308016681162 l 2.8808773056391535 -0.8385813973158337 a24.000445435276383,24.000445435276383 0 0,0 0.1117523688353828,0.3965697328018573 l -2.894848166549118 0.7890037406109632" fill="#ff2103" stroke="none" /><path d="M 120.26092885502905 94.47779374421319 l 17.70382559180457 -4.825256390461851 a39.34961960964661,39.34961960964661 0 0,0 0.17203376221419153,0.653240216258916 l -17.78404883482349 4.520635669830137" fill="#ffed16" stroke="none" /><path d="M 120.35273937422433 94.82641323984039 l 3.1072176306985972 -0.7898425710435572 a24.206033794512607,24.206033794512607 0 0,0 0.09891331586368439,0.4036000829756287 l -3.120318473078573 0.7363866634598335" fill="#ff2403" stroke="none" /><path d="M 120.43855184770803 95.1765574152323 l 2.408145523339917 -0.568315786467916 a23.474297414364475,23.474297414364475 0 0,0 0.08919018886815432,0.3929884288473543 l -2.4175465737657373 0.5268930236815355" fill="#ff1a02" stroke="none" /><path d="M 120.51834098615036 95.52812308129327 l 2.6802805084265335 -0.5841546618892087 a23.743198912375494,23.743198912375494 0 0,0 0.08337513524528443,0.39898020428740905 l -2.6899133544961846 0.5380580063163952" fill="#ff1d03" stroke="none" /><path d="M 120.65975698304385 96.23510406497455 l 3.2487530730982734 -0.5920310315773657 a24.30225639106294,24.30225639106294 0 0,0 0.07126947119972028,0.4110633707550291 l -3.258437361790228 0.536174627901744" fill="#ff2503" stroke="none" /><path d="M 120.77682067341334 96.94652285012252 l 7.728091997079995 -1.135763392107002 a28.811105196973234,28.811105196973234 0 0,0 0.06771362026548773,0.489942024738877 l -7.746450133900695 1.0029330591680394" fill="#ff6409" stroke="none" /><path d="M 120.82617615685814 97.30363454192243 l 3.1394609139995953 -0.40646606951442454 a24.165664147725984,24.165664147725984 0 0,0 0.04973283755306477,0.41185923808649105 l -3.145975837812324 0.3525131545045205" fill="#ff2403" stroke="none" /><path d="M 120.86939407059847 97.66154086499901 l 3.336535045788398 -0.37386571122671114 a24.357415923266768,24.357415923266768 0 0,0 0.04299386350497476,0.4159266285217705 l -3.342461301775039 0.3165345604220093" fill="#ff2603" stroke="none" /><path d="M 120.9064616781168 98.02013634271609 l 2.023773377731784 -0.1916534429804476 a23.032828012061564,23.032828012061564 0 0,0 0.033898155851372354,0.3939479543499422 l -2.026765156280897 0.1568844412548434" fill="#ff1302" stroke="none" /><path d="M 120.93736805541906 98.37931529534042 l 1.4679109656310574 -0.11362559245762414 a22.472302067607476,22.472302067607476 0 0,0 0.026470273174033537,0.38487196252405625 l -1.469645199970157 0.08841020577923372" fill="#ff0b01" stroke="none" /><path d="M 120.96210409425399 98.7389718711861 l 44.51205251666702 -2.6777345462255115 a65.59252270893151,65.59252270893151 0 0,0 0.057966331667211005,1.1245313485139372 l -44.55146043779081 1.913231404334844" fill="#36ff71" stroke="none" /><path d="M 120.99303781780057 99.45929381324524 l 1.7519431774057217 -0.045123841679684806 a22.752524196108684,22.752524196108684 0 0,0 0.006705026299553563,0.3905341674274197 l -1.7524596353039412 0.015042758283198714" fill="#ff0f01" stroke="none" /><line stroke="#e1ed5e" stroke-width="0.3" x1="184.99686870605535" x2="189.99668451229388" y1="99.2704041080226" y2="99.22748670261217" /><path d="M 185.99683186730306 99.26182062694052 a86.0,86.0 0 0,1 -10.086455211305974,41.156179273409016" fill="none" id="id28" stroke="none" /><text fill="#e1ed5e" style="font-size:6.75px; font-family:Arial;" text-anchor="middle"><textPath startOffset="21.40746469413373" xlink:href="#id28">April</textPath></text><path d="M 120.99922638620191 100.18025310272382 l 2.0314311990362084 0.017437393638313297 a23.03150603718389,23.03150603718389 0 0,0 -0.0067872404998473865,0.3953227324276139 l -2.030832526937693 -0.05230704203499823" fill="#ff1302" stroke="none" /><path d="M 120.99303781780057 100.54070618675476 l 2.6835836400549744 0.06911959524129474 a23.68447363027038,23.68447363027038 0 0,0 -0.01395727497569275,0.40635083219442536 l -2.6820016780824356 -0.11517669199983079" fill="#ff1d02" stroke="none" /><path d="M 120.96210409425399 101.26102812881392 l 3.328891253894314 0.20025783146807435 a24.33490932100385,24.33490932100385 0 0,0 -0.028664250571854597,0.416771912376514 l -3.324963042157393 -0.2573731679989319" fill="#ff2603" stroke="none" /><path d="M 120.93736805541906 101.62068470465957 l 3.687569327363935 0.2854411877563419 a24.698600304950922,24.698600304950922 0 0,0 -0.0363497266601194,0.42243892327712107 l -3.682125978006075 -0.3487011584091203" fill="#ff2b04" stroke="none" /><path d="M 120.86939407059847 102.33845913500097 l 3.724308083507834 0.4173164889203293 a24.747615742416315,24.747615742416315 0 0,0 -0.05093049154451134,0.42177753120383776 l -3.716595505703659 -0.48118769704757564" fill="#ff2c04" stroke="none" /><path d="M 120.82617615685814 102.69636545807757 l 2.225996677766634 0.2881998359429449 a23.244575762781384,23.244575762781384 0 0,0 -0.05463082258291042,0.39528141789610277 l -2.2207213386285134 -0.32636956203913275" fill="#ff1602" stroke="none" /><path d="M 120.7213421655516 103.40968896794604 l 3.1398245820460158 0.5166569401322891 a24.182048522541304,24.182048522541304 0 0,0 -0.07091694627011198,0.4090301006409082 l -3.1304928182836695 -0.5704800736937854" fill="#ff2403" stroke="none" /><path d="M 120.65975698304385 103.76489593502545 l 1.8125962149766883 0.3303154111255582 a22.842447640877445,22.842447640877445 0 0,0 -0.07361110120042007,0.3851643865712152 l -1.806658821494109 -0.3613823627300879" fill="#ff1101" stroke="none" /><path d="M 120.592083275326 104.11899336999214 l 5.073829858998279 1.0149080726923765 a26.174339362090453,26.174339362090453 0 0,0 -0.09191217629621398,0.4398330361597372 l -5.0556599718776996 -1.101857560137523" fill="#ff4006" stroke="none" /><path d="M 120.51834098615036 104.47187691870673 l 18.581376717652606 4.049724571667486 a40.017566348765286,40.017566348765286 0 0,0 -0.1520460543584284,0.6699429698830118 l -18.509119801736514 -4.368101875489515" fill="#fff517" stroke="none" /><path d="M 120.35273937422433 105.17358676015961 l 4.75543898783116 1.2088139947071739 a25.906672114660257,25.906672114660257 0 0,0 -0.11326214368897973,0.430074807904382 l -4.73398736333745 -1.2902693069843592" fill="#ff3c05" stroke="none" /><path d="M 120.26092885502905 105.52220625578681 l 1.9207783663301627 0.5235166850652846 a22.990843854274793,22.990843854274793 0 0,0 -0.10705139907375576,0.3798876495341223 l -1.9115084751818272 -0.5564122585024155" fill="#ff1302" stroke="none" /><path d="M 120.05942366710727 106.21446072829308 l 2.0395958002188297 0.6318719925555687 a23.135231426156526,23.135231426156526 0 0,0 -0.12078274633169793,0.37835023259325745 l -2.028448338109877 -0.6667912588402097" fill="#ff1502" stroke="none" /><path d="M 119.94978838288452 106.5578916946017 l 1.9414345533614592 0.63818809948003 a23.043636996950227,23.043636996950227 0 0,0 -0.1267560006258171,0.3747315927849423 l -1.930193131163277 -0.6714213667391328" fill="#ff1302" stroke="none" /><path d="M 119.83427380445688 106.89939002012753 l 20.984824512687332 7.2996112811767775 a43.218172397489546,43.218172397489546 0 0,0 -0.24975952634147036,0.6986218465738402 l -20.856424816301917 -7.658768084131538" fill="#e3ff1b" stroke="none" /><path d="M 119.71291397450082 107.23885506374661 l 1.0424693304774917 0.38280917785614255 a22.11053373277766,22.11053373277766 0 0,0 -0.13389435501405136,0.35517068428109294 l -1.0357442916489996 -0.4006481423313944" fill="#ff0601" stroke="none" /><path d="M 119.58574465831526 107.57618678355244 l 1.9018198381289768 0.7356647691316327 a23.039147211272994,23.039147211272994 0 0,0 -0.14585022656748337,0.36763784736973953 l -1.8889109365953691 -0.7682036337149364" fill="#ff1302" stroke="none" /><path d="M 119.4528033332814 107.91128576633889 l 1.8654271105235265 0.7586529660934997 a23.013795577420563,23.013795577420563 0 0,0 -0.1519723174147029,0.36467823821569806 l -1.852128948572338 -0.7905637137504756" fill="#ff1302" stroke="none" /><path d="M 119.31412917781788 108.2440532568976 l 1.9736104602552595 0.8424169473507069 a23.14588083593024,23.14588083593024 0 0,0 -0.1591181411229123,0.3640934461217208 l -1.9588584371153814 -0.8761724632482724" fill="#ff1502" stroke="none" /><path d="M 119.16976305983485 108.57439118712176 l 1.8710430410284928 0.8368937535453518 a23.049681247439313,23.049681247439313 0 0,0 -0.16465763177404702,0.3598066413976229 l -1.8564009443993899 -0.8688893771576636" fill="#ff1402" stroke="none" /><path d="M 118.8641267826498 109.22738970284198 l 6.835068881651435 3.343374699685236 a28.608963201344526,28.608963201344526 0 0,0 -0.21958072246262222,0.43930853621987004 l -6.776668245977081 -3.4602150920688515" fill="#ff6109" stroke="none" /><path d="M 118.70294669586154 109.54985784667822 l 1.9263019057400532 0.9835834785153603 a23.162885917302653,23.162885917302653 0 0,0 -0.1838602943651492,0.3525763573336951 l -1.9091335423999547 -1.0165060789535583" fill="#ff1502" stroke="none" /><path d="M 118.5362547648365 109.86951160357373 l 1.881958340228832 1.0020368144467848 a23.132098724699098,23.132098724699098 0 0,0 -0.18963325564828748,0.34890383155413013 l -1.8644797349652056 -1.0341954794755184" fill="#ff1502" stroke="none" /><line stroke="#e1ed5e" stroke-width="0.3" x1="174.33088141563837" x2="178.70328620479359" y1="141.23008692659167" y2="143.65538615756765" /><path d="M 175.20536237346943 141.71514677278685 a86.0,86.0 0 0,1 -30.301960400862466,31.631185727798858" fill="none" id="id29" stroke="none" /><text fill="#e1ed5e" style="font-size:6.75px; font-family:Arial;" text-anchor="middle"><textPath startOffset="22.145653131862474" xlink:href="#id29">May</textPath></text><path d="M 118.36410011445183 110.18625677009912 l 0.8354039572339328 0.46338449268445153 a21.95531406344853,21.95531406344853 0 0,0 -0.18564434467358878,0.3280157689406903 l -0.8273262475389657 -0.47765703172426455" fill="#ff0400" stroke="none" /><path d="M 118.00360718960297 110.81064883170644 l 1.736441203282706 1.042683050563107 a23.02544217305493,23.02544217305493 0 0,0 -0.20638694521659523,0.3371175644302245 l -1.718286293610706 -1.0723377311178885" fill="#ff1302" stroke="none" /><path d="M 117.81537515405839 111.11811171558189 l 1.6596747194991983 1.0357597739790292 a22.95635336377093,22.95635336377093 0 0,0 -0.2115070590797222,0.3325242272620661 l -1.6416499687935862 -1.0640976759197671" fill="#ff1202" stroke="none" /><path d="M 117.62189284568427 111.42229804090321 l 24.384936544343088 15.806021257597976 a50.05951545135049,50.05951545135049 0 0,0 -0.47360011045969574,0.7170909299220433 l -24.110011994962665 -16.22229206585908" fill="#95ff23" stroke="none" /><path d="M 117.21940702142032 112.02048342749411 l 5.714919492270675 3.989457648619796 a27.96965401818959,27.96965401818959 0 0,0 -0.27821135351145826,0.3913391100761967 l -5.645593040229256 -4.086973985405497" fill="#ff5908" stroke="none" /><path d="M 117.01052211995028 112.31430620078461 l 1.7488897488136714 1.2660613076095149 a23.1590568746866,23.1590568746866 0 0,0 -0.2358893092304155,0.32002915182463254 l -1.726898419999428 -1.2958967687030247" fill="#ff1502" stroke="none" /><path d="M 116.79662413953412 112.60449989151573 l 8.470605635491316 6.356500385236592 a31.59038511950959,31.59038511950959 0 0,0 -0.32921396752479426,0.43095165140028985 l -8.360239690612216 -6.5009729498777595" fill="#ff8a0c" stroke="none" /><path d="M 116.57777611688842 112.89097897827486 l 1.6529220809654666 1.2853222077685742 a23.09384922655054,23.09384922655054 0 0,0 -0.24604139608008396,0.31086526640891254 l -1.6306142542438211 -1.3135074180921695" fill="#ff1402" stroke="none" /><path d="M 116.35404254752997 113.17365903436017 l 3.042677918526967 2.4509659512965447 a24.907060661201278,24.907060661201278 0 0,0 -0.2710756160730478,0.33066817533048304 l -3.0001554832152912 -2.502836408325521" fill="#ff2e04" stroke="none" /><path d="M 116.1254893667686 113.45245675266167 l 2.005777984495798 1.6732913326324494 a23.612096707044152,23.612096707044152 0 0,0 -0.26232526327376954,0.3090185005290082 l -1.976758157714914 -1.7074766156110144" fill="#ff1c02" stroke="none" /><path d="M 115.6541949942343 113.99807769240083 l 1.5207286252724734 1.3598449139966917 a23.040047485193856,23.040047485193856 0 0,0 -0.266169928220014,0.2925673772222934 l -1.4971609962105794 -1.3857498667766568" fill="#ff1302" stroke="none" /><path d="M 115.41159269507618 114.26474011684316 l 2.2028668009318166 2.0389406240507126 a24.00164971491543,24.00164971491543 0 0,0 -0.2824698908451004,0.2999732353857276 l -2.1675410763504566 -2.0764553193809374" fill="#ff2103" stroke="none" /><path d="M 115.16444852881244 114.52719865689866 l 1.4541543504623027 1.3930469734406905 a23.01373899629041,23.01373899629041 0 0,0 -0.2757409755398592,0.2829345323579996 l -1.4300265737716362 -1.4178041978664273" fill="#ff1302" stroke="none" /><path d="M 114.91283532996324 114.78537596483092 l 1.3736571818676442 1.3619165927418106 a22.934360581402036,22.934360581402036 0 0,0 -0.2795896007377028,0.2771999603896975 l -1.3500756609999767 -1.38529656336017" fill="#ff1202" stroke="none" /><path d="M 114.65682725009322 115.03919595460226 l 1.4952808537399624 1.5342898829906888 a23.14240758881425,23.14240758881425 0 0,0 -0.28688597327084525,0.27483027277020766 l -1.4687223946038053 -1.5597322860664766" fill="#ff1502" stroke="none" /><path d="M 114.39649973595853 115.28858382429668 l 20.75380912365334 22.03982608827531 a51.27333029487271,51.27333029487271 0 0,0 -0.6459712724575697,0.5979013659955891 l -20.372408079881804 -22.39284520040328" fill="#88ff25" stroke="none" /><path d="M 114.13192950727249 115.5334660781643 l 3.2174663207040406 3.536559103593937 a25.78114419549107,25.78114419549107 0 0,0 -0.32991881399228185,0.29501543785226075 l -3.156282479888381 -3.5912700713295846" fill="#ff3a05" stroke="none" /><path d="M 113.59037401385872 116.0094264158162 l 1.2937237517977287 1.5240033265956217 a22.999076608196923,22.999076608196923 0 0,0 -0.30317784265360465,0.2529217392352661 l -1.267371574982229 -1.545987249742758" fill="#ff1302" stroke="none" /><path d="M 113.31354834802062 116.24036423190432 l 1.3204500127297323 1.610734313361457 a23.08279938168753,23.08279938168753 0 0,0 -0.30859419735490606,0.2485816411520573 l -1.2926050450195736 -1.6331642483069178" fill="#ff1402" stroke="none" /><path d="M 113.03279911837588 116.46651593811092 l 1.265786375653679 1.5992797356599164 a23.039585943686347,23.039585943686347 0 0,0 -0.31223033520452664,0.2427921971633402 l -1.2381460958139217 -1.6207729844440497" fill="#ff1302" stroke="none" /><path d="M 112.7482090630111 116.68781488649013 l 1.666284782429675 2.181220268660546 a23.744854611190235,23.744854611190235 0 0,0 -0.3260360883754815,0.2446635589639945 l -1.628595705143427 -2.2095028548885556" fill="#ff1e03" stroke="none" /><path d="M 112.45986205192187 116.90419585922612 l 13.116967890838529 17.79568613054697 a43.10749401235316,43.10749401235316 0 0,0 -0.5994384212760762,0.4339471896310075 l -12.809548459188484 -18.018234091551054" fill="#e4ff1a" stroke="none" /><path d="M 111.8722381534696 117.32195027204791 l 1.1853013002959796 1.7293900202903532 a23.096599393008404,23.096599393008404 0 0,0 -0.32896564813263396,0.22134276933404948 l -1.1554393640663423 -1.7494824636815236" fill="#ff1402" stroke="none" /><path d="M 111.5731344415666 117.5232005979908 l 1.83851798576664 2.783750558698408 a24.33607787035032,24.33607787035032 0 0,0 -0.3505720576330098,0.22723657226627897 l -1.7904602958766205 -2.8149009726685814" fill="#ff2603" stroke="none" /><path d="M 111.27062007382361 117.71928675628689 l 1.53173438146251 2.408140861977451 a23.85400641668512,23.85400641668512 0 0,0 -0.3474005159191726,0.21680361556462924 l -1.4901697367536224 -2.434080274383628" fill="#ff1f03" stroke="none" /><path d="M 110.96478420261333 117.91015095944535 l 1.8581620771871983 3.035168106783842 a24.558793579506187,24.558793579506187 0 0,0 -0.36144374447109057,0.21703658343260016 l -1.8057855761586712 -3.0666186907523656" fill="#ff2904" stroke="none" /><line stroke="#e1ed5e" stroke-width="0.3" x1="143.1302829299769" x2="145.66735839644613" y1="173.24464959558577" y2="177.55315839532614" /><path d="M 143.63769802327073 174.10635135553383 a86.0,86.0 0 0,1 -40.68552437913181,11.842963189579606" fill="none" id="id30" stroke="none" /><text fill="#e1ed5e" style="font-size:6.75px; font-family:Arial;" text-anchor="middle"><textPath startOffset="21.407464694133747" xlink:href="#id30">June</textPath></text><path d="M 110.65571695917076 118.09573695890943 l 1.0275314833953448 1.7449730986442389 a23.025031373673187,23.025031373673187 0 0,0 -0.3423137248862573,0.1976349212103849 l -0.997425290648689 -1.7623549171307953" fill="#ff1302" stroke="none" /><path d="M 110.34350942703117 118.27599006163325 l 9.173444760819468 16.2085979098681 a39.62446603217356,39.62446603217356 0 0,0 -0.5948496765644826,0.32995308821736274 l -8.893850896098892 -16.363683913518607" fill="#fff016" stroke="none" /><path d="M 109.71004243097381 118.62028667847754 l 0.9752526341769475 1.8701755179141843 a23.109188035305213,23.109188035305213 0 0,0 -0.35332053363993743,0.18040798198502483 l -0.9430048788234278 -1.8866414515720455" fill="#ff1402" stroke="none" /><path d="M 109.3889696526874 118.78422872680471 l 0.9338157749993008 1.8682570883871723 a23.088635068638478,23.088635068638478 0 0,0 -0.35604846788128225,0.1741611474569884 l -0.9016070578559491 -1.8840119859413842" fill="#ff1402" stroke="none" /><path d="M 109.06512990194946 118.94263497670748 l 0.8831141564007893 1.8453689344115896 a23.045794984187527,23.045794984187527 0 0,0 -0.3583196266733648,0.16771167790173494 l -0.8513058158559182 -1.860256843883858" fill="#ff1302" stroke="none" /><path d="M 108.73861861582097 119.09545874513695 l 0.8551769108414267 1.8687158850486083 a23.055097712486997,23.055097712486997 0 0,0 -0.3612916025253983,0.1616011383659513 l -0.8229719054604013 -1.8831207743244098" fill="#ff1402" stroke="none" /><path d="M 108.4095320186766 119.2426549942271 l 0.778112357104302 1.7804733487249638 a22.9430759598632,22.9430759598632 0 0,0 -0.36224377409481573,0.154620326814788 l -0.7474335078390552 -1.7935683251991557" fill="#ff1202" stroke="none" /><path d="M 108.07796709384702 119.3841803445677 l 2.171963739065124 5.2119222981198785 a26.64637587532507,26.64637587532507 0 0,0 -0.4237351594765461,0.17232940046891837 l -2.0821741183981373 -5.248438955168088" fill="#ff4606" stroke="none" /><path d="M 107.407793817531 119.65005319985036 l 0.7648091595211692 2.028747160424182 a23.168120866422502,23.168120866422502 0 0,0 -0.3733496874755124,0.13709917667303043 l -0.7298703203915298 -2.0415771861059344" fill="#ff1502" stroke="none" /><path d="M 107.06938296918513 119.77432235084164 l 0.7193515429239553 2.0121542934309655 a23.136874245920836,23.136874245920836 0 0,0 -0.37514153017410634,0.13049369767382266 l -0.6847042407048272 -2.0242064236733786" fill="#ff1502" stroke="none" /><path d="M 106.38641147887787 120.00534299687104 l 0.6500911723286779 2.036401338167187 a23.13765033212375,23.13765033212375 0 0,0 -0.37941269643846603,0.11754302321750906 l -0.6150378430185875 -2.0472609491913403" fill="#ff1502" stroke="none" /><path d="M 106.0420521117495 120.11202640906438 l 0.6709255522236366 2.233292956642629 a23.331895908229217,23.331895908229217 0 0,0 -0.3845762933708619,0.11194455412530314 l -0.6324892464711679 -2.2444812050704503" fill="#ff1802" stroke="none" /><path d="M 105.69591212413111 120.21278271476187 l 7.010800042024592 24.87885606692071 a46.84780061103477,46.84780061103477 0 0,0 -0.7759303037057547,0.2114832546838027 l -6.582688337384143 -24.995539815748653" fill="#b9ff1f" stroke="none" /><path d="M 104.9986988182912 120.39639698878246 l 0.7153663506685894 2.9189388300935866 a24.00532076649016,24.00532076649016 0 0,0 -0.40108072362484554,0.09465395868927332 l -0.6651534733038648 -2.930788932429085" fill="#ff2103" stroke="none" /><path d="M 104.64783097203109 120.47920084513623 l 0.7035105489440129 3.0997972850549993 a24.178627109446758,24.178627109446758 0 0,0 -0.40555338964278925,0.08838847369146505 l -0.6501947426820878 -3.111417216880183" fill="#ff2403" stroke="none" /><path d="M 104.29559338865022 120.5559693870025 l 0.5732543618677902 2.7432296419523827 a23.802486294683106,23.802486294683106 0 0,0 -0.40067916944150794,0.08014705556290538 l -0.5260787068953237 -2.75266609417815" fill="#ff1e03" stroke="none" /><path d="M 103.94208987418118 120.62667999033965 l 0.4820125571391803 2.5220933780715313 a23.567740468379178,23.567740468379178 0 0,0 -0.3980313787055826,0.07253457632300218 l -0.43864644488254056 -2.529996128325897" fill="#ff1b02" stroke="none" /><path d="M 103.58742460773223 120.69131181640829 l 0.6873764987945326 3.9646049818506066 a25.02375187023376,25.02375187023376 0 0,0 -0.42388149991713836,0.06974953950553457 l -0.6192174958243218 -3.975820519851812" fill="#ff3004" stroke="none" /><path d="M 103.2317021107853 120.74984581791261 l 0.6384000768952781 4.098986450982522 a25.148402654458483,25.148402654458483 0 0,0 -0.4271335171863991,0.06277391787591667 l -0.5679414541011936 -4.109341442157321" fill="#ff3104" stroke="none" /><path d="M 102.51750503828377 120.84855314841334 l 4.945976447998904 40.95978013104687 a62.2573177922155,62.2573177922155 0 0,0 -1.0621219917895526,0.1190129845544916 l -4.2421185546085525 -41.03864887610833" fill="#32ff4a" stroke="none" /><path d="M 101.44090949804482 120.95050786540614 l 0.1828113388169141 2.658036744824109 a23.66431592016322,23.66431592016322 0 0,0 -0.4055113207996359,0.02439455408586636 l -0.13715566588481304 -2.660783276734667" fill="#ff1c02" stroke="none" /><path d="M 101.08105385017728 120.97215588758144 l 0.14276141873812337 2.7695333844999737 a23.773210412237052,23.773210412237052 0 0,0 -0.4077379989668533,0.017510024064266688 l -0.09519765917044051 -2.7715759769900714" fill="#ff1e03" stroke="none" /><path d="M 100.72087961077811 120.9876233191556 l 0.19299086448034225 5.618718447841305 a26.622031880902586,26.622031880902586 0 0,0 -0.4568678972505469,0.011767296411173725 l -0.09650965315905151 -5.621203461602524" fill="#ff4606" stroke="none" /><line stroke="#e1ed5e" stroke-width="0.3" x1="101.45913802915013" x2="101.54496967792366" y1="184.9874750549273" y2="189.98673829345242" /><path d="M 101.47630435890484 185.9873277026323 a86.0,86.0 0 0,1 -42.54439059252881,-10.42667462771756" fill="none" id="id31" stroke="none" /><text fill="#e1ed5e" style="font-size:6.75px; font-family:Arial;" text-anchor="middle"><textPath startOffset="22.145653131862474" xlink:href="#id31">July</textPath></text><path d="M 100.0 121.0 l 3.6982901077683927e-16 3.019883047376016 a24.019883047376016,24.019883047376016 0 0,0 -0.41233323306075903,-0.0035393848920160986 l 0.05184030821190653 -3.019438060678435" fill="#ff2103" stroke="none" /><path d="M 99.63950707515114 120.99690560180557 l -0.037324782607236776 2.1739814653523726 a23.174301853720483,23.174301853720483 0 0,0 -0.39770046875174003,-0.010243353334359679 l 0.07463856542972072 -2.1730203946679656" fill="#ff1502" stroke="none" /><path d="M 98.91894614982273 120.97215588758144 l -0.10607875167492811 2.057899443327301 a23.06063165568321,23.06063165568321 0 0,0 -0.3951665973662332,-0.023772241212325986 l 0.1413897011736077 -2.0557752242902834" fill="#ff1402" stroke="none" /><path d="M 98.55909050195518 120.95050786540614 l -0.5441135361384873 7.9112913989472045 a28.92998052578095,28.92998052578095 0 0,0 -0.4951586657863948,-0.03832841233413514 l 0.6798411967001182 -7.900785219618015" fill="#ff6609" stroke="none" /><path d="M 98.19965949673042 120.92268563240118 l -1.7345794146832536 20.158442101337187 a41.23293240483955,41.23293240483955 0 0,0 -0.7046913068101461,-0.0667349994197105 l 2.080370284878415 -20.12569534641229" fill="#faff18" stroke="none" /><path d="M 97.48249496171623 120.84855314841334 l -0.23684284774339054 1.9613985370078375 a22.975646414595406,22.975646414595406 0 0,0 -0.3911572928387199,-0.05064314279979488 l 0.27047796247290445 -1.9570437980076456" fill="#ff1202" stroke="none" /><path d="M 97.12497278360702 120.80226474461374 l -0.28778418262581634 2.0822629859501895 a23.10205586948297,23.10205586948297 0 0,0 -0.39237730178539054,-0.057665951107978626 l 0.3234865900188918 -2.077015961543329" fill="#ff1402" stroke="none" /><path d="M 96.76829788921471 120.74984581791261 l -0.41183967112346404 2.644306122458536 a23.67618511765961,23.67618511765961 0 0,0 -0.4010548422967511,-0.06599342168066295 l 0.4571720164732787 -2.6368467022822046" fill="#ff1d02" stroke="none" /><path d="M 96.41257539226777 120.69131181640829 l -0.34590462894694635 1.9950859791879159 a23.024850136844485,23.024850136844485 0 0,0 -0.38886260041575843,-0.07086371949051894 l 0.38010196291376197 -1.9888540857660308" fill="#ff1302" stroke="none" /><path d="M 96.05791012581884 120.62667999033965 l -0.8447402024254566 4.420037692322754 a25.50003546776552,25.50003546776552 0 0,0 -0.4292548646162062,-0.0858629949068634 l 0.9204915525726208 -4.404885300753029" fill="#ff3605" stroke="none" /><path d="M 95.70440661134978 120.55596938700252 l -3.6190000300777996 17.318225236680597 a38.6923171621499,38.6923171621499 0 0,0 -0.6489946806000758,-0.14144536999837792 l 3.9157571272970118 -17.2535484085485" fill="#ffe515" stroke="none" /><path d="M 94.6519064749342 120.30758222061772 l -0.7442639368590739 2.8260913951425892 a23.922451262452114,23.922451262452114 0 0,0 -0.39622254687210134,-0.10799221707339285 l 0.7926678846658703 -2.8128986839250523" fill="#ff2003" stroke="none" /><path d="M 94.30408787586889 120.21278271476187 l -0.8236849258109512 2.9229672207032573 a24.03680658427795,24.03680658427795 0 0,0 -0.3961952349270325,-0.11532665867603842 l 0.8737401731195905 -2.908396867724703" fill="#ff2203" stroke="none" /><path d="M 93.95794788825049 120.11202640906438 l -0.7792404895723544 2.5938381555523384 a23.70835967289947,23.70835967289947 0 0,0 -0.38877122536244496,-0.12044231940057876 l 0.823652347806433 -2.5800792483451107" fill="#ff1d02" stroke="none" /><path d="M 93.61358852112213 120.00534299687104 l -0.8443432491671975 2.6448932021602585 a23.77639614847157,23.77639614847157 0 0,0 -0.3877559553110132,-0.1274630843226406 l 0.8896219421259542 -2.630009196435596" fill="#ff1e03" stroke="none" /><path d="M 92.59220618246901 119.65005319985036 l -1.2040818307724337 3.193970109651013 a24.413393929293893,24.413393929293893 0 0,0 -0.39087905741431994,-0.1512004164463831 l 1.258733150680282 -3.172829805066589" fill="#ff2703" stroke="none" /><path d="M 92.25597844496254 119.51999308798841 l -1.1868997224886368 2.9917626409552875 a24.218598243189007,24.218598243189007 0 0,0 -0.38512823045399974,-0.15662829853387883 l 1.2380824141330775 -2.9709470858421176" fill="#ff2403" stroke="none" /><path d="M 91.92203290615298 119.3841803445677 l -1.460548096104156 3.5047837367848174 a24.796934261040718,24.796934261040718 0 0,0 -0.3915139830602727,-0.16711403850792944 l 1.5204971543348598 -3.479195048617484" fill="#ff2c04" stroke="none" /><path d="M 91.59046798132341 119.24265499422711 l -0.897242977838428 2.05306752268658 a23.240564931884542,23.240564931884542 0 0,0 -0.3641980204355496,-0.1629011421290175 l 0.9323544011296127 -2.037362629647708" fill="#ff1602" stroke="none" /><path d="M 91.26138138417905 119.09545874513695 l -1.5905118650856322 3.475555466902621 a24.8222001251236,24.8222001251236 0 0,0 -0.3859394517806367,-0.1806391506586636 l 1.649940030737759 -3.4477400846734305" fill="#ff2d04" stroke="none" /><path d="M 90.93487009805054 118.94263497670748 l -1.9798839686642926 4.137196015975164 a25.586538063068335,25.586538063068335 0 0,0 -0.3945684813614582,-0.19300321631263648 l 2.05061269928782 -4.102599049565306" fill="#ff3805" stroke="none" /><path d="M 90.28995756902619 118.62028667847754 l -0.9501202492094165 1.8219808559097708 a23.054833990194698,23.054833990194698 0 0,0 -0.3493479059935276,-0.18600808284249573 l 0.9812569709895059 -1.805402305344702" fill="#ff1402" stroke="none" /><path d="M 89.97174638481275 118.45085714620012 l -1.1864803666123942 2.182990238498038 a23.484588907995526,23.484588907995526 0 0,0 -0.35255491152430085,-0.19555626640915236 l 1.2237794662927977 -2.1623010566557372" fill="#ff1a02" stroke="none" /><line stroke="#e1ed5e" stroke-width="0.3" x1="58.13341422392154" x2="55.67067388415222" y1="173.97424548756322" y2="178.32567169271397" /><path d="M 57.64086615596768 174.84453072859336 a86.0,86.0 0 0,1 -31.369924170532247,-30.572349798747897" fill="none" id="id32" stroke="none" /><text fill="#e1ed5e" style="font-size:6.75px; font-family:Arial;" text-anchor="middle"><textPath startOffset="22.145653131862474" xlink:href="#id32">August</textPath></text><path d="M 89.65649057296885 118.27599006163327 l -0.951318199377236 1.680888104750297 a22.93142205049994,22.93142205049994 0 0,0 -0.3409220327065809,-0.19683142735582038 l 0.9800326999442166 -1.6643097801183049" fill="#ff1202" stroke="none" /><path d="M 89.34428304082925 118.09573695890944 l -1.4400903638588938 2.4455882716575768 a23.838091304124717,23.838091304124717 0 0,0 -0.35083681753800905,-0.21066742857104812 l 1.4818599379543302 -2.42050684255061" fill="#ff1f03" stroke="none" /><path d="M 88.72937992617639 117.7192867562869 l -4.437999087350274 6.9772716973699485 a29.269108551605886,29.269108551605886 0 0,0 -0.4216345651376193,-0.27329843107790863 l 4.557119284744903 -6.900059424588146" fill="#ff6a09" stroke="none" /><path d="M 88.1277618465304 117.32195027204791 l -2.161117866769656 3.153135553406849 a24.822655392816536,24.822655392816536 0 0,0 -0.34941422781993203,-0.243918267894784 l 2.2149271857633535 -3.115572469706936" fill="#ff2d04" stroke="none" /><path d="M 87.54013794807813 116.9041958592261 l -1.3682248597487126 1.856259797441892 a23.306022485240202,23.306022485240202 0 0,0 -0.32001056780940407,-0.24014189599823887 l 1.399888416468883 -1.8324988741796382" fill="#ff1702" stroke="none" /><path d="M 87.2517909369889 116.68781488649013 l -2.315030325571281 3.0304490096446144 a24.813526793975715,24.813526793975715 0 0,0 -0.3362706173377521,-0.26148606595648083 l 2.3667108875442615 -2.9902618920673403" fill="#ff2d04" stroke="none" /><path d="M 86.96720088162412 116.46651593811092 l -9.785992876114335 12.364282315805209 a36.76835862594119,36.76835862594119 0 0,0 -0.4915565885492596,-0.39596319227011284 l 9.996800235018856 -12.194470829741686" fill="#ffcd13" stroke="none" /><path d="M 86.13680546590413 115.77377054828092 l -1.318067068267685 1.4997183694541398 a22.9966111249139,22.9966111249139 0 0,0 -0.2942854130384337,-0.26315183099287387 l 1.3436175081294897 -1.4768710085778836" fill="#ff1302" stroke="none" /><path d="M 85.60350026404147 115.28858382429668 l -1.715250807505115 1.8215369173893527 a23.50201560228134,23.50201560228134 0 0,0 -0.29134387137602363,-0.2791008383132336 l 1.746267164746453 -1.7918239487705367" fill="#ff1a02" stroke="none" /><path d="M 85.34317274990678 115.03919595460226 l -1.3946154274201696 1.430998287446551 a22.99817624074387,22.99817624074387 0 0,0 -0.2803675685669312,-0.2779712789611951 l 1.4189749161170635 -1.4068469982566965" fill="#ff1302" stroke="none" /><path d="M 85.08716467003676 114.78537596483092 l -2.682395101273401 2.65946878517874 a24.777302966228103,24.777302966228103 0 0,0 -0.2968712599137233,-0.3046160656020399 l 2.7276531623379334 -2.613030027508963" fill="#ff2c04" stroke="none" /><path d="M 84.83555147118756 114.52719865689866 l -5.736392975169084 5.495334707753153 a28.943859761841573,28.943859761841573 0 0,0 -0.3406336232997691,-0.3617411036506836 l 5.829882432205106 -5.396052144157979" fill="#ff6609" stroke="none" /><path d="M 84.3458050057657 113.99807769240083 l -1.6676160694581033 1.4911925723404098 a23.237096028988944,23.237096028988944 0 0,0 -0.26334151241100445,-0.2996343001890475 l 1.6929686458277 -1.462345994340062" fill="#ff1602" stroke="none" /><path d="M 84.1078160697243 113.72728997021213 l -1.7221326663008825 1.4875371806168516 a23.275633490713766,23.275633490713766 0 0,0 -0.2585872300571168,-0.30461510679894166 l 1.7474144598651113 -1.4577552913683556" fill="#ff1702" stroke="none" /><path d="M 83.8745106332314 113.45245675266167 l -1.5247117015195684 1.2719687296584312 a22.985610793176644,22.985610793176644 0 0,0 -0.2501635456439715,-0.30515884966209955 l 1.5463220664021697 -1.2456075982978365" fill="#ff1302" stroke="none" /><path d="M 83.20337586046588 112.60449989151573 l -3.18467513646281 2.3898395938728023 a24.981644008352145,24.981644008352145 0 0,0 -0.25445348575534416,-0.34521502263403275 l 3.2252306418019843 -2.33481826196989" fill="#ff2f04" stroke="none" /><path d="M 82.78059297857968 112.02048342749411 l -2.1657296413139733 1.5118474886773463 a23.641224660699265,23.641224660699265 0 0,0 -0.22944401048119742,-0.3347656683093943 l 2.1913633886104957 -1.474447085297901" fill="#ff1c02" stroke="none" /><path d="M 82.576782715395 111.72311816256416 l -2.4426407415220948 1.643517702488783 a23.944086315062385,23.944086315062385 0 0,0 -0.22652879919883662,-0.3429934742074805 l 2.470493979641658 -1.6013443499422415" fill="#ff2003" stroke="none" /><path d="M 82.37810715431573 111.42229804090323 l -3.1576483387405765 2.0467495035467214 a24.762967786391464,24.762967786391464 0 0,0 -0.2281521985478451,-0.3586931511901353 l 3.1923182289143117 -1.992242677677914" fill="#ff2c04" stroke="none" /><path d="M 82.18462484594161 111.11811171558189 l -3.155675789163759 1.9693750852104426 a24.71977525027547,24.71977525027547 0 0,0 -0.22157398159829814,-0.36192444700964266 l 3.1890177352174613 -1.9149135220762428" fill="#ff2b04" stroke="none" /><path d="M 81.99639281039703 110.81064883170644 l -2.5435389476318995 1.527322056243054 a23.966867547027825,23.966867547027825 0 0,0 -0.20877000762804854,-0.3545371144355816 l 2.569382665389718 -1.4834337735139136" fill="#ff2103" stroke="none" /><line stroke="#e1ed5e" stroke-width="0.3" x1="26.387840678322732" x2="22.057713659400548" y1="142.50000000000003" y2="145.00000000000006" /><path d="M 25.521815274538298 143.00000000000003 a86.0,86.0 0 0,1 -11.493303480769221,-40.785679425670985" fill="none" id="id33" stroke="none" /><text fill="#e1ed5e" style="font-size:6.75px; font-family:Arial;" text-anchor="middle"><textPath startOffset="21.40746469413373" xlink:href="#id33">September</textPath></text><path d="M 81.81346652052679 110.50000000000001 l -3.4125670597164945 1.9702465105549702 a24.940493021109937,24.940493021109937 0 0,0 -0.21088568668887095,-0.37261480170301664 l 3.4458861114267436 -1.911374938752832" fill="#ff2e04" stroke="none" /><path d="M 81.4637452351635 109.86951160357371 l -2.040821927982607 1.0866227268985043 a23.31207765707534,23.31207765707534 0 0,0 -0.18504453527922995,-0.3548472954344624 l 2.0591745322367863 -1.051429188359539" fill="#ff1702" stroke="none" /><path d="M 81.29705330413844 109.54985784667822 l -2.045644574914265 1.0445206957458966 a23.29688598121841,23.29688598121841 0 0,0 -0.17880924306424054,-0.35773826569181855 l 2.0632737311902423 -1.0092505738903252" fill="#ff1702" stroke="none" /><path d="M 80.83023694016515 108.57439118712176 l -7.194957523622046 3.218212984151085 a28.88189752395222,28.88189752395222 0 0,0 -0.19855082978651076,-0.4543231547146856 l 7.249142235425524 -3.09422775966055" fill="#ff6509" stroke="none" /><path d="M 80.68587082218212 108.24405325689762 l -2.83233179616429 1.2089540229232836 a24.07955731122277,24.07955731122277 0 0,0 -0.1590101082890054,-0.3815663742962119 l 2.852667748989781 -1.1601551391857905" fill="#ff2203" stroke="none" /><path d="M 80.41425534168474 107.57618678355246 l -3.634550611217348 1.4059222554587314 a24.89699570616835,24.89699570616835 0 0,0 -0.150768281858493,-0.3999307799790838 l 3.6581495768902768 -1.3433231952855027" fill="#ff2e04" stroke="none" /><path d="M 80.28708602549918 107.23885506374661 l -2.780307855346389 1.0209675557597677 a23.961838368381184,23.961838368381184 0 0,0 -0.1384764109438694,-0.3873431669959918 l 2.7974244363342016 -0.9730894323828544" fill="#ff2103" stroke="none" /><path d="M 80.16572619554312 106.89939002012753 l -1.979538672507956 0.6885863075303992 a23.095882739771696,23.095882739771696 0 0,0 -0.1270433884808936,-0.375581203913007 l 1.991067482561217 -0.6545034291432306" fill="#ff1402" stroke="none" /><path d="M 79.94057633289273 106.21446072829308 l -2.460330738649168 0.7622167519707438 a23.575694415206662,23.575694415206662 0 0,0 -0.1164456087245291,-0.38760955956224047 l 2.4730526673773268 -0.71986958881778" fill="#ff1b02" stroke="none" /><path d="M 79.83685265289637 105.86919833188381 l -20.783412147221767 6.049748375362139 a42.646008313000394,42.646008313000394 0 0,0 -0.19857099999263744,-0.7046584267513387 l 20.884201639288978 -5.692082024707805" fill="#eaff1a" stroke="none" /><path d="M 79.64726062577567 105.17358676015961 l -2.935434215940574 0.7461758987658845 a24.0287872998964,24.0287872998964 0 0,0 -0.09818903204847536,-0.40064475784712356 l 2.947810774505343 -0.6956753163106614" fill="#ff2203" stroke="none" /><path d="M 79.56144815229197 104.8234425847677 l -3.622200269767685 0.8548294009251813 a24.721702311979183,24.721702311979183 0 0,0 -0.0939296823000317,-0.41387151140343215 l 3.6363408136253828 -0.7925235555827229" fill="#ff2b04" stroke="none" /><path d="M 79.48165901384964 104.47187691870673 l -2.3677622277058403 0.5160427571707858 a23.423344402716822,23.423344402716822 0 0,0 -0.08225195411455205,-0.39360537598070294 l 2.376271892644759 -0.47532092990467384" fill="#ff1902" stroke="none" /><path d="M 79.407916724674 104.11899336999214 l -1.898409712292727 0.3797351105233734 a22.93601606137231,22.93601606137231 0 0,0 -0.07391263081662211,-0.3867421169374588 l 1.904648635391506 -0.3470904285526" fill="#ff1202" stroke="none" /><path d="M 79.34024301695615 103.76489593502545 l -3.82011836923089 0.6961528217121586 a24.883031432542502,24.883031432542502 0 0,0 -0.07297266819617143,-0.4208869584235706 l 3.831505854919296 -0.6304728303679954" fill="#ff2e04" stroke="none" /><path d="M 79.2786578344484 103.40968896794605 l -2.9666506407595423 0.4881612339940147 a24.006545761283796,24.006545761283796 0 0,0 -0.06342130179763922,-0.4072102529129878 l 2.974593434695449 -0.43716279914957684" fill="#ff2103" stroke="none" /><path d="M 79.17382384314188 102.69636545807758 l -3.7788059368502336 0.489242082855723 a24.810345407441638,24.810345407441638 0 0,0 -0.05105958893746764,-0.4228466428113269 l 3.7866476120473624 -0.4243017631209969" fill="#ff2d04" stroke="none" /><path d="M 79.13060592940153 102.33845913500099 l -5.753816534223633 0.6447271439725655 a26.789825368668755,26.789825368668755 0 0,0 -0.04728736820240567,-0.45746239171593406 l 5.764036294907704 -0.5458602299737" fill="#ff4806" stroke="none" /><path d="M 79.06263194458094 101.62068470465958 l -1.9220486246046093 0.14877871942946633 a22.92779823184366,22.92779823184366 0 0,0 -0.027006805117257806,-0.392673019225952 l 1.9243193908869332 -0.115762276049171" fill="#ff1202" stroke="none" /><path d="M 79.03789590574601 101.26102812881392 l -3.8961825119296916 0.2343846648430196 a24.90322614479104,24.90322614479104 0 0,0 -0.02200782355480215,-0.426945897525849 l 3.8996319249410667 -0.1674669739404398" fill="#ff2e04" stroke="none" /><path d="M 79.01933749520258 100.90099992219065 l -26.91637635675097 1.1559050147983405 a47.941184691499714,47.941184691499714 0 0,0 -0.02825176982377246,-0.8225194530343745 l 26.93225281357159 -0.6936792971998461" fill="#adff20" stroke="none" /><line stroke="#e1ed5e" stroke-width="0.3" x1="15.003131293944662" x2="10.003315487706104" y1="100.72959589197737" y2="100.7725132973878" /><path d="M 14.003168132696942 100.73817937305945 a86.0,86.0 0 0,1 10.791469493833604,-42.45332614584628" fill="none" id="id34" stroke="none" /><text fill="#e1ed5e" style="font-size:6.75px; font-family:Arial;" text-anchor="middle"><textPath startOffset="22.145653131862435" xlink:href="#id34">October</textPath></text><path d="M 79.00077361379809 99.81974689727619 l -1.863838359664425 -0.015998810676469924 a22.863907023673562,22.863907023673562 0 0,0 0.006737850120844955,-0.3924459904609514 l 1.863289077944914 0.04799171710647373" fill="#ff1101" stroke="none" /><path d="M 79.00696218219943 99.45929381324524 l -2.2035196667798207 -0.05675485019387572 a23.204250447409727,23.204250447409727 0 0,0 0.013674279156674667,-0.3981117176993576 l 2.2022207006262957 0.09457283245737189" fill="#ff1602" stroke="none" /><path d="M 79.06263194458094 98.37931529534042 l -4.132592229977189 -0.3198887749401522 a25.14495444698739,25.14495444698739 0 0,0 0.03700664044698353,-0.43007325724072154 l 4.126491966832463 0.39078307955655445" fill="#ff3104" stroke="none" /><path d="M 79.13060592940154 97.66154086499901 l -2.2239011265060675 -0.24919275983885708 a23.23781886041544,23.23781886041544 0 0,0 0.04782333576299463,-0.3960458240309769 l 2.2192957044834047 0.28733226079327023" fill="#ff1602" stroke="none" /><path d="M 79.17382384314186 97.30363454192245 l -3.8999294543710836 -0.5049239471760929 a24.932479871722553,24.932479871722553 0 0,0 0.05859783797840073,-0.42398476513136274 l 3.890687099837475 0.5717970205075226" fill="#ff2e04" stroke="none" /><path d="M 79.22317932658666 96.9465228501225 l -2.0252307922650643 -0.29763918381039356 a23.046985306659014,23.046985306659014 0 0,0 0.060886302644034045,-0.39093373986115076 l 2.0198229974827626 0.3323611056029943" fill="#ff1302" stroke="none" /><path d="M 79.2786578344484 96.59031103205396 l -3.0492802643148105 -0.5017579071057735 a24.09028657695091,24.09028657695091 0 0,0 0.07064784264313807,-0.4074779824320233 l 3.040217604179438 0.5540289224583895" fill="#ff2203" stroke="none" /><path d="M 79.34024301695615 96.23510406497455 l -0.6874154534285956 -0.12526999462825683 a21.698736414656203,21.698736414656203 0 0,0 0.06992542599866247,-0.3658793764975226 l 0.6851637351477738 0.13705193615909395" fill="#ff0000" stroke="none" /><path d="M 79.407916724674 95.88100663000787 l -22.960556354834274 -4.592754318851007 a44.41539109980538,44.41539109980538 0 0,0 0.15596631496812824,-0.7463552775640848 l 22.87833232904178 4.986226047700501" fill="#d5ff1c" stroke="none" /><path d="M 79.56144815229197 95.17655741523228 l -2.3478847798039544 -0.5540944150749276 a23.412381304862954,23.412381304862954 0 0,0 0.09567020713875563,-0.39036709266436004 l 2.3380270461489006 0.5943173323474054" fill="#ff1902" stroke="none" /><path d="M 79.64726062577567 94.8264132398404 l -2.425984720755661 -0.6166758292766328 a23.503136221573637,23.503136221573637 0 0,0 0.10275405424856834,-0.39017388072489234 l 2.4150411857023673 0.6582302143743097" fill="#ff1a02" stroke="none" /><path d="M 79.73907114497095 94.47779374421319 l -1.7709803020003667 -0.48268855650979575 a22.835581508040114,22.835581508040114 0 0,0 0.10632845686714058,-0.3773221826836572 l 1.762433353058644 0.513018663096466" fill="#ff1001" stroke="none" /><path d="M 79.83685265289637 94.1308016681162 l -2.2969294748806823 -0.6686026943289163 a23.39226139362728,23.39226139362728 0 0,0 0.11553959215162114,-0.38459372505695033 l 2.2851135627254315 0.7079340229765901" fill="#ff1802" stroke="none" /><path d="M 79.94057633289273 93.78553927170692 l -1.7311040547279632 -0.5363004612309088 a22.812274657167638,22.812274657167638 0 0,0 0.11909667694313558,-0.37306864424802183 l 1.7216426620075704 0.5659381391703223" fill="#ff1001" stroke="none" /><path d="M 80.28708602549916 92.7611449362534 l -1.954467310894167 -0.7177074687534469 a23.08207744333835,23.08207744333835 0 0,0 0.13977771450531287,-0.3707769943168219 l 1.9418589125744181 0.7511527432644137" fill="#ff1402" stroke="none" /><path d="M 80.41425534168474 92.42381321644754 l -3.443058419342506 -1.3318489619207314 a24.691676168947467,24.691676168947467 0 0,0 0.1563116260574796,-0.39400740797647216 l 3.419688118318895 1.3907573871107866" fill="#ff2b04" stroke="none" /><path d="M 80.5471966667186 92.08871423366112 l -3.017088195660411 -1.2270235034597912 a24.257055089868167,24.257055089868167 0 0,0 0.16018222041045632,-0.3843790166952595 l 2.9955801307134764 1.2786350295963143" fill="#ff2503" stroke="none" /><path d="M 80.83023694016515 91.42560881287825 l -2.2468667966359415 -1.0049949391433766 a23.46138685084829,23.46138685084829 0 0,0 0.16759869065108454,-0.3662333858205668 l 2.2292836411298103 1.0434173071786148" fill="#ff1902" stroke="none" /><path d="M 80.9802524753101 91.09779779509293 l -4.223804014788915 -1.9769535512886502 a25.663567915158925,25.663567915158925 0 0,0 0.19018016582635267,-0.3974034018292018 l 4.189244591002657 2.0491694551829394" fill="#ff3905" stroke="none" /><path d="M 81.1358732173502 90.77261029715801 l -1.6363175815182782 -0.800404926040268 a22.821588118432746,22.821588118432746 0 0,0 0.1751612168368963,-0.3504397695212363 l 1.622336451469638 0.8283765517252747" fill="#ff1001" stroke="none" /><path d="M 81.29705330413844 90.45014215332179 l -2.8011244463597516 -1.430274101113166 a24.145152169340825,24.145152169340825 0 0,0 0.19165724000006384,-0.3675280286544596 l 2.7761591373847474 1.478148372872112" fill="#ff2303" stroke="none" /><path d="M 81.46374523516351 90.13048839642627 l -1.7017449283538546 -0.9060833231841514 a22.927932257557433,22.927932257557433 0 0,0 0.18795953151632022,-0.3458243676667938 l 1.6859400472221837 0.9351625243255649" fill="#ff1202" stroke="none" /><path d="M 81.63589988554816 89.8137432299009 l -2.198319193431683 -1.2193705995596342 a23.513855989367837,23.513855989367837 0 0,0 0.19882268016210358,-0.3513006250251793 l 2.1770631482482106 1.2569279946839187" fill="#ff1a02" stroke="none" /><line stroke="#e1ed5e" stroke-width="0.3" x1="26.387840678322718" x2="22.05771365940052" y1="57.49999999999999" y2="54.99999999999999" /><path d="M 25.521815274538284 56.99999999999999 a86.0,86.0 0 0,1 29.574782752854787,-30.34633250058573" fill="none" id="id35" stroke="none" /><text fill="#e1ed5e" style="font-size:6.75px; font-family:Arial;" text-anchor="middle"><textPath startOffset="21.40746469413373" xlink:href="#id35">November</textPath></text><path d="M 81.81346652052679 89.5 l -2.113958549594416 -1.2204945376640473 a23.440989075328094,23.440989075328094 0 0,0 0.2041891982113401,-0.34675789858541883 l 2.0926956412532967 1.2566036045430389" fill="#ff1902" stroke="none" /><path d="M 81.99639281039701 89.18935116829357 l -1.8009792937349918 -1.0814363195497492 a23.100721525977086,23.100721525977086 0 0,0 0.207061706446847,-0.3382197361895601 l 1.7821496228327518 1.1121931718638522" fill="#ff1402" stroke="none" /><path d="M 82.18462484594161 88.88188828441811 l -3.2551136622365924 -2.0314316724011836 a24.836988349436833,24.836988349436833 0 0,0 0.22883418280523413,-0.3597653437173251 l 3.2197617878054685 2.087010690797181" fill="#ff2d04" stroke="none" /><path d="M 82.37810715431573 88.57770195909679 l -2.4938733031620406 -1.616498544987179 a23.971947442026863,23.971947442026863 0 0,0 0.22679238610511818,-0.343392578379055 l 2.4657564781361936 1.6590710017052952" fill="#ff2103" stroke="none" /><path d="M 82.576782715395 88.27688183743585 l -1.7242123420649789 -1.1601270128932721 a23.078172968396487,23.078172968396487 0 0,0 0.22397945269098138,-0.3267927151831802 l 1.704043152558684 1.1895544631464872" fill="#ff1402" stroke="none" /><path d="M 82.78059297857968 87.97951657250589 l -1.9706923668651097 -1.375696323753969 a23.403366135238365,23.403366135238365 0 0,0 0.23279094424886898,-0.32744961629467767 l 1.9467863240862684 1.4093231667581672" fill="#ff1902" stroke="none" /><path d="M 82.98947788004972 87.6856937992154 l -2.3166229214683316 -1.6770563422776688 a23.859940512571235,23.859940512571235 0 0,0 0.24302824230901007,-0.3297144856175436 l 2.2874926595755025 1.7165771371640757" fill="#ff1f03" stroke="none" /><path d="M 83.2033758604659 87.39550010848427 l -1.9556927360757363 -1.4675882888684124 a23.445107249910137,23.445107249910137 0 0,0 0.24432930296947813,-0.3198349006630371 l 1.9302114557519514 1.5009441027723338" fill="#ff1902" stroke="none" /><path d="M 83.42222388311158 87.10902102172516 l -2.6142038719171428 -2.03282074267353 a24.3115588558548,24.3115588558548 0 0,0 0.25901484949943554,-0.3272568009949772 l 2.5789225917761454 2.0773974875831898" fill="#ff2603" stroke="none" /><path d="M 83.64595745247003 86.82634096563983 l -2.556261138987852 -2.0591430253370144 a24.28245959754169,24.28245959754169 0 0,0 0.264277779891791,-0.32237592050205505 l 2.520536539857431 2.1027212275375624" fill="#ff2503" stroke="none" /><path d="M 84.10781606972428 86.27271002978789 l -1.5497598116820321 -1.338645614251426 a23.047859261389636,23.047859261389636 0 0,0 0.2611969287452485,-0.29719415765321094 l 1.5265518189781913 1.365052049715937" fill="#ff1402" stroke="none" /><path d="M 84.58840730492382 85.73525988315684 l -1.4298474122760785 -1.3234454184203408 a22.94832528031907,22.94832528031907 0 0,0 0.2700735580263475,-0.28680875951385765 l 1.4069180205134595 1.3477956378787095" fill="#ff1202" stroke="none" /><path d="M 85.08716467003674 85.21462403516908 l -2.3869237185908805 -2.366522783754591 a24.36122521179425,24.36122521179425 0 0,0 0.29698430903584055,-0.2944459968606952 l 2.3459474894250634 2.407148790843959" fill="#ff2603" stroke="none" /><path d="M 85.34317274990677 84.96080404539775 l -3.2903362002863084 -3.3761748042921376 a25.714325892431663,25.714325892431663 0 0,0 0.3187688827250607,-0.30537337880675686 l 3.2318948316959473 3.432160313404463" fill="#ff3905" stroke="none" /><path d="M 85.60350026404147 84.71141617570332 l -1.5789132972274917 -1.6767512061050267 a23.303141725412583,23.303141725412583 0 0,0 0.29358654930456024,-0.2717393270436166 l 1.5498969766089783 1.703608279281009" fill="#ff1702" stroke="none" /><path d="M 85.86807049272753 84.46653392183569 l -1.9953486967690124 -2.1932377513927266 a23.965081492275047,23.965081492275047 0 0,0 0.30667883485722675,-0.27423410520487 l 1.9574048350883937 2.2271673864809975" fill="#ff2103" stroke="none" /><path d="M 86.13680546590413 84.22622945171909 l -1.462078183414126 -1.663576582735004 a23.214759504108702,23.214759504108702 0 0,0 0.3015934650043472,-0.2605092519316114 l 1.4333052386469303 1.6884299671313259" fill="#ff1602" stroke="none" /><path d="M 86.40962598614128 83.9905735841838 l -1.4204715888693074 -1.6733119599630395 a23.1949288029775,23.1949288029775 0 0,0 0.30575960047387435,-0.2550755334323339 l 1.391537654233524 1.6974496773072552" fill="#ff1602" stroke="none" /><path d="M 86.68645165197937 83.75963576809568 l -1.5483238598044073 -1.888703355023304 a23.442234046547526,23.442234046547526 0 0,0 0.31339948332001205,-0.25245243937719986 l 1.5156736061291498 1.9150040881939028" fill="#ff1902" stroke="none" /><path d="M 86.96720088162412 83.53348406188908 l -1.7966143235368528 -2.2699635070293827 a23.894919230442003,23.894919230442003 0 0,0 0.323821732701326,-0.25180573796679157 l 1.7573826462002822 2.300470296616979" fill="#ff2003" stroke="none" /><path d="M 87.25179093698888 83.31218511350988 l -16.02807250586001 -20.981261418210256 a47.40288694352161,47.40288694352161 0 0,0 0.6508800365317132,-0.48843251368256174 l 15.665539480417543 21.25331295915682" fill="#b3ff20" stroke="none" /><path d="M 88.72937992617638 82.28071324371311 l -1.855822994986001 -2.917661992124279 a24.457865018910574,24.457865018910574 0 0,0 0.35619487885726053,-0.22229194846626843 l 1.805463987339042 2.9490897374320837" fill="#ff2803" stroke="none" /><path d="M 89.03521579738668 82.08984904055464 l -2.7319932298114717 -4.462505623634999 a26.232374551645716,26.232374551645716 0 0,0 0.3860746519823835,-0.23182673568967518 l 2.6549858212716537 4.508746359860598" fill="#ff4106" stroke="none" /><line stroke="#e1ed5e" stroke-width="0.3" x1="56.869717070023135" x2="54.33264160355391" y1="26.7553504044142" y2="22.446841604673864" /><path d="M 56.362301976729285 25.89364864446614 a86.0,86.0 0 0,1 42.16139366436587,-11.88097634709845" fill="none" id="id36" stroke="none" /><text fill="#e1ed5e" style="font-size:6.75px; font-family:Arial;" text-anchor="middle"><textPath startOffset="22.145653131862474" xlink:href="#id36">December</textPath></text><path d="M 89.34428304082924 81.90426304109057 l -1.4601388354069882 -2.479634959360767 a23.877602291899933,23.877602291899933 0 0,0 0.3549889183316639,-0.20495294755811913 l 1.4173574492149246 2.50433480419506" fill="#ff1f03" stroke="none" /><path d="M 90.28995756902619 81.37971332152246 l -1.2878045856567408 -2.469535096396238 a23.785147077475678,23.785147077475678 0 0,0 0.3636553930531516,-0.18568503484020335 l 1.245221970890007 2.4912780829092758" fill="#ff1e03" stroke="none" /><path d="M 90.61103034731259 81.2157712731953 l -1.5663905649265462 -3.1338304132943082 a24.50349432155659,24.50349432155659 0 0,0 0.3778669282524564,-0.1848336497615232 l 1.5123633874120368 3.1602578131530454" fill="#ff2803" stroke="none" /><path d="M 91.26138138417902 80.90454125486306 l -1.0383514413315802 -2.2689852919090794 a23.49528915571224,23.49528915571224 0 0,0 0.3681897503417439,-0.1646865921433058 l 0.9992482881342174 2.2864756349622306" fill="#ff1a02" stroke="none" /></svg>