<?xml version="1.0" encoding="utf-8" ?>
<svg baseProfile="full" height="200mm" version="1.1" viewBox="0,0,200,200" width="200mm" xmlns="http://www.w3.org/2000/svg" xmlns:ev="http://www.w3.org/2001/xml-events" xmlns:xlink="http://www.w3.org/1999/xlink"><defs /><rect fill="#1a1a1a" height="200" width="200" x="0" y="0" /><text alignment-baseline="middle" fill="#e1ed5e" style="dominant-baseline: central; font-size:9.0px; font-family:Arial;" text-anchor="middle" x="100.0" y="100.0">2023</text><line stroke="#e1ed5e" stroke-width="0.3" x1="100.0" x2="100.0" y1="15.0" y2="10.0" /><path d="M 100.0 14.0 a86.0,86.0 0 0,1 42.46469731375804,11.215312516191453" fill="none" id="id13" stroke="none" /><text fill="#e1ed5e" style="font-size:6.75px; font-family:Arial;" text-anchor="middle"><textPath startOffset="22.20632615414155" xlink:href="#id13">January</textPath></text><path d="M 100.72285384407766 79.0124445844662 l 0.1257858896455414 -3.652105264510975 a24.654270782673706,24.654270782673706 0 0,0 0.42400551971040285,0.018258569598033153 l -0.18863224174527576 3.649398968388747" fill="#ff2b04" stroke="none" /><path d="M 101.08401301168833 79.027996857942 l 0.18812456592242974 -3.63957714998152 a24.644435852497764,24.644435852497764 0 0,0 0.42345941621518596,0.02554422840360452 l -0.25074603097722764 3.6357996521976115" fill="#ff2b04" stroke="none" /><path d="M 101.44485096284872 79.0497635885617 l 0.2517582186558687 -3.650476301696786 a24.659147363787174,24.659147363787174 0 0,0 0.4232094586604123,0.03284919915037916 l -0.31455786667862223 3.6456018403579424" fill="#ff2b04" stroke="none" /><path d="M 102.16513564639614 79.11191278185805 l 0.4220747795667705 -4.0719549478775265 a25.0937713928712,25.0937713928712 0 0,0 0.4292627723254512,0.048232674099998055 l -0.4921042554019469 4.064086320306928" fill="#ff3104" stroke="none" /><path d="M 102.52436894288641 79.15227682838746 l 0.9654509608140764 -7.9732617625239595 a29.031500401012472,29.031500401012472 0 0,0 0.49558882395626336,0.06434165284400754 l -1.102554513278186 7.955461786515816" fill="#ff6709" stroke="none" /><path d="M 102.88285421437855 79.19881850522331 l 2.01124792171813 -14.512122341111734 a35.65082977329304,35.65082977329304 0 0,0 0.6071353619232012,0.08947597015670933 l -2.260752264069987 14.475351886794055" fill="#ffbf11" stroke="none" /><path d="M 103.2404852339499 79.25152402106235 l 0.5720226642064173 -3.6625991636529847 a24.706999131636984,24.706999131636984 0 0,0 0.41963166639081356,0.0692428204973469 l -0.6349835367361061 3.652210080216013" fill="#ff2b04" stroke="none" /><path d="M 103.95276090670814 79.375362276772 l 0.7385000371673254 -3.853330895708331 a24.92346037277255,24.92346037277255 0 0,0 0.4206529308774092,0.084379020636695 l -0.80471937751186 3.840047918994428" fill="#ff2f04" stroke="none" /><path d="M 104.307194497241 79.44645832069477 l 0.6193924137663439 -2.955684448507431 a24.019887004737093,24.019887004737093 0 0,0 0.4039427552730013,0.08828624066800543 l -0.6701778931928731 2.944584709743555" fill="#ff2203" stroke="none" /><path d="M 105.01212808612495 79.60689891045804 l 8.007382711979725 -32.58004630011409 a54.54962883272615,54.54962883272615 0 0,0 0.9099166716969068,0.23195801975537064 l -8.567008272361656 32.43738528418986" fill="#66ff29" stroke="none" /><path d="M 105.36241919743992 79.69619591428918 l 1.740078352832815 -6.588483419306509 a27.814395530087328,27.814395530087328 0 0,0 0.4618542110146683,0.12624220251420473 l -1.853230453071194 6.557554675966011" fill="#ff5708" stroke="none" /><path d="M 106.0581310904928 79.89281104454417 l 2.447953279620737 -8.124858708440081 a29.485623388491888,29.485623388491888 0 0,0 0.48470802325954077,0.15060114226449697 l -2.587446675590996 8.081517431293065" fill="#ff6e0a" stroke="none" /><path d="M 107.4271985657038 80.35727306442388 l 12.729061115418185 -33.66457344913143 a56.99072800586307,56.99072800586307 0 0,0 0.9146111798524195,0.35485492844552113 l -13.306655460270271 33.44047581679536" fill="#4dff2c" stroke="none" /><path d="M 107.76421540070413 80.48803036053334 l 1.8832645411649929 -4.732764182065704 a26.09369631358736,26.09369631358736 0 0,0 0.4159038599152247,0.1696576271834296 l -1.9644522706686052 4.699645668698695" fill="#ff3f05" stroke="none" /><path d="M 108.09893153111575 80.62456947434976 l 1.1720838333145918 -2.804027765313889 a24.039136755884577,24.039136755884577 0 0,0 0.38040931393715594,0.16287141547591824 l -1.220176905042063 2.7834368218751804" fill="#ff2203" stroke="none" /><path d="M 108.43124777332544 80.76684994638697 l 1.3754059541563504 -3.137541418793841 a24.42577110930891,24.42577110930891 0 0,0 0.3836217181946471,0.1721198826492568 l -1.4292097908177777 3.113401205628053" fill="#ff2803" stroke="none" /><path d="M 108.76106565485865 80.91482961587045 l 1.599965226460618 -3.485376112750519 a24.835066540911004,24.835066540911004 0 0,0 0.38697975695287645,0.18169218472140689 l -1.6597231947130924 3.457318945389109" fill="#ff2d04" stroke="none" /><path d="M 109.08828744355905 81.06846463323043 l 0.9237676329072991 -1.9242722814027708 a23.134518787123266,23.134518787123266 0 0,0 0.35751505096707026,0.17543108283872216 l -0.9567539508848012 1.9080860384292166" fill="#ff1502" stroke="none" /><path d="M 109.41281617654863 81.2277094730956 l 2.7955674314539087 -5.575292561385928 a27.23691305124988,27.23691305124988 0 0,0 0.41729481546174263,0.21375461229807086 l -2.8911227345044073 5.526345423775357" fill="#ff4f07" stroke="none" /><path d="M 109.73455568895987 81.39251694778311 l 18.883668689690108 -36.0958996316176 a61.7370459581668,61.7370459581668 0 0,0 0.937388710308133,0.5007205852197478 l -19.50220244652655 35.7655003198961" fill="#31ff44" stroke="none" /><path d="M 110.36928655335952 81.73862282372117 l 2.037268205391452 -3.5878382679896696 a25.125899317476133,25.125899317476133 0 0,0 0.3742601622025577,0.21679564276966035 l -2.098725100059338 3.5522384678299597" fill="#ff3104" stroke="none" /><line stroke="#e1ed5e" stroke-width="0.3" x1="143.23703022742887" x2="145.7803849466894" y1="26.81831364943548" y2="22.513508569990506" /><path d="M 143.74570117128098 25.957352633546492 a86.0,86.0 0 0,1 28.547481713284135,27.462654790039103" fill="none" id="id14" stroke="none" /><text fill="#e1ed5e" style="font-size:6.75px; font-family:Arial;" text-anchor="middle"><textPath startOffset="19.985693538727396" xlink:href="#id14">February</textPath></text><path d="M 110.68208982089419 81.91981866633111 l 1.9630215810610117 -3.322550806310059 a24.85911875798386,24.85911875798386 0 0,0 0.3665393413272615,0.22083585191299254 l -2.0199229886059107 3.288268344938452" fill="#ff2e04" stroke="none" /><path d="M 110.99172775467656 82.1063720568725 l 1.2442763727481692 -2.0255795057248602 a23.37722443740424,23.37722443740424 0 0,0 0.34106351611027397,0.21357394249902645 l -1.2789590412307064 2.0038612219028895" fill="#ff1902" stroke="none" /><path d="M 111.2981086023043 82.29822771554956 l 3.7282281727779414 -5.841353492170157 a27.92972553055196,27.92972553055196 0 0,0 0.40302989507389925,0.26214185476194707 l -3.8282250936361204 5.776312713248681" fill="#ff5808" stroke="none" /><path d="M 111.60114157652 82.49532879139004 l 15.717068431455647 -23.715089885006172 a49.45051367432549,49.45051367432549 0 0,0 0.705482940762525,0.4763452308108461 l -16.122956066624713 23.441032741896656" fill="#9cff22" stroke="none" /><path d="M 111.90073688211348 82.69761687909136 l 12.38423567622701 -18.00533802673663 a42.8531803347106,42.8531803347106 0 0,0 0.6041662984244793,0.42325710177092485 l -12.692333114235142 17.789496082201772" fill="#e7ff1a" stroke="none" /><path d="M 114.42810811169701 84.74124197986012 l 1.829379100085648 -1.9346994629654848 a23.66264716097141,23.66264716097141 0 0,0 0.2935483850438139,0.2823933138340683 l -1.8624107287418803 1.9029230623691147" fill="#ff1d02" stroke="none" /><path d="M 114.68862486808459 84.99185889309783 l 3.733374332562661 -3.81458504735397 a26.33752217705315,26.33752217705315 0 0,0 0.3212728711457246,0.31989322333684267 l -3.7984830038757083 3.749755973367009" fill="#ff4206" stroke="none" /><path d="M 114.94478906791727 85.2469230424477 l 9.63330572867931 -9.50972945318669 a34.53645202905887,34.53645202905887 0 0,0 0.4140028181246375,0.4266662959525607 l -9.795572810507057 9.342498961684015" fill="#ffb010" stroke="none" /><path d="M 115.4437574822437 85.77008943001954 l 24.810910660718825 -22.86082517597985 a54.737199284186076,54.737199284186076 0 0,0 0.6324918810083396,0.6984133324223283 l -25.200746182343202 22.430359056287976" fill="#64ff29" stroke="none" /><path d="M 115.68641384162765 86.03803664274999 l 25.59933395470117 -22.785128981938005 a55.27080392473844,55.27080392473844 0 0,0 0.6264238590800547,0.716110759241828 l -25.987749677359073 22.34110266649323" fill="#5eff2a" stroke="none" /><path d="M 116.15771136456269 86.58626213691792 l 2.0340366212804732 -1.6886075896618078 a23.643615056806407,23.643615056806407 0 0,0 0.2572667472973899,0.3153786126239874 l -2.062801860654272 1.6533448074297195" fill="#ff1c02" stroke="none" /><path d="M 116.38621287248628 86.86637796730983 l 2.5706068528078867 -2.0603527527773036 a24.29440025764628,24.29440025764628 0 0,0 0.25873064200188284,0.3285616408343242 l -2.6056915754037333 2.015798717989941" fill="#ff2603" stroke="none" /><path d="M 116.60985879189232 87.15038557335679 l 2.411094605751477 -1.8652558349977482 a24.048369486771087,24.048369486771087 0 0,0 0.2504741431017678,0.3295946120728921 l -2.4428446890773583 1.8234764470438225" fill="#ff2203" stroke="none" /><path d="M 116.82858285166822 87.43820079747576 l 2.494463346399903 -1.862007511370813 a24.11278321746535,24.11278321746535 0 0,0 0.24541920428220562,0.3347515188332793 l -2.5261451631957352 1.8187935488660398" fill="#ff2303" stroke="none" /><path d="M 117.04232023915458 87.72973835380427 l 43.69344757597782 -31.458746605983304 a74.84022751711018,74.84022751711018 0 0,0 0.7437243339917655,1.0519453272471546 l -44.22848452977347 30.701974778404356" fill="#42ffd4" stroke="none" /><path d="M 117.2510076193507 88.02491185347247 l 7.27980549610274 -5.053404092617697 a29.861854263322826,29.861854263322826 0 0,0 0.2894829970370646,0.42478057782623024 l -7.365712958808538 4.92734549152106" fill="#ff730a" stroke="none" /><path d="M 117.65298651832404 88.62581576622439 l 10.873061258222839 -7.005738196637787 a33.934598130784586,33.934598130784586 0 0,0 0.3121537091119599,0.49375220393973007 l -10.992042563580755 6.817538344983851" fill="#ffa90f" stroke="none" /><line stroke="#e1ed5e" stroke-width="0.3" x1="172.23445277983987" x2="176.4835382374775" y1="55.19839476539836" y2="52.563006222186495" /><path d="M 173.08426987136738 54.67131705675599 a86.0,86.0 0 0,1 12.851231095245387,41.99856678651699" fill="none" id="id15" stroke="none" /><text fill="#e1ed5e" style="font-size:6.75px; font-family:Arial;" text-anchor="middle"><textPath startOffset="22.20632615414155" xlink:href="#id15">March</textPath></text><path d="M 117.84615892207809 88.93136811851018 l 2.5312196380011374 -1.5699254112083223 a23.978546399262605,23.978546399262605 0 0,0 0.21453285945153305,0.35263561332102805 l -2.5578682957388947 1.5261220246802127" fill="#ff2103" stroke="none" /><path d="M 118.03404312379186 89.2402003453031 l 2.555660160600958 -1.5248045668294354 a23.97597510465172,23.97597510465172 0 0,0 0.20840868097592635,0.3562379924543717 l -2.5815285160472117 1.4805871620211686" fill="#ff2103" stroke="none" /><path d="M 118.21658344932153 89.55222093294921 l 2.1126484230446327 -1.2116697970137569 a23.43545212566134,23.43545212566134 0 0,0 0.19768625080561497,0.3516617817585512 l -2.133192315142681 1.1751245053204118" fill="#ff1902" stroke="none" /><path d="M 118.3937258080291 89.86733742301442 l 27.65082323509699 -15.23217562016773 a52.56876937262857,52.56876937262857 0 0,0 0.42979199692060716,0.7963392962020649 l -27.908923331236064 14.753955340633206" fill="#7aff26" stroke="none" /><path d="M 118.56541770881063 90.18545643968196 l 47.88518065789005 -25.314334362513463 a75.16461991794918,75.16461991794918 0 0,0 0.5948405138318278,1.1490425387902423 l -48.31383060488199 24.486319101462875" fill="#42ffd8" stroke="none" /><path d="M 119.04729006885535 91.15688171328212 l 2.2007673736740525 -1.0217540729728933 a23.426387936556083,23.426387936556083 0 0,0 0.16665943236377512,0.36721196766866976 l -2.2180291230011746 0.9837200964621609" fill="#ff1902" stroke="none" /><path d="M 119.196687751892 91.48605970444005 l 2.8864877631196477 -1.2801887907273446 a24.157640724741086,24.157640724741086 0 0,0 0.16531797144895663,0.38157667110314947 l -2.908096444411285 1.2303129750375923" fill="#ff2403" stroke="none" /><path d="M 119.34039704204932 91.81776055985345 l 2.424175896374518 -1.0255832693632456 a23.632194867208923,23.632194867208923 0 0,0 0.1552728753787691,0.376005583863687 l -2.441470458639485 0.9837031150462555" fill="#ff1c02" stroke="none" /><path d="M 119.47837535516314 92.15188598940014 l 26.450661177190668 -10.657346970126763 a49.51695147017317,49.51695147017317 0 0,0 0.3117362083119862,0.7933346474603292 l -26.630190935384356 10.20046331777065" fill="#9bff22" stroke="none" /><path d="M 119.97218684219823 93.5106431181261 l 4.049307395000397 -1.31569972873719 a25.25769376017158,25.25769376017158 0 0,0 0.13079217567050744,0.4146469390605535 l -4.07135505443911 1.2458026232502175" fill="#ff3304" stroke="none" /><path d="M 120.08093135843002 93.85539295169968 l 3.481748572992396 -1.0653876775011935 a24.64110203494848,24.64110203494848 0 0,0 0.1206171418029303,0.40666104016635357 l -3.4995716119070286 1.00529725058831" fill="#ff2b04" stroke="none" /><path d="M 120.28053869075195 94.5502522615342 l 31.344560465755624 -8.422850601564695 a53.456522966080165,53.456522966080165 0 0,0 0.23114516051330886,0.8906965935029247 l -31.484901958139236 7.88205758251292" fill="#71ff27" stroke="none" /><path d="M 120.37134235888165 94.90015583598534 l 52.34777077345881 -13.104952465825448 a74.96321788109131,74.96321788109131 0 0,0 0.3025915268199133,1.2544372307499603 l -52.56559510053955 12.20193000341608" fill="#42ffd6" stroke="none" /><path d="M 120.45610955862082 95.25157060432595 l 0.6587132776952613 -0.15290558950936065 a21.67622725582103,21.67622725582103 0 0,0 0.08124003588821595,0.36418315131665424 l -0.6612477005855149 0.14154426864274253" fill="#ff0000" stroke="none" /><path d="M 120.53481517161879 95.60439243477599 l 3.1738757871979253 -0.6793882635267345 a24.245775088508,24.245775088508 0 0,0 0.08384501228638473,0.4088580568584472 l -3.185100095399307 0.6246545505048755" fill="#ff2503" stroke="none" /><path d="M 120.6074358757038 95.95851677861258 l 3.113368052115158 -0.6105866261344048 a24.17267657600732,24.17267657600732 0 0,0 0.076563242076868,0.4090039006601236 l -3.1234170181018848 0.5569046480117184" fill="#ff2403" stroke="none" /><path d="M 120.67395015179393 96.31383870115 l 3.266269582698268 -0.582375232548799 a24.317782075174044,24.317782075174044 0 0,0 0.06992883768936421,0.41272395848716215 l -3.2758102819078556 0.5260654857457989" fill="#ff2603" stroke="none" /><path d="M 120.73433829027371 96.67025291283417 l 3.2749683126307176 -0.5259302730995701 a24.316929318043705,24.316929318043705 0 0,0 0.06281190976937978,0.4138520058175153 l -3.2835361158393974 0.4694791548899726" fill="#ff2603" stroke="none" /><path d="M 120.83666639777658 97.38593545837742 l 38.56292001856067 -4.837912164908663 a59.86520544746005,59.86520544746005 0 0,0 0.11947283941288937,1.0235703272561747 l -38.640483210977145 4.173398099327636" fill="#31ff2f" stroke="none" /><path d="M 120.87857604477298 97.74499172005257 l 1.2941572622522153 -0.13977655064572547 a22.301683718708414,22.301683718708414 0 0,0 0.03793715450276704,0.3820219685766632 l -1.2963715424372109 0.11747905136462729" fill="#ff0901" stroke="none" /><path d="M 120.94382443527127 98.46500227214037 l 3.3434779775048953 -0.24504746563744118 a24.352445860334743,24.352445860334743 0 0,0 0.02704212595523687,0.41832971939925967 l -3.3472006944645476 0.18745868198514623" fill="#ff2603" stroke="none" /><line stroke="#e1ed5e" stroke-width="0.3" x1="184.98032266829074" x2="189.97916517819016" y1="98.17113171792111" y2="98.06355123074" /><path d="M 185.9800911702706 98.14961562048488 a86.0,86.0 0 0,1 -9.607161424134198,41.387399972396054" fill="none" id="id16" stroke="none" /><text fill="#e1ed5e" style="font-size:6.75px; font-family:Arial;" text-anchor="middle"><textPath startOffset="21.466115282336823" xlink:href="#id16">April</textPath></text><path d="M 120.99513854157772 99.54816195383933 l 8.550754926952111 -0.18402147676908873 a29.552734868140604,29.552734868140604 0 0,0 0.006567733489602459,0.508678196665959 l -8.55265566755943 0.036807022042666934" fill="#ff6f0a" stroke="none" /><path d="M 120.99980553446 99.90962569577887 l 62.99941660337998 -0.27112291266339017 a84.0,84.0 0 0,0 -0.006222810841987947,1.4459620871852612 l -62.994749495248485 -0.8133486527255557" fill="#4dd2ff" stroke="none" /><path d="M 120.92983693683757 101.71520430193887 l 55.41115902650808 4.540955508850992 a76.59691377760399,76.59691377760399 0 0,0 -0.1190002493297324,1.3131578352227549 l -55.324784180901275 -5.494094732622317" fill="#44ffe6" stroke="none" /><path d="M 120.89721153311464 102.0752229133903 l 3.155681069961511 0.31337873253370285 a24.171203122683544,24.171203122683544 0 0,0 -0.044679546436817284,0.4136771098458229 l -3.149819222023642 -0.3676521642643172" fill="#ff2403" stroke="none" /><path d="M 120.8583938346157 102.4346265915055 l 32.83955878490705 3.8330881900579516 a54.06250423455742,54.06250423455742 0 0,0 -0.11584433794718887,0.923393353699918 l -32.76871293771301 -4.397799298045265" fill="#6bff28" stroke="none" /><path d="M 120.5718875245553 104.21870165774334 l 15.53639129424274 3.1860664039766013 a36.85971227917991,36.85971227917991 0 0,0 -0.1328107410449808,0.620447567189821 l -15.479246514473317 -3.4530277905825915" fill="#ffce13" stroke="none" /><path d="M 120.49622156327973 104.57218783832717 l 23.89413472009104 5.330176190633919 a45.48143076384754,45.48143076384754 0 0,0 -0.17702982910979248,0.7626398705039009 l -23.798844325050695 -5.740684718486385" fill="#c8ff1d" stroke="none" /><path d="M 120.41448212921028 104.9243191809786 l 34.74191646081333 8.380339238052343 a56.73836657032568,56.73836657032568 0 0,0 -0.23718983953590222,0.9474555044894604 l -34.59251530698237 -8.9771225819392" fill="#4fff2b" stroke="none" /><path d="M 120.32669344350535 105.2749913415812 l 1.3520199715061936 0.35086344284976545 a22.396804624448244,22.396804624448244 0 0,0 -0.10005177741032711,0.3723298839186044 l -1.3457801177540893 -0.3740842599439181" fill="#ff0a01" stroke="none" /><path d="M 120.23288151984713 105.62410040840565 l 3.191151604575158 0.887039101423608 a24.312142347610834,24.312142347610834 0 0,0 -0.11554908663642068,0.40224152919742223 l -3.1754098810526377 -0.9418381061256121" fill="#ff2603" stroke="none" /><path d="M 119.9155931802556 106.66101706037122 l 3.0341155493641443 1.0147975636241022 a24.199323563197492,24.199323563197492 0 0,0 -0.13552677790493106,0.3939042552702476 l -3.0161979405159824 -1.0668745219836502" fill="#ff2403" stroke="none" /><path d="M 119.79798401119884 107.00284435728193 l 18.592298032566276 6.576375114386031 a40.72111193053991,40.72111193053991 0 0,0 -0.23943187563391877,0.6588136898457548 l -18.47634189592713 -6.8954366012379165" fill="#fffe18" stroke="none" /><path d="M 119.67450827220406 107.3425965602758 l 47.06153798694584 17.563533591964376 a71.23212189359322,71.23212189359322 0 0,0 -0.4386057541682957,1.1450612207498059 l -46.75223795318403 -18.371018379547323" fill="#3dffaf" stroke="none" /><line stroke="#e1ed5e" stroke-width="0.3" x1="174.80103733775053" x2="179.2010983576182" y1="140.37084112569926" y2="142.7455964860345" /><path d="M 175.68104954172406 140.8457921977663 a86.0,86.0 0 0,1 -30.038265399797805,32.042727171017184" fill="none" id="id17" stroke="none" /><text fill="#e1ed5e" style="font-size:6.75px; font-family:Arial;" text-anchor="middle"><textPath startOffset="22.206326154141568" xlink:href="#id17">May</textPath></text><path d="M 118.48025628344425 109.97397251340804 l 2.1520095705656033 1.1614603161451411 a23.44543150748205,23.44543150748205 0 0,0 -0.1947350640711298,0.35350070591208616 l -2.131698097042964 -1.1983315404550323" fill="#ff1a02" stroke="none" /><path d="M 116.93607887273984 112.41649034213515 l 2.7252135195833533 1.9979587719461733 a24.37914604326545,24.37914604326545 0 0,0 -0.25103407902148,0.33630117225216405 l -2.690418173866781 -2.0445728237076524" fill="#ff2703" stroke="none" /><path d="M 116.71984013943494 112.70617746262583 l 2.7951364599850863 2.1241530778192312 a24.51067146397194,24.51067146397194 0 0,0 -0.2581711158684866,0.3337209690766626 l -2.7581585268985314 -2.1719520410091464" fill="#ff2904" stroke="none" /><path d="M 116.498646956653 112.99209946851258 l 2.416055830027019 1.9025582975174224 a24.075232324436634,24.075232324436634 0 0,0 -0.25918946627014794,0.3233787113743228 l -2.3829484517020174 -1.9438648424699956" fill="#ff2303" stroke="none" /><path d="M 116.27256486870786 113.27417163493432 l 2.423126756794799 1.9766398673112204 a24.127083056866095,24.127083056866095 0 0,0 -0.2652876185110046,0.31955602623563734 l -2.388743138390251 -2.018057150660628" fill="#ff2303" stroke="none" /><path d="M 115.56566222782051 114.09645910891815 l 2.6496485861941714 2.399555020635877 a24.57470305443398,24.57470305443398 0 0,0 -0.2866505612201003,0.3111025700310037 l -2.607951616978349 -2.4448088454682155" fill="#ff2a04" stroke="none" /><path d="M 115.32070863581623 114.36230785411682 l 2.471254677208686 2.316663106367227 a24.38733340963491,24.38733340963491 0 0,0 -0.2897371388114671,0.3037882316900073 l -2.4310109870182544 -2.3588584546397415" fill="#ff2703" stroke="none" /><path d="M 115.07121518719521 114.62390073753431 l 2.4265254724961762 2.354506070421688 a24.38108336252234,24.38108336252234 0 0,0 -0.29484784243881207,0.2986793077170825 l -2.3856370050018287 -2.395925872119435" fill="#ff2703" stroke="none" /><line stroke="#e1ed5e" stroke-width="0.3" x1="143.8653032363475" x2="146.44561519142675" y1="172.8068346515853" y2="177.08958963109032" /><path d="M 144.38136562736335 173.6633856474863 a86.0,86.0 0 0,1 -40.68145358897372,12.25698825130547" fill="none" id="id18" stroke="none" /><text fill="#e1ed5e" style="font-size:6.75px; font-family:Arial;" text-anchor="middle"><textPath startOffset="21.466115282336833" xlink:href="#id18">June</textPath></text><line stroke="#e1ed5e" stroke-width="0.3" x1="102.19456741930631" x2="102.32365962044197" y1="184.97166512339345" y2="189.96999836594603" /><path d="M 102.22038585953345 185.97133177190398 a86.0,86.0 0 0,1 -42.740103519485714,-10.115201625700543" fill="none" id="id19" stroke="none" /><text fill="#e1ed5e" style="font-size:6.75px; font-family:Arial;" text-anchor="middle"><textPath startOffset="22.20632615414155" xlink:href="#id19">July</textPath></text><path d="M 98.73552117531835 120.96189622390904 l -0.2076681800608873 3.4426190098836478 a24.448876878089745,24.448876878089745 0 0,0 -0.41986549806524465,-0.028956382984552845 l 0.266896438905062 -3.43853428238281" fill="#ff2803" stroke="none" /><path d="M 92.40401165467489 119.57807347666478 l -1.1284316689095606 2.9084455008285377 a24.119681596363286,24.119681596363286 0 0,0 -0.3857758428952142,-0.15350816939404166 l 1.178328587846633 -2.8885904870284294" fill="#ff2303" stroke="none" /><path d="M 92.06813273071674 119.44442032107085 l -1.1569472452244898 2.8361756143560397 a24.06307346364732,24.06307346364732 0 0,0 -0.3821772272540779,-0.159750111987696 l 1.2055959319760299 -2.8158404593483706" fill="#ff2203" stroke="none" /><path d="M 91.40352486487194 119.15986991738527 l -0.5508573795542506 1.2277538839334934 a22.345668403479532,22.345668403479532 0 0,0 -0.34958415364341805,-0.16047693891771692 l 0.5719095289650881 -1.218089874681702" fill="#ff0a01" stroke="none" /><path d="M 90.10565033884886 118.52300852407294 l -0.8308965936262913 1.5555044256008594 a22.76351443639218,22.76351443639218 0 0,0 -0.3440295335147504,-0.18759233200091394 l 0.8575489390096822 -1.5409714418401799" fill="#ff1001" stroke="none" /><line stroke="#e1ed5e" stroke-width="0.3" x1="58.666819895761336" x2="56.23545636021788" y1="174.27360380694188" y2="178.64263932499728" /><path d="M 58.180547188652646 175.14741091055294 a86.0,86.0 0 0,1 -31.652253787137756,-30.449443065178592" fill="none" id="id20" stroke="none" /><text fill="#e1ed5e" style="font-size:6.75px; font-family:Arial;" text-anchor="middle"><textPath startOffset="22.20632615414155" xlink:href="#id20">August</textPath></text><line stroke="#e1ed5e" stroke-width="0.3" x1="26.63291911575756" x2="22.317208475507996" y1="142.92168965132927" y2="145.44649492493687" /><path d="M 25.769776987707644 143.4266507060508 a86.0,86.0 0 0,1 -11.730757126820373,-40.83630448921669" fill="none" id="id21" stroke="none" /><text fill="#e1ed5e" style="font-size:6.75px; font-family:Arial;" text-anchor="middle"><textPath startOffset="21.46611528233685" xlink:href="#id21">September</textPath></text><path d="M 79.4281124754447 104.21870165774334 l -3.0865149767362037 0.6329553296198158 a24.150747078219865,24.150747078219865 0 0,0 -0.08000805204378493,-0.4079593336691521 l 3.096952961755655 -0.5797322688827089" fill="#ff2403" stroke="none" /><path d="M 79.35854240842038 103.8639653848113 l -2.453276464505193 0.45923962957379877 a23.495889911167193,23.495889911167193 0 0,0 -0.07099513358430104,-0.3981784121057649 l 2.460818040428683 -0.41694246673482027" fill="#ff1a02" stroke="none" /><path d="M 79.29508885075956 103.50808413554451 l -2.376262711466909 0.40261604891208896 a23.41012948962284,23.41012948962284 0 0,0 -0.0638965501200092,-0.39788387859132374 l 2.382841015948209 -0.3616529406275516" fill="#ff1902" stroke="none" /><path d="M 79.18660465613746 102.79330883721812 l -35.46891540384629 4.760186082436632 a56.786915646149616,56.786915646149616 0 0,0 -0.12168216660015614,-0.969926591954878 l 35.5455990796933 -4.148941736194345" fill="#4fff2b" stroke="none" /><line stroke="#e1ed5e" stroke-width="0.3" x1="15.007084014347285" x2="10.007500721073583" y1="101.09737516637583" y2="101.16192664675087" /><path d="M 14.007167355692545 101.11028546245083 a86.0,86.0 0 0,1 10.666146001902534,-42.60595125391555" fill="none" id="id22" stroke="none" /><text fill="#e1ed5e" style="font-size:6.75px; font-family:Arial;" text-anchor="middle"><textPath startOffset="22.20632615414155" xlink:href="#id22">October</textPath></text><path d="M 79.01574976396665 99.18683210126434 l -20.424435901391174 -0.7914743408976241 a41.43976549577651,41.43976549577651 0 0,0 0.03375642206108055,-0.7125447173653311 l 20.407785871096596 1.1429301648859642" fill="#f8ff18" stroke="none" /><path d="M 80.95270993114464 91.15688171328213 l -2.876839689265511 -1.3356353356374555 a24.17177053828562,24.17177053828562 0 0,0 0.17845880772850192,-0.37587976174637644 l 2.8534226876952573 1.384957513024364" fill="#ff2403" stroke="none" /><path d="M 81.10775173730289 90.83032412892265 l -5.7192257773036435 -2.7759240659003384 a27.357302722965073,27.357302722965073 0 0,0 0.20927032166888926,-0.42187619863635667 l 5.670595442681342 2.8739598530356565" fill="#ff5107" stroke="none" /><line stroke="#e1ed5e" stroke-width="0.3" x1="26.266209847984243" x2="21.928928074336255" y1="57.711370442889674" y2="55.22380399835377" /><path d="M 25.398753493254645 57.213857153982495 a86.0,86.0 0 0,1 29.58750427330803,-30.492523968695096" fill="none" id="id23" stroke="none" /><text fill="#e1ed5e" style="font-size:6.75px; font-family:Arial;" text-anchor="middle"><textPath startOffset="21.46611528233685" xlink:href="#id23">November</textPath></text><path d="M 82.7489923806493 88.02491185347247 l -5.062264810537336 -3.5140595068342275 a27.16239719829683,27.16239719829683 0 0,0 0.2699261671980497,-0.3817914209713982 l 5.001026023535408 3.600677428137412" fill="#ff4e07" stroke="none" /><path d="M 83.6137871275137 86.86637796730984 l -3.1382301594458264 -2.5153053415384234 a25.021846528005153,25.021846528005153 0 0,0 0.2722633172705838,-0.333762634196728 l 3.09446835009885 2.568952145343234" fill="#ff3004" stroke="none" /><path d="M 83.84228863543731 86.58626213691792 l -2.6201617350422235 -2.175194362601237 a24.40539542973671,24.40539542973671 0 0,0 0.27111998701940093,-0.3209205489849652 l 2.582331134535698 2.219973861215318" fill="#ff2703" stroke="none" /><path d="M 84.07557802195018 86.31012108654704 l -2.8616939750108425 -2.4601360136811725 a24.773799360382643,24.773799360382643 0 0,0 0.2807793246600516,-0.3209793057004569 l 2.8189227867729474 2.5090308755845725" fill="#ff2c04" stroke="none" /><path d="M 84.31358615837235 86.03803664274999 l -2.303710960496547 -2.0504576980362637 a24.084065654448377,24.084065654448377 0 0,0 0.2782929376605997,-0.3072980125393552 l 2.268074382219902 2.089808497845175" fill="#ff2303" stroke="none" /><path d="M 84.5562425177563 85.77008943001954 l -4.5312122589395 -4.175068489157642 a27.161418783423237,27.161418783423237 0 0,0 0.3197709669003661,-0.3411093721034139 l 4.458673970068678 4.252447278139106" fill="#ff4e07" stroke="none" /><path d="M 84.80347519578584 85.50635884689758 l -6.101294071721566 -5.81909140309243 a29.431347111059356,29.431347111059356 0 0,0 0.35280580167674414,-0.36359739113339185 l 6.000224006341703 5.923252989775945" fill="#ff6d0a" stroke="none" /><path d="M 85.05521093208273 85.24692304244772 l -4.342112436067713 -4.286411714245708 a27.10141506467776,27.10141506467776 0 0,0 0.3305910621131763,-0.32917139903096876 l 4.267685573787223 4.360518963926785" fill="#ff4d07" stroke="none" /><path d="M 85.57189188830299 84.74124197986013 l -5.456670786878557 -5.770820296601792 a28.942142215551485,28.942142215551485 0 0,0 0.3649357659412433,-0.33916802230583626 l 5.356527137142457 5.863892904982276" fill="#ff6609" stroke="none" /><path d="M 86.37877921826538 84.01681056812374 l -4.377889930053541 -5.137031781892788 a27.749445589664443,27.749445589664443 0 0,0 0.3662166523208931,-0.30669591449164263 l 4.288815740773538 5.211628853778243" fill="#ff5608" stroke="none" /><path d="M 86.65592168130627 83.78471172551755 l -1.9345647796546614 -2.3508199546322626 a24.04448605609839,24.04448605609839 0 0,0 0.32184872922059593,-0.2602459559508908 l 1.893812651869565 2.3837720078472877" fill="#ff2203" stroke="none" /><path d="M 86.93701828274178 83.55741782278169 l -1.9326517167100647 -2.4326593544844277 a24.10692358983335,24.10692358983335 0 0,0 0.3271280199219893,-0.2553286083677832 l 1.8904911416286498 2.4655663520754327" fill="#ff2303" stroke="none" /><path d="M 87.22198572758235 83.33499621200491 l -1.7698713289879886 -2.308254770501847 a23.90869121886773,23.90869121886773 0 0,0 0.3287488832405269,-0.2476068431776565 l 1.7298762919890718 2.3383782031853575" fill="#ff2003" stroke="none" /><path d="M 87.80319425747018 82.90503203632743 l -3.646274585228401 -5.110596047609436 a27.2780180242433,27.2780180242433 0 0,0 0.3845796052787661,-0.26942259036125865 l 3.557763840365974 5.172603480734637" fill="#ff4f07" stroke="none" /><path d="M 88.09926311788651 82.69761687909137 l -1.6086184509423198 -2.3387570878403996 a23.838562670901556,23.838562670901556 0 0,0 0.34009149849036246,-0.22963129791643305 l 1.568122258045418 2.366100298055498" fill="#ff1f03" stroke="none" /><path d="M 88.39885842347998 82.49532879139004 l -1.8425980901830354 -2.7802499888068666 a24.335409678316406,24.335409678316406 0 0,0 0.3511634082656221,-0.22840644898164894 l 1.794467656133126 2.811555361948051" fill="#ff2603" stroke="none" /><path d="M 88.70189139769569 82.29822771554957 l -1.6789410274381218 -2.630549306338696 a24.120678231842234,24.120678231842234 0 0,0 0.35191018295372517,-0.22036612428132146 l 1.6334116921121544 2.659059771942948" fill="#ff2303" stroke="none" /><line stroke="#e1ed5e" stroke-width="0.3" x1="56.762969772571076" x2="54.21961505331055" y1="26.818313649435495" y2="22.513508569990535" /><path d="M 56.25429882871897 25.957352633546506 a86.0,86.0 0 0,1 42.265352541879196,-11.944610805530505" fill="none" id="id24" stroke="none" /><text fill="#e1ed5e" style="font-size:6.75px; font-family:Arial;" text-anchor="middle"><textPath startOffset="22.20632615414155" xlink:href="#id24">December</textPath></text><path d="M 89.3179101791058 81.91981866633112 l -3.174589029898488 -5.3732131336484 a27.240948236315013,27.240948236315013 0 0,0 0.40576464852678146,-0.23504507472253364 l 3.081627648906386 5.427062365760981" fill="#ff4f07" stroke="none" /><path d="M 89.94658935756843 81.56283822128135 l -13.502547571030094 -24.76260672584188 a49.20470674846027,49.20470674846027 0 0,0 0.7471030705175562,-0.39907658645265315 l 13.074299453984233 24.991362038796282" fill="#9eff22" stroke="none" /><path d="M 90.58718382345135 81.22770947309562 l -2.2052295340439034 -4.3979621736075485 a25.91986875620705,25.91986875620705 0 0,0 0.40055915079561527,-0.19655263568611545 l 2.1291991162378623 4.435269969428494" fill="#ff3d05" stroke="none" /><path d="M 90.91171255644093 81.06846463323043 l -2.4248757029726993 -5.051184881193674 a26.60307869647276,26.60307869647276 0 0,0 0.4145289045712903,-0.19462687892199224 l 2.3375685871018006 5.092176742755673" fill="#ff4606" stroke="none" /><path d="M 91.56875222667455 80.76684994638697 l -1.9806097548991397 -4.518117085129869 a25.933173116376928,25.933173116376928 0 0,0 0.41038164945751343,-0.17570400535337585 l 1.902544347651318 4.5515406184460305" fill="#ff3d05" stroke="none" /><path d="M 91.90106846888425 80.62456947434976 l -2.4170979564883557 -5.78252987442893 a27.26737698562351,27.26737698562351 0 0,0 0.4346109957667977,-0.17728873760549343 l 2.3172030911331776 5.8232794982180005" fill="#ff4f07" stroke="none" /><path d="M 92.57280143429618 80.3572730644239 l -3.333479548991698 -8.816060045644742 a30.425232126157926,30.425232126157926 0 0,0 0.49146554665071396,-0.18101090847982237 l 3.181231676568414 8.872134221930887" fill="#ff7a0b" stroke="none" /><path d="M 92.91201910852362 80.23233633223022 l -1.1182141154202225 -3.118586361986571 a24.313002219301048,24.313002219301048 0 0,0 0.39516500917603475,-0.1378653124331685 l 1.0643671021809025 3.1373725275919493" fill="#ff2603" stroke="none" /><path d="M 93.59665428221793 80.00007090966166 l -1.0091758506639144 -3.1520155778737324 a24.309628090997826,24.309628090997826 0 0,0 0.39962091433212443,-0.12416416333792392 l 0.9547695636210612 3.1689198760941815" fill="#ff2603" stroke="none" /><path d="M 94.63758080256005 79.69619591428918 l -10.681143519750345 -40.442165644175056 a62.828884623910284,62.828884623910284 0 0,0 1.048019038932928,-0.2671633881413033 l 9.983415592132419 40.62003202848523" fill="#33ff51" stroke="none" /><path d="M 95.692805502759 79.44645832069477 l -0.63498168118399 -3.030075019405416 a24.095893466943586,24.095893466943586 0 0,0 0.40668543040886596,-0.08157727144212733 l 0.5827298413079876 3.040556246924754" fill="#ff2303" stroke="none" /><path d="M 96.04723909329186 79.375362276772 l -1.4214370713116327 -7.416746252579069 a28.551728830065645,28.551728830065645 0 0,0 0.4834825749008821,-0.08835335022029162 l 1.2935593753078574 7.440115084150096" fill="#ff6108" stroke="none" /><path d="M 96.75951476605007 79.25152402106235 l -1.4395632765208233 -9.217367741757986 a30.32910555808584,30.32910555808584 0 0,0 0.516506140163113,-0.07611957873215894 l 1.2806881559290613 9.240781804651114" fill="#ff790b" stroke="none" /><path d="M 98.91598698831166 79.02799685794201 l -0.16201240075735487 -3.134394643883184 a24.138578946211606,24.138578946211606 0 0,0 0.4151366228342081,-0.017876656242326365 l 0.10803494553382269 3.1367190266497027" fill="#ff2303" stroke="none" /><path d="M 99.63851952072746 79.00311137660856 l -0.05333317979235278 -3.0979012705884945 a24.098360326104853,24.098360326104853 0 0,0 0.41481365906488776,-0.003570432124917415 l 7.588794111938915e-16 3.098360326104853" fill="#ff2303" stroke="none" /></svg>