<?xml version="1.0" encoding="utf-8" ?>
<svg baseProfile="full" height="200mm" version="1.1" viewBox="0,0,200,200" width="200mm" xmlns="http://www.w3.org/2000/svg" xmlns:ev="http://www.w3.org/2001/xml-events" xmlns:xlink="http://www.w3.org/1999/xlink"><defs /><rect fill="#1a1a1a" height="200" width="200" x="0" y="0" /><text alignment-baseline="middle" fill="#e1ed5e" style="dominant-baseline: central; font-size:9.0px; font-family:Arial;" text-anchor="middle" x="100.0" y="100.0">2022</text><line stroke="#e1ed5e" stroke-width="0.3" x1="100.0" x2="100.0" y1="15.0" y2="10.0" /><path d="M 100.0 14.0 a86.0,86.0 0 0,1 42.46469731375804,11.215312516191453" fill="none" id="id1" stroke="none" /><text fill="#e1ed5e" style="font-size:6.75px; font-family:Arial;" text-anchor="middle"><textPath startOffset="22.20632615414155" xlink:href="#id1">January</textPath></text><line stroke="#e1ed5e" stroke-width="0.3" x1="143.23703022742887" x2="145.7803849466894" y1="26.81831364943548" y2="22.513508569990506" /><path d="M 143.74570117128098 25.957352633546492 a86.0,86.0 0 0,1 28.547481713284135,27.462654790039103" fill="none" id="id2" stroke="none" /><text fill="#e1ed5e" style="font-size:6.75px; font-family:Arial;" text-anchor="middle"><textPath startOffset="19.985693538727396" xlink:href="#id2">February</textPath></text><line stroke="#e1ed5e" stroke-width="0.3" x1="172.23445277983987" x2="176.4835382374775" y1="55.19839476539836" y2="52.563006222186495" /><path d="M 173.08426987136738 54.67131705675599 a86.0,86.0 0 0,1 12.851231095245387,41.99856678651699" fill="none" id="id3" stroke="none" /><text fill="#e1ed5e" style="font-size:6.75px; font-family:Arial;" text-anchor="middle"><textPath startOffset="22.20632615414155" xlink:href="#id3">March</textPath></text><line stroke="#e1ed5e" stroke-width="0.3" x1="184.98032266829074" x2="189.97916517819016" y1="98.17113171792111" y2="98.06355123074" /><path d="M 185.9800911702706 98.14961562048488 a86.0,86.0 0 0,1 -9.607161424134198,41.387399972396054" fill="none" id="id4" stroke="none" /><text fill="#e1ed5e" style="font-size:6.75px; font-family:Arial;" text-anchor="middle"><textPath startOffset="21.466115282336823" xlink:href="#id4">April</textPath></text><line stroke="#e1ed5e" stroke-width="0.3" x1="174.80103733775053" x2="179.2010983576182" y1="140.37084112569926" y2="142.7455964860345" /><path d="M 175.68104954172406 140.8457921977663 a86.0,86.0 0 0,1 -30.038265399797805,32.042727171017184" fill="none" id="id5" stroke="none" /><text fill="#e1ed5e" style="font-size:6.75px; font-family:Arial;" text-anchor="middle"><textPath startOffset="22.206326154141568" xlink:href="#id5">May</textPath></text><line stroke="#e1ed5e" stroke-width="0.3" x1="143.8653032363475" x2="146.44561519142675" y1="172.8068346515853" y2="177.08958963109032" /><path d="M 144.38136562736335 173.6633856474863 a86.0,86.0 0 0,1 -40.68145358897372,12.25698825130547" fill="none" id="id6" stroke="none" /><text fill="#e1ed5e" style="font-size:6.75px; font-family:Arial;" text-anchor="middle"><textPath startOffset="21.466115282336833" xlink:href="#id6">June</textPath></text><line stroke="#e1ed5e" stroke-width="0.3" x1="102.19456741930631" x2="102.32365962044197" y1="184.97166512339345" y2="189.96999836594603" /><path d="M 102.22038585953345 185.97133177190398 a86.0,86.0 0 0,1 -42.740103519485714,-10.115201625700543" fill="none" id="id7" stroke="none" /><text fill="#e1ed5e" style="font-size:6.75px; font-family:Arial;" text-anchor="middle"><textPath startOffset="22.20632615414155" xlink:href="#id7">July</textPath></text><line stroke="#e1ed5e" stroke-width="0.3" x1="58.666819895761336" x2="56.23545636021788" y1="174.27360380694188" y2="178.64263932499728" /><path d="M 58.180547188652646 175.14741091055294 a86.0,86.0 0 0,1 -31.652253787137756,-30.449443065178592" fill="none" id="id8" stroke="none" /><text fill="#e1ed5e" style="font-size:6.75px; font-family:Arial;" text-anchor="middle"><textPath startOffset="22.20632615414155" xlink:href="#id8">August</textPath></text><path d="M 86.79598089348748 116.32954008644616 l -3.7704577158779253 4.662962081394684 a26.996629616688697,26.996629616688697 0 0,0 -0.3588364645063316,-0.2952979808265806 l 3.8501643089289455 -4.597368981710923" fill="#ff3905" stroke="none" /><path d="M 86.51685102203217 116.09983520530335 l -4.116416795709844 4.915293315794839 a27.411317775332893,27.411317775332893 0 0,0 -0.3591333263100511,-0.30606121191255375 l 4.200415598596951 -4.8437077136593345" fill="#ff3f05" stroke="none" /><path d="M 86.24171649860922 115.8653595955263 l -4.361809657059709 5.02981921323951 a27.657662112355407,27.657662112355407 0 0,0 -0.35699146744188914,-0.31500346333127466 l 4.447743477408185 -4.953992608135947" fill="#ff4306" stroke="none" /><path d="M 85.97065885151581 115.62618273729859 l -3.3426605777582394 3.723127441551869 a26.003504540233337,26.003504540233337 0 0,0 -0.3304927179632842,-0.30189726195274763 l 3.4062528451883782 -3.665037413012546" fill="#ff2b04" stroke="none" /><path d="M 85.70375840098266 115.38237550388516 l -4.426125793457518 4.762393564129122 a27.501613799601483,27.501613799601483 0 0,0 -0.3439851638846818,-0.3252594429243402 l 4.507446791733017 -4.685499484458851" fill="#ff4106" stroke="none" /><path d="M 85.44109423537348 115.13401014063109 l -4.710767133230075 4.896851364865228 a27.794886332610954,27.794886332610954 0 0,0 -0.3419433432256869,-0.3346635308799788 l 4.794360428831556 -4.815037731062679" fill="#ff4506" stroke="none" /><path d="M 84.9287848128048 114.62390073753433 l -4.77268125773885 4.631027830082529 a27.65018083596007,27.65018083596007 0 0,0 -0.3285018557980542,-0.34443288247114723 l 4.851689664915861 -4.548187831028883" fill="#ff4306" stroke="none" /><path d="M 84.67929136418377 114.36230785411682 l -4.845477553408661 4.542364323774006 a27.641665933369584,27.641665933369584 0 0,0 -0.32242501711242716,-0.34992867636127317 l 4.922948978516817 -4.458284392611389" fill="#ff4306" stroke="none" /><path d="M 84.43433777217949 114.09645910891817 l -4.964783143778402 4.496169937815606 a27.698105386933154,27.698105386933154 0 0,0 -0.31699973863128916,-0.3561525668434128 l 5.04144173205803 -4.410043201231328" fill="#ff4306" stroke="none" /><path d="M 84.19399662182784 113.82643327865904 l -5.424516304893618 4.745140878698393 a28.207061752250446,28.207061752250446 0 0,0 -0.316533589757972,-0.3682000757931781 l 5.505392404222369 -4.651063703743684" fill="#ff4b06" stroke="none" /><path d="M 83.95833913139862 113.55231037782056 l -4.3769057045559006 3.6976959610645728 a26.72976953873777,26.72976953873777 0 0,0 -0.2939052718294502,-0.35402783319730496 l 4.439906976278888 -3.6218068707535065" fill="#ff3605" stroke="none" /><path d="M 83.50135304334701 112.99209946851258 l -5.259504486083333 4.14167329101665 a27.69446376408532,27.69446376408532 0 0,0 -0.29170602787699546,-0.3770693633992911 l 5.330017331178397 -4.050525933504106" fill="#ff4306" stroke="none" /><path d="M 83.28015986056508 112.70617746262583 l -6.255488397512048 4.753834069664214 a28.85684882464389,28.85684882464389 0 0,0 -0.2971413541434485,-0.3980694020212523 l 6.336391018350582 -4.645451788133654" fill="#ff5407" stroke="none" /><path d="M 83.06392112726016 112.41649034213515 l -6.596742112512096 4.836325181586255 a29.179672839486667,29.179672839486667 0 0,0 -0.29349221693182004,-0.40763501976359773 l 6.679014121819524 -4.722056556371519" fill="#ff5808" stroke="none" /><path d="M 82.85270091963577 112.12312394758628 l -5.547855807210093 3.9223287165476832 a27.794362855945312,27.794362855945312 0 0,0 -0.2728335592919547,-0.3930370910484619 l 5.6145502736641815 -3.8262503633122087" fill="#ff4506" stroke="none" /><path d="M 82.6465618267979 111.8261652097733 l -3.920041984516824 2.6714627773148223 a25.743779350997812,25.743779350997812 0 0,0 -0.24640093831152013,-0.36833597065739393 l 3.965446028239074 -2.6035898924516077" fill="#ff2703" stroke="none" /><path d="M 82.24976979558568 111.22182372390057 l -3.318438827725135 2.0979409920000767 a24.92598938603609,24.92598938603609 0 0,0 -0.22615630330005204,-0.3646359706543225 l 3.354059770693143 -2.0405086899804896" fill="#ff1b02" stroke="none" /><line stroke="#e1ed5e" stroke-width="0.3" x1="26.63291911575756" x2="22.317208475507996" y1="142.92168965132927" y2="145.44649492493687" /><path d="M 25.769776987707644 143.4266507060508 a86.0,86.0 0 0,1 -11.730757126820373,-40.83630448921669" fill="none" id="id9" stroke="none" /><text fill="#e1ed5e" style="font-size:6.75px; font-family:Arial;" text-anchor="middle"><textPath startOffset="21.46611528233685" xlink:href="#id9">September</textPath></text><path d="M 81.87401531095188 110.60418214915194 l -3.779662029612233 2.2112026083999856 a25.378956728889584,25.378956728889584 0 0,0 -0.2173502241631422,-0.3789684363333597 l 3.8171642499277523 -2.145814326208319" fill="#ff2203" stroke="none" /><path d="M 81.69416730710424 110.29060199501025 l -3.4017285700708464 1.9122776547192903 a24.902379158048966,24.902379158048966 0 0,0 -0.2068363040926962,-0.3754679715939958 l 3.434141283615059 -1.853439164727472" fill="#ff1b02" stroke="none" /><path d="M 81.51974371655577 109.97397251340807 l -3.1401946078229894 1.6947933094000067 a24.56835347696772,24.56835347696772 0 0,0 -0.19765531890371882,-0.37388937501406894 l 3.1689024349515944 -1.6404889192998118" fill="#ff1602" stroke="none" /><path d="M 81.35079622478065 109.6543875284942 l -4.066199498962865 2.1050049216213624 a25.5787579195035,25.5787579195035 0 0,0 -0.19905307830572985,-0.39275060766764264 l 4.101831247054861 -2.0347001022510347" fill="#ff2503" stroke="none" /><path d="M 81.18737489456691 109.33194174019688 l -4.070774622869218 2.0192945644314397 a25.544090290491418,25.544090290491418 0 0,0 -0.19200245071874514,-0.39558191772798795 l 4.1049303302026825 -1.948923690738167" fill="#ff2403" stroke="none" /><path d="M 81.02952815118164 109.00673069616217 l -3.408401477215703 1.618228289434735 a24.773044318135298,24.773044318135298 0 0,0 -0.17957553158914763,-0.3867897192537541 l 3.4357516256446776 -1.559318502902154" fill="#ff1902" stroke="none" /><path d="M 80.87730276802145 108.67885076344099 l -4.126034074869267 1.8726037203987915 a25.53109279099796,25.53109279099796 0 0,0 -0.17818139357493815,-0.4017520039973627 l 4.157656553175485 -1.801303379908733" fill="#ff2403" stroke="none" /><path d="M 80.73074385275274 108.34839909993369 l -3.70370326415347 1.6046282617555747 a25.03636590602559,25.03636590602559 0 0,0 -0.16792131297019489,-0.39691638070757995 l 3.7307755583159716 -1.540637355381836" fill="#ff1d02" stroke="none" /><path d="M 80.32549172779594 107.34259656027581 l -3.7119613460320537 1.3853171949287253 a24.96203997518971,24.96203997518971 0 0,0 -0.1467717301311276,-0.40385276537105114 l 3.735257337168406 -1.321216632551557" fill="#ff1c02" stroke="none" /><path d="M 80.20201598880116 107.00284435728193 l -4.611290796068846 1.6310828270580773 a25.89126098206107,25.89126098206107 0 0,0 -0.14500236618724824,-0.42144475024321393 l 4.638683993199322 -1.5514653737255666" fill="#ff2904" stroke="none" /><path d="M 80.0844068197444 106.66101706037122 l -3.781037564225855 1.264614892122919 a24.986915585696046,24.986915585696046 0 0,0 -0.13291581400595723,-0.4090728125963843 l 3.8022456292480613 -1.1993431795487313" fill="#ff1c02" stroke="none" /><path d="M 79.86692584326677 105.97154293290107 l -4.943186426256955 1.466167051287357 a26.15603897066456,26.15603897066456 0 0,0 -0.12431263234125384,-0.4327485814651364 l 4.967691695484312 -1.3808609943176247" fill="#ff2d04" stroke="none" /><path d="M 79.76711848015287 105.62410040840567 l -3.728172341477731 1.0363138620538943 a24.86952392788113,24.86952392788113 0 0,0 -0.1110979942923232,-0.41343696623005655 l 3.745458412111829 -0.9719859626482988" fill="#ff1b02" stroke="none" /><path d="M 79.67330655649465 105.27499134158121 l -4.224145820206236 1.096210393938118 a25.36406749926531,25.36406749926531 0 0,0 -0.10603229285199633,-0.42354630245894087 l 4.242389427353291 -1.0233362520817852" fill="#ff2203" stroke="none" /><path d="M 79.58551787078972 104.9243191809786 l -6.232714015290025 1.5034362851228555 a27.411477572277448,27.411477572277448 0 0,0 -0.10669517446501135,-0.45964001912311914 l 6.257669755685591 -1.395927608651162" fill="#ff3f05" stroke="none" /><path d="M 79.50377843672027 104.57218783832718 l -5.314210149256098 1.1854656693541117 a26.44482858900753,26.44482858900753 0 0,0 -0.09528444647403075,-0.4451372121010719 l 5.333828634454569 -1.093814637836876" fill="#ff3104" stroke="none" /><path d="M 79.29508885075956 103.50808413554451 l -5.598953705694406 0.9486445282966232 a26.678750658338174,26.678750658338174 0 0,0 -0.07281805636040492,-0.4534381064665116 l 5.614453516416102 -0.8521271921368979" fill="#ff3505" stroke="none" /><path d="M 79.18660465613746 102.79330883721812 l -5.611345829603031 0.7530833694147469 a26.66165493302907,26.66165493302907 0 0,0 -0.057130201569887365,-0.455383917418717 l 5.623477540419766 -0.6563816977086212" fill="#ff3505" stroke="none" /><path d="M 79.1416061653843 102.43462659150553 l -6.8580306333468455 0.8004807981713604 a27.90458931987738,27.90458931987738 0 0,0 -0.051580568331236566,-0.47757200180278847 l 6.870793503179135 -0.68231247448379" fill="#ff4606" stroke="none" /><path d="M 79.10278846688536 102.07522291339032 l -6.818438610235528 0.6771133083992384 a27.85197690553332,27.85197690553332 0 0,0 -0.043270571001171355,-0.47748714531940517 l 6.829083777513775 -0.559644774531267" fill="#ff4606" stroke="none" /><path d="M 79.07016306316243 101.71520430193888 l -6.356329571271292 0.5209024732532463 a27.37763788602483,27.37763788602483 0 0,0 -0.03444816231383082,-0.47001780557980893 l 6.364354292249459 -0.4114115311766768" fill="#ff3f05" stroke="none" /><path d="M 79.04373962182676 101.35467743843564 l -3.120450817423401 0.20171558492918581 a24.126963779956796,24.126963779956796 0 0,0 -0.023223522857013342,-0.41467160129223185 l 3.1234606911679457 -0.14797226730151636" fill="#ff1001" stroke="none" /><path d="M 79.0095281055655 100.63252640178507 l -6.498292735689764 0.19581940522936858 a27.501242474956825,27.501242474956825 0 0,0 -0.010185854288315458,-0.4732966242321181 l 6.500700652663087 -0.08393296520712165" fill="#ff4106" stroke="none" /><line stroke="#e1ed5e" stroke-width="0.3" x1="15.007084014347285" x2="10.007500721073583" y1="101.09737516637583" y2="101.16192664675087" /><path d="M 14.007167355692545 101.11028546245083 a86.0,86.0 0 0,1 10.666146001902534,-42.60595125391555" fill="none" id="id10" stroke="none" /><text fill="#e1ed5e" style="font-size:6.75px; font-family:Arial;" text-anchor="middle"><textPath startOffset="22.20632615414155" xlink:href="#id10">October</textPath></text><path d="M 79.00175016825051 100.2711162175752 l -10.584630826798733 0.13666210742252563 a31.585513037695584,31.585513037695584 0 0,0 -0.002339888964056235,-0.5437077899619615 l 10.585415013052293 0.04555516074311121" fill="#ff7a0b" stroke="none" /><path d="M 79.00019446554 99.90962569577889 l -7.226678413129155 -0.031100575305071806 a28.22674533469744,28.22674533469744 0 0,0 0.006273048550813749,-0.4858545234025644 l 7.2250723574606255 0.15549135676810816" fill="#ff4b07" stroke="none" /><path d="M 79.00486145842228 99.54816195383935 l -5.640833819321864 -0.1213968332045962 a26.642139963552605,26.642139963552605 0 0,0 0.013813702870410956,-0.4584095478720537 l 5.6379084219958076 0.2184765285016443" fill="#ff3405" stroke="none" /><path d="M 79.01574976396665 99.18683210126434 l -2.0648678218787637 -0.08001640320704723 a23.06641761186178,23.06641761186178 0 0,0 0.01878967506277288,-0.3966203433161287 l 2.063184538582492 0.11554785314618507" fill="#ff0000" stroke="none" /><path d="M 79.03285615573316 98.82574320788736 l -4.909632669096292 -0.2749620812107345 a25.917326213661376,25.917326213661376 0 0,0 0.028779844288019676,-0.4452114528750548 l 4.90417223380386 0.35943259833880115" fill="#ff2a04" stroke="none" /><path d="M 79.05617556472873 98.46500227214037 l -5.260330156557697 -0.38553583482629067 a26.274439423855917,26.274439423855917 0 0,0 0.0369412564925096,-0.4507768979801221 l 5.252914416245691 0.47602665001419114" fill="#ff2f04" stroke="none" /><path d="M 79.16333360222342 97.38593545837743 l -4.729310605611165 -0.5933157888330383 a25.766382530769516,25.766382530769516 0 0,0 0.05899765532789212,-0.43960105962477614 l 4.718396951225439 0.6746351905224738" fill="#ff2803" stroke="none" /><path d="M 79.21141760316559 97.0276538004421 l -4.771360862616193 -0.682207957040695 a25.81988507933075,25.81988507933075 0 0,0 0.06669412369658037,-0.43943094501366614 l 4.758910845480311 0.7642380144464531" fill="#ff2803" stroke="none" /><path d="M 79.32604984820605 96.31383870115002 l -6.414811305485163 -1.143759610528659 a27.515979598775377,27.515979598775377 0 0,0 0.08715264113921717,-0.46557289388273787 l 6.394172940436084 1.2540105818739695" fill="#ff4106" stroke="none" /><path d="M 79.3925641242962 95.95851677861259 l -5.716103304648529 -1.1210291147716687 a26.824992984165696,26.824992984165696 0 0,0 0.09276427988502113,-0.45235157328280995 l 5.695959728848513 1.2192563442178812" fill="#ff3705" stroke="none" /><path d="M 79.46518482838121 95.60439243477599 l -5.987699011429331 -1.28170498993823 a27.123341173959226,27.123341173959226 0 0,0 0.10165519969758735,-0.4557003276627263 l 5.964749424729706 1.3845834871509155" fill="#ff3b05" stroke="none" /><path d="M 79.54389044137918 95.25157060432595 l -4.907089470071864 -1.1390713283050484 a26.037559980611327,26.037559980611327 0 0,0 0.10510147845702363,-0.43571348136862337 l 4.886755191354026 1.2233700413330686" fill="#ff2c04" stroke="none" /><path d="M 79.71946130924805 94.55025226153421 l -8.596049478011055 -2.3099140470017674 a29.900998232386648,29.900998232386648 0 0,0 0.13784820010318524,-0.4959133190871642 l 8.555014507341511 2.457538669507874" fill="#ff6309" stroke="none" /><path d="M 79.81627453868168 94.20196356495316 l -5.572611475486093 -1.6008047887467731 a26.79798021973117,26.79798021973117 0 0,0 0.1311749683764518,-0.44225678279554015 l 5.544230609997935 1.6964909582888523" fill="#ff3705" stroke="none" /><path d="M 79.91906864156998 93.8553929516997 l -5.258647042398812 -1.6091046328726437 a26.499325998343977,26.499325998343977 0 0,0 0.13722173267421783,-0.43503039179720354 l 5.2301698259563905 1.6993851910962618" fill="#ff3204" stroke="none" /><path d="M 80.02781315780177 93.51064311812611 l -5.363673640378102 -1.7427632099240984 a26.639700216000122,26.639700216000122 0 0,0 0.14545619618453684,-0.4348955125776603 l 5.332880150421793 1.834831825424081" fill="#ff3405" stroke="none" /><path d="M 80.14247586403 93.16781622104843 l -3.2941295660044365 -1.1333788861347849 a24.48365286691437,24.48365286691437 0 0,0 0.1405442344585048,-0.3973374767043488 l 3.274132250736122 1.1899139892657449" fill="#ff1502" stroke="none" /><path d="M 80.2630227832202 92.82701384747504 l -8.697101570763536 -3.1607772785567527 a30.253652724022995,30.253652724022995 0 0,0 0.18209156597055914,-0.4879148665702775 l 8.64140541629135 3.3100152821563715" fill="#ff6709" stroke="none" /><path d="M 80.803312248108 91.48605970444005 l -5.126321028886123 -2.2735792622093483 a26.607881057293252,26.607881057293252 0 0,0 0.18929313240353987,-0.4170823254956622 l 5.086425579519231 2.3614835965470813" fill="#ff3404" stroke="none" /><path d="M 80.95270993114464 91.15688171328213 l -4.965867150352959 -2.305511726232497 a26.474963093460097,26.474963093460097 0 0,0 0.195463147427763,-0.41169523780030437 l 4.925445809083444 2.3906493796733335" fill="#ff3204" stroke="none" /><path d="M 81.26839172434947 90.50648371742162 l -8.904920718845274 -4.513174127675977 a30.98330374753987,30.98330374753987 0 0,0 0.24519680058933402,-0.47364217416447 l 8.825914485095826 4.665789024100782" fill="#ff720a" stroke="none" /><path d="M 81.43458229118936 90.18545643968196 l -5.678650733116469 -3.0019989777851346 a27.423322505631116,27.423322505631116 0 0,0 0.22420773174936506,-0.41542287567846864 l 5.626134902148632 3.099302836796076" fill="#ff4006" stroke="none" /><line stroke="#e1ed5e" stroke-width="0.3" x1="26.266209847984243" x2="21.928928074336255" y1="57.711370442889674" y2="55.22380399835377" /><path d="M 25.398753493254645 57.213857153982495 a86.0,86.0 0 0,1 29.58750427330803,-30.492523968695096" fill="none" id="id11" stroke="none" /><text fill="#e1ed5e" style="font-size:6.75px; font-family:Arial;" text-anchor="middle"><textPath startOffset="21.46611528233685" xlink:href="#id11">November</textPath></text><path d="M 81.78341655067845 89.55222093294921 l -4.852244593029928 -2.7829136911596084 a26.593646950159776,26.593646950159776 0 0,0 0.23116252244301977,-0.39513168328771364 l 4.803622396116584 2.866024786801214" fill="#ff3404" stroke="none" /><path d="M 81.96595687620814 89.24020034530311 l -5.5966455380352045 -3.3391727143075842 a27.5170941142802,27.5170941142802 0 0,0 0.2461917743402178,-0.40467454524684093 l 5.53833796540877 3.4350150327614997" fill="#ff4106" stroke="none" /><path d="M 82.15384107792192 88.93136811851018 l -5.563445372454271 -3.4505872714319494 a27.54663859778826,27.54663859778826 0 0,0 0.2533928758704049,-0.4008066771962184 l 5.503224900337903 3.5458415963423833" fill="#ff4106" stroke="none" /><path d="M 82.54541684631803 88.32363383020206 l -11.379329846666616 -7.612282738964285 a34.69072665190461,34.69072665190461 0 0,0 0.3362944387857691,-0.49347059236393415 l 11.246610942212106 7.807031354598635" fill="#ffa40f" stroke="none" /><path d="M 82.7489923806493 88.02491185347247 l -5.247906750090432 -3.6429261005366733 a27.388382880793547,27.388382880793547 0 0,0 0.27217189862862456,-0.38496784881794416 l 5.18442223165793 3.7327204496864037" fill="#ff3f05" stroke="none" /><path d="M 82.95767976084542 87.72973835380427 l -6.150254443165903 -4.428107801597506 a28.57850700456565,28.57850700456565 0 0,0 0.29087121073412814,-0.3967480045537129 l 6.073120619918142 4.53331824982272" fill="#ff5007" stroke="none" /><path d="M 83.17141714833178 87.43820079747576 l -6.4739363945137995 -4.832509650670579 a29.078675755594762,29.078675755594762 0 0,0 0.30286695305573647,-0.39853740855616504 l 6.389793501233954 4.94323183510777" fill="#ff5708" stroke="none" /><path d="M 83.39014120810768 87.1503855733568 l -4.283174545906399 -3.3135225366139056 a26.415257684667345,26.415257684667345 0 0,0 0.2813173614873619,-0.35724448086360633 l 4.2255031038250666 3.3867594114305595" fill="#ff3104" stroke="none" /><path d="M 83.84228863543731 86.58626213691792 l -1.9621559699274478 -1.6289340261897107 a23.550192563709757,23.550192563709757 0 0,0 0.261619522640378,-0.3096749957609236 l 1.9338258337999454 1.6624679715797501" fill="#ff0701" stroke="none" /><path d="M 84.07557802195018 86.31012108654704 l -19.854825760902987 -17.06876148403571 a47.18313817315865,47.18313817315865 0 0,0 0.5347605136734572,-0.6113237098306454 l 19.558073383651685 17.408000750069302" fill="#beff1e" stroke="none" /><path d="M 84.31358615837235 86.03803664274999 l -9.23415078028855 -8.219015265781913 a33.36210955186289,33.36210955186289 0 0,0 0.38550133548684384,-0.4256802031061611 l 9.091305804185662 8.37674825615763" fill="#ff920d" stroke="none" /><path d="M 84.5562425177563 85.77008943001954 l -8.329178178123902 -7.674522261334849 a32.325789202641005,32.325789202641005 0 0,0 0.38057102066606935,-0.4059666302995116 l 8.195839835487376 7.81675830851241" fill="#ff840c" stroke="none" /><path d="M 84.80347519578584 85.50635884689758 l -6.402670055678817 -6.106527867673347 a29.847817043799978,29.847817043799978 0 0,0 0.3577982000178857,-0.3687424964681418 l 6.296607591957812 6.215834559691612" fill="#ff6209" stroke="none" /><path d="M 85.05521093208273 85.24692304244772 l -8.458565544598425 -8.350058864186542 a32.885739947838665,32.885739947838665 0 0,0 0.4011499647449483,-0.39942729931129456 l 8.313579779686165 8.494422014147945" fill="#ff8c0c" stroke="none" /><path d="M 85.31137513191541 84.99185889309783 l -6.6370622527453556 -6.781435819831485 a30.488860159434893,30.488860159434893 0 0,0 0.3782313787947744,-0.36385828672824044 l 6.519347630338154 6.894677193322039" fill="#ff6b09" stroke="none" /><path d="M 85.57189188830299 84.74124197986013 l -6.78369941165685 -7.174248141370645 a30.87362213686921,30.87362213686921 0 0,0 0.38929008288283684,-0.36180270567370254 l 6.659201444979158 7.289955433118996" fill="#ff700a" stroke="none" /><path d="M 85.83668400450813 84.49514656593479 l -10.421213385298714 -11.408301996199565 a36.45157088643158,36.45157088643158 0 0,0 0.4669081930150797,-0.4191947857614346 l 10.223294204687662 11.585995790730278" fill="#ffbb11" stroke="none" /><path d="M 86.10567301691215 84.25364557470407 l -32.22437540738119 -36.51968439464833 a69.70418584352431,69.70418584352431 0 0,0 0.9065069244830606,-0.7861138720441375 l 31.59097468425135 37.06896326011215" fill="#3bff9b" stroke="none" /><path d="M 86.37877921826538 84.01681056812374 l -4.617261612405909 -5.417911374476382 a28.11848779299914,28.11848779299914 0 0,0 0.37108699828271285,-0.31077468917101503 l 4.523317077164085 5.496587221041209" fill="#ff4906" stroke="none" /><path d="M 86.65592168130627 83.78471172551755 l -6.875172920357802 -8.35448565108769 a31.819678053391947,31.819678053391947 0 0,0 0.42592396950382033,-0.3444008956454395 l 6.730345552289481 8.471592643997264" fill="#ff7d0b" stroke="none" /><path d="M 86.93701828274178 83.55741782278169 l -7.37287995067228 -9.280360877450487 a32.852613921947295,32.852613921947295 0 0,0 0.4458059736033905,-0.3479586336546251 l 7.212041421909463 9.405897900328334" fill="#ff8b0c" stroke="none" /><path d="M 87.22198572758235 83.33499621200491 l -6.627157545158255 -8.643096121132016 a31.891387776012536,31.891387776012536 0 0,0 0.438512422966966,-0.33027846566278635 l 6.477398968432899 8.755891176300656" fill="#ff7e0b" stroke="none" /><path d="M 87.51073957382395 83.11751280151077 l -5.719238107664083 -7.731039376469615 a30.61658226048531,30.61658226048531 0 0,0 0.4263791847294595,-0.3097826107622072 l 5.585313606580842 7.82834122204849" fill="#ff6c0a" stroke="none" /><path d="M 87.80319425747018 82.90503203632743 l -16.392707480933545 -22.97591805100681 a49.22434532176141,49.22434532176141 0 0,0 0.6939902773406802,-0.4861845392740538 l 15.994786064009203 23.254687433044808" fill="#a7ff21" stroke="none" /><path d="M 88.09926311788651 82.69761687909137 l -9.95537595830824 -14.47403893133896 a38.5672227018723,38.5672227018723 0 0,0 0.5502170891075466,-0.37150903468158314 l 9.704754174794155 14.64325987831921" fill="#ffd614" stroke="none" /><path d="M 88.39885842347998 82.49532879139004 l -5.349364033180257 -8.071521061815435 a30.683240563510374,30.683240563510374 0 0,0 0.44276350697794065,-0.2879857012066519 l 5.20963350041803 8.162405687181622" fill="#ff6d0a" stroke="none" /><path d="M 88.70189139769569 82.29822771554957 l -5.5954407931863726 -8.766884992759602 a31.400347597379987,31.400347597379987 0 0,0 0.4581173863186432,-0.28687306528496587 l 5.443704254495487 8.861902399367498" fill="#ff770b" stroke="none" /><path d="M 89.00827224532344 82.1063720568725 l -4.648723704613266 -7.5677395071358236 a29.88151526090552,29.88151526090552 0 0,0 0.44059288779393185,-0.2654522850683779 l 4.517768750601685 7.646638401662821" fill="#ff6209" stroke="none" /><line stroke="#e1ed5e" stroke-width="0.3" x1="56.762969772571076" x2="54.21961505331055" y1="26.818313649435495" y2="22.513508569990535" /><path d="M 56.25429882871897 25.957352633546506 a86.0,86.0 0 0,1 42.265352541879196,-11.944610805530505" fill="none" id="id12" stroke="none" /><text fill="#e1ed5e" style="font-size:6.75px; font-family:Arial;" text-anchor="middle"><textPath startOffset="22.20632615414155" xlink:href="#id12">December</textPath></text><path d="M 89.3179101791058 81.91981866633112 l -4.908293731151647 -8.307629142431537 a30.649251231025147,30.649251231025147 0 0,0 0.4565326634550464,-0.2644531858176064 l 4.764564335231281 8.390886485639191" fill="#ff6d0a" stroke="none" /><path d="M 89.63071344664047 81.73862282372117 l -4.132655188333103 -7.278029664365451 a29.369501460722734,29.369501460722734 0 0,0 0.44176752511455625,-0.24584314943470115 l 4.0067635741465 7.348088211360336" fill="#ff5b08" stroke="none" /><path d="M 89.94658935756843 81.56283822128135 l -27.072701541587872 -49.64919825342931 a77.55063267522497,77.55063267522497 0 0,0 1.1774953987313974,-0.6289772627542551 l 26.214061096328166 50.10785424268532" fill="#45ffee" stroke="none" /><path d="M 90.26544431104013 81.39251694778311 l -20.91276342675822 -39.97448917773908 a66.11433762302994,66.11433762302994 0 0,0 1.0129330833440717,-0.5188636678232377 l 20.221569855825386 40.32854537087482" fill="#36ff72" stroke="none" /><path d="M 90.91171255644093 81.06846463323043 l -4.3858758577846375 -9.136084705898641 a31.13429577194455,31.13429577194455 0 0,0 0.4851342834487016,-0.22777705101970663 l 4.227963363036327 9.210226739558356" fill="#ff740a" stroke="none" /><path d="M 91.56875222667455 80.76684994638697 l -2.7178946133781414 -6.199992733506229 a27.76955397533397,27.76955397533397 0 0,0 0.4394416107105806,-0.18814596418444787 l 2.6107692448772526 6.245858225653463" fill="#ff4406" stroke="none" /><path d="M 91.90106846888425 80.62456947434976 l -2.3710166517423974 -5.672287539967112 a27.14789117494006,27.14789117494006 0 0,0 0.43270652775769963,-0.17651185728623844 l 2.2730262543963176 5.712260283436927" fill="#ff3c05" stroke="none" /><path d="M 92.23578459929587 80.48803036053334 l -23.29264620211241 -58.53590891839998 a84.0,84.0 0 0,0 1.3480673400012946,-0.5230291844377941 l 22.28159569711144 58.92818080672833" fill="#4dd2ff" stroke="none" /><path d="M 92.57280143429618 80.3572730644239 l -7.045800525165064 -18.634042773197514 a40.92161778354787,40.92161778354787 0 0,0 0.6610160004837605,-0.2434577715216741 l 6.724002198908734 18.752563812525512" fill="#fff417" stroke="none" /><path d="M 93.59665428221793 80.00007090966166 l -1.5083676961244252 -4.71116948767441 a25.94674550066062,25.94674550066062 0 0,0 0.42653314654191105,-0.13252592488753825 l 1.4270491768717855 4.736435547444474" fill="#ff2a04" stroke="none" /><path d="M 93.94186890950719 79.89281104454417 l -1.6380794159924328 -5.436853684644062 a26.678264009477353,26.678264009477353 0 0,0 0.44083898025932483,-0.12869298693848522 l 1.5442502180096866 5.464245000501245" fill="#ff3505" stroke="none" /><path d="M 94.28887869178378 79.79150937346287 l -1.7411041256705533 -6.1608017943551525 a27.402102961196164,27.402102961196164 0 0,0 0.4550081496322851,-0.12437091532693358 l 1.6347980868145457 6.189859250508382" fill="#ff3f05" stroke="none" /><path d="M 94.63758080256005 79.69619591428918 l -11.828511451597137 -44.786461165414075 a67.32214143238315,67.32214143238315 0 0,0 1.122968939926435,-0.28626978673370723 l 11.055833622985704 44.983433948316645" fill="#38ff80" stroke="none" /><path d="M 96.40284397218896 79.31037775812273 l -0.7382774467661275 -4.246321639982876 a25.310023324599342,25.310023324599342 0 0,0 0.4298736243727699,-0.0709328313208513 l 0.665074616254472 4.258400734243354" fill="#ff2103" stroke="none" /><path d="M 96.75951476605007 79.25152402106235 l -0.5450334785961709 -3.489790331364999 a24.53209541910737,24.53209541910737 0 0,0 0.4177827760455735,-0.061570321127446884 l 0.48488172212194863 3.498655136653415" fill="#ff1602" stroke="none" /><path d="M 97.11714578562143 79.19881850522333 l -6.294655339925402 -45.41896968628996 a66.85308597262106,66.85308597262106 0 0,0 1.1412307940467898,-0.14816451061037691 l 5.511909817370754 45.520592520064476" fill="#37ff7b" stroke="none" /><path d="M 97.47563105711357 79.15227682838746 l -3.290625300529261 -27.175918765858793 a48.37441827029461,48.37441827029461 0 0,0 0.827509606716079,-0.09298034618547153 l 2.822348990303464 27.228535065514865" fill="#b1ff20" stroke="none" /><path d="M 98.55514903715128 79.0497635885617 l -0.504787164199581 -7.319378053076095 a28.33676394366022,28.33676394366022 0 0,0 0.48690380209264755,-0.029371367018833243 l 0.3787213132673105 7.326982689475234" fill="#ff4d07" stroke="none" /><path d="M 98.91598698831166 79.02799685794201 l -0.3274869075864995 -6.335769387297303 a27.344227407939773,27.344227407939773 0 0,0 0.4702675433146932,-0.020250709649188188 l 0.21837853188248216 6.340467823470683" fill="#ff3e05" stroke="none" /><path d="M 99.27714615592234 79.0124445844662 l -0.21976821879925268 -6.380816410415225 a27.384599919604863,27.384599919604863 0 0,0 0.47124119127569786,-0.012170769673713982 l 0.10990039232867581 6.383653972231298" fill="#ff3f05" stroke="none" /><path d="M 99.63851952072746 79.00311137660856 l -0.2664273437095724 -15.475649676446771 a36.47794290070819,36.47794290070819 0 0,0 0.6279078229821042,-0.005404600869981406 l 3.791002646147557e-15 15.477942900708193" fill="#ffbb11" stroke="none" /></svg>